<svg width="250" height="199" viewBox="0 0 250 199" fill="none" xmlns="http://www.w3.org/2000/svg">
<path d="M119.829 111.077L117.929 109.177L118.705 108.402L122.042 111.739L116.657 112.855L118.74 114.938L117.99 115.687L114.47 112.167L119.829 111.077ZM127.118 110.889L127.623 111.394L126.874 112.126C127.187 112.58 127.44 113.047 127.632 113.529L126.708 114.453C126.638 114.139 126.56 113.881 126.473 113.677C126.368 113.422 126.235 113.178 126.072 112.945L124.085 114.932C124.317 115.804 124.384 116.498 124.285 117.015C124.204 117.457 124.01 117.831 123.701 118.139C122.749 119.092 121.703 119.196 120.564 118.453L119.789 119.228L119.283 118.723L120.059 117.947C119.873 117.762 119.69 117.451 119.51 117.015C119.342 116.58 119.24 116.211 119.205 115.908L120.216 114.897C120.21 115.275 120.262 115.676 120.373 116.1C120.495 116.524 120.663 116.867 120.878 117.128L122.9 115.107C122.725 114.351 122.647 113.768 122.664 113.355C122.694 112.722 122.917 112.196 123.336 111.778C123.806 111.307 124.3 111.069 124.817 111.063C125.276 111.057 125.799 111.243 126.386 111.621L127.118 110.889ZM125.558 112.449C125.337 112.321 125.105 112.275 124.861 112.309C124.622 112.338 124.41 112.446 124.224 112.632C124.05 112.806 123.943 113.03 123.902 113.303C123.873 113.518 123.882 113.776 123.928 114.078L125.558 112.449ZM122.752 117.381C122.943 117.189 123.06 116.969 123.1 116.719C123.129 116.539 123.118 116.283 123.065 115.952L121.41 117.608C121.677 117.712 121.918 117.75 122.133 117.721C122.348 117.692 122.554 117.578 122.752 117.381ZM129.056 114.448L129.927 115.319L127.26 117.986L130.371 121.097L133.038 118.43L133.918 119.311L127.766 125.463L126.886 124.583L129.552 121.916L126.441 118.805L123.775 121.471L122.903 120.6L129.056 114.448ZM135.117 120.509L138.429 123.821L137.609 124.64L135.187 122.217L133.322 124.082L135.683 126.444L134.864 127.263L132.503 124.901L130.655 126.749L133.182 129.276L132.381 130.078L128.965 126.662L135.117 120.509ZM134.066 129.427C134.142 129.817 134.226 130.133 134.319 130.377C134.452 130.743 134.621 131.028 134.824 131.231C134.964 131.371 135.103 131.458 135.243 131.493C135.382 131.528 135.518 131.478 135.652 131.345C135.832 131.164 135.812 130.615 135.591 129.697C135.37 128.78 135.478 128.103 135.913 127.667C136.262 127.319 136.645 127.156 137.064 127.179C137.494 127.202 137.883 127.388 138.231 127.737C138.423 127.928 138.586 128.149 138.719 128.399C138.859 128.643 138.967 128.908 139.042 129.192L138.188 130.064C138.159 129.814 138.077 129.535 137.944 129.227C137.816 128.913 137.671 128.675 137.508 128.513C137.404 128.408 137.285 128.341 137.151 128.312C137.023 128.289 136.907 128.33 136.802 128.434C136.617 128.62 136.634 129.172 136.855 130.09C137.087 131.008 136.985 131.684 136.55 132.12C136.201 132.469 135.797 132.634 135.338 132.617C134.891 132.6 134.49 132.414 134.136 132.059C133.903 131.827 133.712 131.565 133.561 131.275C133.41 130.996 133.282 130.677 133.177 130.317L134.066 129.427ZM142.225 127.617L146.007 131.399L145.807 131.6L137.127 135.051L136.752 133.874L144.064 131.077L141.415 128.428L142.225 127.617Z" fill="#5FD889" fill-opacity="0.25"/>
<path d="M221.348 46.9183L219.448 48.818L218.673 48.0426L222.01 44.7049L223.125 50.0905L225.208 48.0077L225.958 48.757L222.437 52.2778L221.348 46.9183ZM221.16 39.6299L221.665 39.1243L222.397 39.8739C222.85 39.5602 223.318 39.3074 223.8 39.1155L224.724 40.0394C224.41 40.1092 224.151 40.1877 223.948 40.2746C223.692 40.3792 223.448 40.5127 223.216 40.6754L225.203 42.6623C226.074 42.4299 226.768 42.363 227.286 42.462C227.727 42.5433 228.102 42.738 228.41 43.0458C229.362 43.9986 229.467 45.0444 228.723 46.1831L229.499 46.9585L228.994 47.4641L228.218 46.6884C228.032 46.8743 227.721 47.0574 227.286 47.2373C226.85 47.406 226.481 47.5074 226.179 47.5423L225.168 46.5317C225.545 46.5373 225.946 46.4852 226.37 46.3746C226.795 46.2528 227.137 46.0842 227.399 45.8694L225.377 43.8475C224.622 44.0218 224.038 44.1004 223.625 44.0827C222.992 44.0539 222.467 43.8303 222.048 43.412C221.577 42.9412 221.339 42.4475 221.334 41.9303C221.328 41.4715 221.514 40.9486 221.891 40.362L221.16 39.6299ZM222.719 41.1898C222.592 41.4106 222.545 41.643 222.58 41.887C222.609 42.125 222.716 42.337 222.902 42.5229C223.076 42.6972 223.3 42.8046 223.573 42.8454C223.788 42.8743 224.047 42.8658 224.349 42.8194L222.719 41.1898ZM227.651 43.9958C227.46 43.8039 227.239 43.6877 226.989 43.6472C226.809 43.618 226.554 43.6296 226.223 43.682L227.878 45.3377C227.983 45.0704 228.02 44.8292 227.992 44.6144C227.962 44.3993 227.849 44.1933 227.651 43.9958ZM224.718 37.6919L225.59 36.8204L228.256 39.487L231.367 36.3757L228.701 33.7093L229.581 32.8291L235.733 38.9813L234.853 39.8616L232.187 37.1951L229.075 40.306L231.742 42.9725L230.871 43.844L224.718 37.6919ZM230.78 31.6303L234.091 28.3188L234.91 29.138L232.488 31.5606L234.352 33.4255L236.714 31.0639L237.533 31.883L235.172 34.2446L237.019 36.0919L239.546 33.5649L240.348 34.3666L236.932 37.7827L230.78 31.6303ZM239.698 32.6813C240.087 32.6057 240.404 32.5215 240.648 32.4286C241.014 32.2949 241.299 32.1264 241.502 31.9231C241.641 31.7837 241.729 31.6443 241.763 31.5048C241.798 31.3654 241.749 31.2289 241.615 31.0952C241.435 30.9151 240.886 30.9355 239.968 31.1563C239.05 31.377 238.373 31.2695 237.938 30.8338C237.589 30.4852 237.426 30.1018 237.45 29.6835C237.473 29.2536 237.659 28.8644 238.007 28.5158C238.199 28.3241 238.42 28.1614 238.67 28.0278C238.914 27.8884 239.178 27.7809 239.463 27.7054L240.334 28.5594C240.084 28.5884 239.805 28.6698 239.498 28.8034C239.184 28.9312 238.946 29.0764 238.783 29.2391C238.679 29.3437 238.612 29.4628 238.582 29.5964C238.559 29.7242 238.6 29.8404 238.705 29.945C238.891 30.1309 239.442 30.1135 240.36 29.8927C241.278 29.6603 241.955 29.762 242.391 30.1977C242.739 30.5462 242.905 30.95 242.887 31.409C242.87 31.8563 242.684 32.2571 242.33 32.6115C242.097 32.8439 241.836 33.0356 241.545 33.1867C241.267 33.3377 240.947 33.4656 240.587 33.5701L239.698 32.6813ZM237.888 24.5222L241.67 20.7402L241.87 20.9406L245.321 29.6201L244.145 29.9948L241.348 22.6834L238.698 25.3326L237.888 24.5222Z" fill="#5FD889"/>
<path d="M7.38274 88.1975L6.79017 91.7183L10.3108 91.1257L11.3913 92.2063L6.37186 92.9905L3.12142 96.2408L2.24127 95.3609L5.49172 92.1102L6.31087 87.1257L7.38274 88.1975ZM12.0624 92.8771L14.058 94.8729C14.5925 95.4074 14.8713 95.994 14.8946 96.6331C14.9294 97.2722 14.6854 97.8532 14.1626 98.3761C13.6049 98.9338 13.0355 99.2011 12.4545 99.1778C11.984 99.1602 11.4698 98.9426 10.9121 98.5243C10.5868 98.2803 10.1133 97.8472 9.49168 97.2257L6.79894 99.9183L5.91006 99.0296L12.0624 92.8771ZM11.1822 97.2433C11.5657 97.6268 11.9026 97.8532 12.1931 97.9229C12.5707 98.0099 12.9396 97.8736 13.2999 97.5134C13.6135 97.1996 13.7327 96.8599 13.6571 96.4937C13.5874 96.1799 13.387 95.8577 13.0558 95.5264L12.1234 94.594L10.3283 96.3891L11.1822 97.2433ZM11.4692 102.34C11.568 102.683 11.6668 102.968 11.7655 103.194C11.9049 103.508 12.0705 103.761 12.2622 103.952C12.5934 104.284 12.9477 104.458 13.3254 104.475C13.7146 104.493 14.0719 104.339 14.3972 104.014C14.8155 103.595 14.9666 103.171 14.8504 102.741C14.7748 102.468 14.5251 102.067 14.1009 101.539L14.8504 100.789C15.2222 101.161 15.5766 101.382 15.9135 101.451C16.3202 101.533 16.7007 101.396 17.0551 101.042C17.3165 100.781 17.4356 100.481 17.4124 100.144C17.4008 99.8074 17.2614 99.5053 16.9941 99.238C16.785 99.0289 16.541 98.8546 16.2621 98.7151C16.1285 98.6514 15.8496 98.5408 15.4255 98.3842L16.2882 97.5387C16.5787 97.6898 16.8721 97.838 17.1684 97.9831C17.4937 98.1574 17.761 98.3493 17.9701 98.5584C18.4407 99.0289 18.6818 99.5662 18.6934 100.17C18.7166 100.775 18.493 101.312 18.0224 101.783C17.6622 102.143 17.2846 102.352 16.8895 102.41C16.5526 102.457 16.1227 102.393 15.5998 102.218C15.8554 102.625 15.9513 103.075 15.8874 103.569C15.8293 104.057 15.6259 104.475 15.2774 104.824C14.7197 105.382 14.1184 105.681 13.4735 105.721C12.788 105.768 12.1693 105.515 11.6174 104.963C11.3792 104.725 11.1787 104.461 11.0161 104.17C10.8534 103.892 10.714 103.572 10.5978 103.212L11.4692 102.34ZM19.5555 103.473C19.9738 103.054 20.456 102.874 21.0021 102.932C21.554 102.996 22.0449 103.243 22.4748 103.673C22.9047 104.103 23.1255 104.568 23.1371 105.067C23.1603 105.567 22.957 106.032 22.5271 106.462C22.2134 106.775 21.7951 106.985 21.2722 107.089C20.7494 107.194 20.2585 107.185 19.7995 107.063L19.5991 108.71C20.0755 108.64 20.5373 108.544 20.9847 108.423L21.8822 109.32C21.0921 109.587 20.2933 109.788 19.4858 109.921L19.2244 112.344L18.1961 111.315L18.3355 109.956C17.7545 109.945 17.2724 109.875 16.8889 109.747C16.4241 109.596 16.0088 109.337 15.6428 108.971C15.2245 108.553 14.9921 108.071 14.9456 107.525C14.905 106.985 15.0909 106.508 15.5033 106.096C15.8868 105.712 16.398 105.509 17.0371 105.486C17.4321 105.474 17.9957 105.544 18.7277 105.695C18.809 105.056 18.9135 104.58 19.0414 104.266C19.1692 103.952 19.3406 103.688 19.5555 103.473ZM19.9041 105.965L20.1481 106C20.4908 106.04 20.761 106.043 20.9585 106.008C21.2258 105.962 21.464 105.834 21.6731 105.625C21.859 105.439 21.952 105.236 21.952 105.015C21.9636 104.794 21.8735 104.588 21.6818 104.396C21.4959 104.211 21.2781 104.115 21.0282 104.109C20.7784 104.103 20.5577 104.196 20.3659 104.388C20.2556 104.498 20.1307 104.768 19.9912 105.198C19.8518 105.628 19.8227 105.884 19.9041 105.965ZM18.6144 106.767C18.0799 106.65 17.6935 106.589 17.4553 106.584C16.9906 106.572 16.6304 106.694 16.3748 106.95C16.2063 107.118 16.1366 107.333 16.1656 107.595C16.2005 107.85 16.3051 108.065 16.4794 108.239C16.7059 108.466 17.0051 108.626 17.3769 108.719C17.6732 108.794 18.0218 108.829 18.4226 108.823L18.6144 106.767ZM26.2046 111.324L27.0325 112.152L20.7843 118.4L19.9564 117.573L22.3703 115.159C21.8939 115.043 21.5047 114.833 21.2026 114.531C20.5984 113.927 20.3253 113.247 20.3834 112.492C20.4357 111.789 20.7698 111.13 21.3856 110.514C21.9607 109.939 22.594 109.602 23.2853 109.503C24.0406 109.399 24.697 109.625 25.2547 110.183C25.6498 110.578 25.8851 111.04 25.9606 111.568L26.2046 111.324ZM25.2896 112.239C25.249 112.059 25.1734 111.856 25.0631 111.629C24.9643 111.403 24.8539 111.229 24.7319 111.107C24.3659 110.74 23.9563 110.581 23.5032 110.627C23.0558 110.68 22.6434 110.894 22.2657 111.272C21.8533 111.685 21.6093 112.103 21.5337 112.527C21.4408 113.026 21.5947 113.477 21.9956 113.878C22.2803 114.162 22.655 114.339 23.1197 114.409L25.2896 112.239ZM30.025 110.84L30.8964 111.711L27.2625 115.345C26.7048 115.903 26.4056 116.463 26.365 117.027C26.3359 117.59 26.5973 118.148 27.1493 118.7C27.7709 119.322 28.3838 119.598 28.988 119.528C29.5341 119.47 30.1266 119.121 30.7657 118.482L34.2166 115.031L35.088 115.903L31.2363 119.755C30.4462 120.545 29.6096 120.917 28.7265 120.87C27.8551 120.824 27.0185 120.4 26.2168 119.598C25.3977 118.779 25.0142 117.925 25.0665 117.036C25.1304 116.147 25.5778 115.287 26.4085 114.456L30.025 110.84ZM35.0628 121.943L35.7162 116.531L36.8405 117.655L36.3352 121.786L40.5091 121.324L41.6334 122.448L36.1958 123.076L35.5507 128.67L34.4353 127.555L34.9146 123.206L30.5313 123.651L29.381 122.5L35.0628 121.943ZM39.3598 128.401L39.7433 124.863L40.7891 125.909L40.4926 128.349L42.9415 128.061L44.0218 129.142L40.4577 129.499L40.1268 133.246L39.0549 132.174L39.2901 129.551L36.6672 129.787L35.5951 128.715L39.3598 128.401ZM46.5007 130.627C46.4077 130.197 46.332 129.849 46.2739 129.581C46.1694 129.07 46.187 128.745 46.3264 128.605C46.5588 128.373 46.7968 128.379 47.0408 128.623C47.1686 128.75 47.1718 129.067 47.0496 129.573C46.8986 130.212 46.826 130.569 46.8317 130.644C46.9539 130.523 47.1542 130.235 47.4331 129.782C47.5841 129.538 47.712 129.363 47.8165 129.259C47.9267 129.149 48.0401 129.082 48.1563 129.058C48.2841 129.035 48.4032 129.079 48.5137 129.189C48.6183 129.294 48.6532 129.416 48.6183 129.555C48.5951 129.695 48.5282 129.819 48.4179 129.93C48.3074 130.04 48.1651 130.142 47.9908 130.235C47.7063 130.392 47.5377 130.484 47.4855 130.514C47.4447 130.543 47.3838 130.592 47.3025 130.662C47.2211 130.732 47.1454 130.801 47.0757 130.871C47.1979 130.877 47.5609 130.804 48.1651 130.653C48.6299 130.537 48.9553 130.572 49.1412 130.758C49.2341 130.851 49.2718 130.952 49.2546 131.063C49.2429 131.179 49.1905 131.283 49.0975 131.376C48.9641 131.51 48.7926 131.559 48.5834 131.525C48.3278 131.455 48.1391 131.4 48.0169 131.359C47.9007 131.324 47.7468 131.292 47.5553 131.263C47.4855 131.251 47.3229 131.228 47.0672 131.193C47.1775 131.304 47.4651 131.499 47.9299 131.777C48.1623 131.917 48.3306 132.039 48.4352 132.143C48.5458 132.254 48.6155 132.376 48.6443 132.509C48.6792 132.649 48.6444 132.771 48.5398 132.875C48.4352 132.98 48.3162 133.029 48.1824 133.024C48.0489 133.018 47.9299 132.962 47.8253 132.858C47.7032 132.736 47.5753 132.562 47.4419 132.335C47.1454 131.83 46.9451 131.525 46.8405 131.42C46.9567 132.036 47.038 132.512 47.0845 132.849C47.1426 133.186 47.1253 133.401 47.0324 133.494C46.9278 133.599 46.8084 133.66 46.675 133.677C46.5528 133.694 46.4398 133.651 46.3352 133.546C46.2014 133.413 46.1841 133.076 46.2827 132.536C46.3584 132.158 46.4366 131.783 46.5179 131.411C46.4017 131.527 46.1898 131.832 45.882 132.326C45.731 132.57 45.5972 132.75 45.481 132.867C45.3824 132.965 45.2662 133.018 45.1324 133.024C45.0106 133.029 44.9 132.983 44.8014 132.884C44.6852 132.768 44.6475 132.643 44.688 132.509C44.7289 132.376 44.813 132.245 44.9408 132.117C45.0859 131.972 45.3243 131.798 45.6553 131.594C45.9922 131.385 46.213 131.24 46.3176 131.158C46.2827 131.158 45.9109 131.246 45.2021 131.42C44.6792 131.548 44.3338 131.527 44.1651 131.359C43.956 131.15 43.9736 130.923 44.2176 130.679C44.3106 130.586 44.5282 130.566 44.8711 130.618C45.3359 130.7 45.8035 130.778 46.2739 130.854C45.7979 130.54 45.3271 130.226 44.8623 129.912C44.7637 129.814 44.6996 129.698 44.6708 129.564C44.6532 129.43 44.694 129.314 44.7926 129.215C44.8915 129.117 45.0046 129.061 45.1324 129.05C45.2718 129.038 45.3912 129.082 45.4898 129.18C45.6236 129.314 45.7803 129.546 45.9606 129.877C46.1461 130.203 46.3003 130.426 46.4222 130.549L46.5007 130.627ZM45.5106 137.428C45.6327 137.306 45.7866 137.245 45.9725 137.245C46.0887 137.245 46.3588 137.323 46.7831 137.48C46.6377 137.009 46.5884 136.606 46.6348 136.269C46.6873 135.868 46.876 135.505 47.2014 135.179C47.6546 134.726 48.1627 134.514 48.7264 134.543C49.2958 134.578 49.8098 134.825 50.2686 135.284C50.4662 135.481 50.7567 135.789 51.1401 136.208C51.5236 136.626 51.8169 136.937 52.0204 137.14L51.3056 137.855L50.7046 137.254C50.6753 137.445 50.6172 137.625 50.5303 137.794C50.4489 137.968 50.3444 138.119 50.2165 138.247C49.6356 138.828 48.8774 138.941 47.9419 138.587C47.0183 138.232 46.5042 138.107 46.3996 138.212C46.2834 138.328 46.3704 138.624 46.6609 139.101C47.0676 139.763 47.3116 140.234 47.3929 140.513C47.5732 141.111 47.4598 141.613 47.0532 142.02C46.5944 142.479 46.051 142.639 45.4236 142.499C44.8891 142.383 44.3806 142.084 43.8986 141.602C43.4278 141.131 43.1144 140.637 42.9574 140.12C42.7542 139.464 42.8672 138.921 43.2972 138.491C43.5993 138.189 43.9275 138.023 44.282 137.994C44.6306 137.959 44.9908 138.058 45.3627 138.29C45.3046 138.151 45.287 138 45.3102 137.837C45.3334 137.675 45.4003 137.538 45.5106 137.428ZM47.9246 137.524C48.1627 137.762 48.4243 137.866 48.7088 137.837C48.9993 137.814 49.2665 137.68 49.5105 137.436C49.7373 137.21 49.8563 136.945 49.8679 136.643C49.8796 136.341 49.769 136.074 49.5366 135.842C49.3218 135.627 49.0634 135.531 48.7612 135.554C48.4648 135.583 48.2063 135.708 47.9855 135.929C47.7359 136.179 47.6021 136.446 47.5848 136.731C47.5672 137.015 47.6806 137.28 47.9246 137.524ZM44.5 140.792C44.7789 141.07 45.0429 141.271 45.2929 141.393C45.6764 141.579 45.9785 141.561 46.1993 141.34C46.4257 141.114 46.475 140.838 46.3472 140.513C46.2602 140.286 46.0831 140.039 45.8158 139.772C45.5021 139.458 45.2377 139.246 45.0229 139.136C44.651 138.95 44.3458 138.976 44.1077 139.214C43.8986 139.423 43.8577 139.696 43.9855 140.033C44.0845 140.295 44.256 140.548 44.5 140.792ZM52.1672 137.287L52.7771 137.897C53.4975 137.176 54.0669 136.735 54.4852 136.572C55.1708 136.305 55.8243 136.482 56.4458 137.104C56.5503 137.208 56.6465 137.339 56.7334 137.496C56.8324 137.653 56.9165 137.819 56.9863 137.993L56.2366 138.742C56.1148 138.457 56.0218 138.266 55.9581 138.167C55.9 138.063 55.8243 137.964 55.7313 137.871C55.4701 137.61 55.1796 137.534 54.8598 137.644C54.6274 137.726 54.3662 137.912 54.0757 138.202L53.5965 138.716L54.3806 139.5L53.701 140.18L52.9165 139.396L49.5965 142.716L48.7775 141.897L52.0975 138.577L51.4873 137.967L52.1672 137.287ZM57.0623 137.877L57.8901 138.705L53.9598 142.635L57.3063 142.426L58.3782 143.498L54.744 143.681L54.8313 147.951L53.6201 146.739L53.6025 142.992L51.7377 144.857L50.9098 144.029L57.0623 137.877ZM61.6408 146.761L62.4686 147.588L56.2204 153.837L55.3926 153.009L57.8063 150.595C57.3299 150.479 56.9408 150.269 56.6387 149.967C56.0345 149.363 55.7612 148.683 55.8193 147.928C55.8718 147.225 56.206 146.566 56.8218 145.95C57.3968 145.375 58.0299 145.038 58.7215 144.939C59.4767 144.835 60.1331 145.061 60.6908 145.619C61.0859 146.014 61.3211 146.476 61.3968 147.005L61.6408 146.761ZM60.7257 147.675C60.6848 147.495 60.6095 147.292 60.4989 147.065C60.4003 146.839 60.2901 146.664 60.1679 146.543C59.8021 146.176 59.3922 146.017 58.9391 146.063C58.4919 146.115 58.0796 146.331 57.7017 146.708C57.2894 147.121 57.0454 147.539 56.9697 147.963C56.8767 148.463 57.0306 148.913 57.4317 149.314C57.7162 149.599 58.0912 149.776 58.556 149.845L60.7257 147.675ZM61.7662 151.121C61.4 151.487 61.2229 151.897 61.2345 152.35C61.2577 152.803 61.4641 153.224 61.8531 153.613C62.138 153.898 62.501 154.122 62.9426 154.284C63.0179 154.313 63.2708 154.392 63.7007 154.52L62.8905 155.33C62.4257 155.168 62.0827 155.034 61.862 154.929C61.5194 154.761 61.2172 154.546 60.9556 154.284C60.3398 153.669 60.0524 152.974 60.0929 152.202C60.1394 151.423 60.4764 150.72 61.1039 150.093C61.6384 149.558 62.2715 149.25 63.0035 149.169C63.7415 149.094 64.3746 149.32 64.9031 149.849C65.5074 150.453 65.7458 151.138 65.6179 151.905C65.5074 152.574 65.1355 153.224 64.5024 153.857L61.7662 151.121ZM64.3021 152.454C64.5053 152.135 64.607 151.818 64.607 151.505C64.613 151.185 64.488 150.898 64.2324 150.642C63.9708 150.38 63.6774 150.244 63.3521 150.232C63.0267 150.221 62.7046 150.322 62.3848 150.537L64.3021 152.454Z" fill="#5FD889" fill-opacity="0.75"/>
<path d="M126.318 99.3751L133.315 92.3789L134.485 93.549L131.634 96.3997L139.253 104.019L137.971 105.301L130.352 97.6821L127.488 100.545L126.318 99.3751ZM140.067 97.8265C140.59 98.3494 141.175 98.6025 141.823 98.586C142.47 98.5529 143.071 98.2582 143.627 97.7022C144.034 97.2955 144.354 96.7768 144.586 96.1458C144.627 96.0381 144.739 95.6772 144.922 95.0627L146.08 96.2205C145.848 96.8846 145.657 97.3743 145.507 97.6895C145.267 98.1793 144.959 98.611 144.586 98.9842C143.706 99.8641 142.714 100.275 141.611 100.217C140.499 100.15 139.494 99.6691 138.598 98.7726C137.834 98.0092 137.395 97.1046 137.279 96.0589C137.17 95.0046 137.494 94.1001 138.25 93.3448C139.113 92.4817 140.092 92.1416 141.187 92.324C142.142 92.4818 143.071 93.0131 143.976 93.9177L140.067 97.8265ZM141.972 94.2039C141.515 93.9134 141.063 93.768 140.615 93.768C140.158 93.7599 139.748 93.9384 139.382 94.3036C139.009 94.6768 138.814 95.0962 138.797 95.561C138.781 96.0258 138.926 96.4863 139.233 96.9427L141.972 94.2039ZM144.622 83.4617L139.618 88.4663L138.423 87.2712L145.805 79.8888L147.946 92.9853L153.187 87.7441L154.357 88.9145L146.726 96.5458L144.622 83.4617ZM146.676 79.017L147.921 77.7722L153.113 82.9634C153.909 83.7603 154.71 84.1877 155.515 84.2458C156.32 84.287 157.117 83.9138 157.906 83.1254C158.794 82.2374 159.188 81.3617 159.088 80.4986C159.005 79.7184 158.507 78.8719 157.594 77.9589L152.664 73.0289L153.909 71.7842L159.412 77.2867C160.54 78.4156 161.072 79.6106 161.005 80.8719C160.939 82.117 160.333 83.312 159.188 84.4575C158.018 85.6275 156.798 86.1754 155.528 86.1008C154.258 86.0092 153.03 85.3701 151.843 84.1835L146.676 79.017ZM162.999 74.4469L157.944 73.8994L159.438 72.4053L162.924 72.8286L162.513 69.3303L164.057 67.7867L164.567 72.8786L169.92 73.3515L168.389 74.8828L164.642 74.5465L164.978 78.2937L163.446 79.8251L162.999 74.4469Z" fill="#5FD889" fill-opacity="0.5"/>
<path d="M164.809 64.0714L166.291 65.5528L167.884 63.9595L168.855 64.9302L167.262 66.5489C167.602 66.889 168.158 67.4616 168.93 68.2669C169.693 69.0633 170.104 69.4908 170.162 69.5489C170.378 69.7647 170.61 69.8894 170.859 69.9225C171.117 69.9475 171.353 69.8521 171.569 69.6362C171.776 69.4288 171.963 69.1091 172.129 68.6774C172.262 68.3457 172.366 67.9845 172.44 67.5943L173.698 68.8517C173.441 69.4908 173.279 69.8852 173.212 70.0345C173.013 70.4496 172.772 70.7982 172.49 71.0802C171.934 71.6362 171.307 71.8397 170.61 71.6901C170.021 71.5658 169.432 71.2087 168.843 70.6197C168.519 70.2961 167.988 69.7482 167.249 68.9764C166.502 68.1961 166.104 67.7813 166.054 67.7313L165.357 68.4285L164.809 64.0714ZM171.342 60.2274C172.164 59.4056 173.164 59.0116 174.342 59.0447C175.521 59.0612 176.525 59.4845 177.355 60.3144C178.193 61.1528 178.587 62.1612 178.538 63.3397C178.488 64.5183 178.044 65.5264 177.206 66.3647C176.417 67.1531 175.425 67.5475 174.23 67.5475C173.035 67.5475 172.043 67.1531 171.255 66.3647C170.375 65.4852 169.952 64.464 169.985 63.3024C170.01 62.132 170.462 61.107 171.342 60.2274ZM176.123 65.207C176.654 64.676 176.927 64.0369 176.944 63.2897C176.961 62.5429 176.707 61.908 176.185 61.3852C175.67 60.8707 175.039 60.6133 174.293 60.6133C173.545 60.6133 172.915 60.8707 172.4 61.3852C171.861 61.9246 171.583 62.576 171.566 63.3397C171.55 64.0866 171.811 64.7299 172.35 65.2693C172.84 65.7588 173.467 65.9954 174.23 65.9788C174.994 65.9623 175.625 65.7049 176.123 65.207ZM178.114 53.4556C178.935 52.6341 179.935 52.2397 181.114 52.2732C182.292 52.2897 183.297 52.713 184.126 53.5429C184.965 54.3813 185.359 55.3894 185.309 56.5679C185.26 57.7464 184.816 58.7549 183.977 59.5933C183.189 60.3816 182.197 60.7757 181.002 60.7757C179.807 60.7757 178.815 60.3816 178.026 59.5933C177.147 58.7133 176.724 57.6926 176.757 56.5306C176.782 55.3605 177.234 54.3355 178.114 53.4556ZM182.894 58.4355C183.425 57.9042 183.699 57.2651 183.716 56.5183C183.732 55.7714 183.479 55.1362 182.956 54.6137C182.442 54.0989 181.811 53.8418 181.064 53.8418C180.317 53.8418 179.686 54.0989 179.172 54.6137C178.632 55.1531 178.354 55.8045 178.338 56.5679C178.321 57.3151 178.582 57.958 179.122 58.4975C179.612 58.9873 180.238 59.2239 181.002 59.2073C181.766 59.1908 182.396 58.9334 182.894 58.4355ZM179.457 46.2359L180.628 45.0658L189.417 53.8549L188.246 55.0249L179.457 46.2359Z" fill="#282828"/>
<path d="M184.445 40.9244C185.375 39.9948 186.607 39.8247 188.143 40.4138C189.33 40.8705 190.454 41.6296 191.517 42.692C192.239 43.4141 192.836 44.1363 193.309 44.8582C193.94 45.8208 194.301 46.705 194.392 47.5099C194.508 48.5057 194.214 49.3564 193.508 50.062C192.504 51.0663 191.189 51.2279 189.562 50.5476C188.367 50.0493 187.18 49.2113 186.002 48.0328C184.889 46.9205 184.134 45.792 183.736 44.6465C183.213 43.161 183.45 41.9201 184.445 40.9244ZM192.363 48.842C192.977 48.2279 192.957 47.3772 192.301 46.2898C191.936 45.6758 191.317 44.9328 190.446 44.0613C189.608 43.2233 188.848 42.605 188.168 42.2067C187.039 41.5427 186.176 41.5096 185.579 42.1071C184.964 42.7212 184.964 43.5842 185.579 44.6965C185.977 45.4103 186.583 46.1736 187.396 46.987C188.259 47.8501 189.027 48.4684 189.699 48.842C190.836 49.481 191.724 49.481 192.363 48.842ZM195.151 44.7846C195.707 44.6765 196.159 44.556 196.508 44.4233C197.031 44.2325 197.437 43.992 197.728 43.7015C197.927 43.5022 198.051 43.3029 198.101 43.1039C198.151 42.9046 198.081 42.7096 197.89 42.5187C197.632 42.2613 196.848 42.2906 195.537 42.6057C194.225 42.9212 193.258 42.7677 192.636 42.1451C192.138 41.6472 191.906 41.0994 191.939 40.5018C191.972 39.8877 192.238 39.3318 192.736 38.8339C193.01 38.5599 193.325 38.3275 193.682 38.1367C194.03 37.9374 194.408 37.7839 194.815 37.6761L196.06 38.8958C195.703 38.9374 195.304 39.0536 194.864 39.2444C194.416 39.4272 194.076 39.6346 193.844 39.867C193.694 40.0163 193.599 40.1867 193.557 40.3775C193.524 40.5599 193.582 40.7261 193.732 40.8754C193.997 41.1409 194.786 41.1163 196.097 40.8008C197.408 40.4687 198.375 40.6141 198.998 41.2363C199.495 41.7346 199.732 42.3113 199.707 42.967C199.682 43.606 199.417 44.1786 198.911 44.6849C198.579 45.017 198.205 45.2906 197.79 45.5064C197.392 45.7222 196.935 45.905 196.421 46.0543L195.151 44.7846ZM193.138 32.5559C194.407 33.1286 195.362 33.5602 196.001 33.8506C197.221 34.3901 198.183 34.83 198.889 35.1702C200.026 35.7096 200.968 36.1786 201.715 36.5768C201.043 35.4233 200.333 34.0166 199.586 32.3568C198.947 30.9209 198.308 29.4769 197.669 28.0245L198.715 26.9788L205.089 29.7674C205.595 29.9914 205.973 30.1616 206.222 30.2778C206.645 30.4687 207.006 30.6637 207.305 30.8629C206.881 30.0744 206.421 29.1656 205.923 28.1365C205.425 27.1074 204.968 26.1364 204.554 25.2234C204.13 24.3022 203.703 23.3685 203.271 22.4224L204.653 21.0406L210.106 33.1659L209.695 33.5768C208.724 33.1867 207.641 32.7427 206.446 32.2447C204.861 31.5891 203.782 31.1326 203.209 30.8753C202.279 30.4603 201.225 29.9541 200.047 29.3565C200.503 30.2446 201.014 31.2861 201.578 32.4813C201.893 33.1452 202.371 34.2034 203.01 35.6557C203.408 36.5522 203.877 37.6187 204.417 38.855L204.006 39.2659L191.694 34L193.138 32.5559Z" fill="#5FD889"/>
<path d="M76.7465 126.831C76.3282 126.413 76.148 125.931 76.2061 125.384C76.2701 124.833 76.517 124.342 76.9469 123.912C77.3768 123.482 77.8416 123.261 78.3413 123.25C78.8409 123.226 79.3057 123.43 79.7356 123.859C80.0494 124.173 80.2585 124.592 80.3631 125.114C80.4677 125.637 80.4589 126.128 80.3367 126.587L81.9839 126.788C81.9142 126.311 81.8184 125.849 81.6962 125.402L82.5937 124.505C82.861 125.295 83.0613 126.093 83.1951 126.901L85.6177 127.162L84.5895 128.191L83.23 128.051C83.2184 128.632 83.1487 129.114 83.0208 129.498C82.8698 129.963 82.6113 130.378 82.2451 130.744C81.8268 131.162 81.3448 131.395 80.7987 131.441C80.2585 131.482 79.7821 131.296 79.3694 130.883C78.986 130.5 78.7828 129.989 78.7596 129.35C78.748 128.955 78.8177 128.391 78.9687 127.659C78.3296 127.578 77.8532 127.473 77.5395 127.345C77.2258 127.218 76.9613 127.046 76.7465 126.831ZM79.2388 126.483L79.2737 126.239C79.3145 125.896 79.3173 125.626 79.2825 125.428C79.236 125.161 79.1082 124.923 78.899 124.714C78.7131 124.528 78.5096 124.435 78.2888 124.435C78.068 124.423 77.862 124.513 77.6701 124.705C77.4842 124.891 77.3884 125.109 77.3828 125.358C77.3768 125.608 77.4698 125.829 77.6617 126.021C77.7719 126.131 78.042 126.256 78.4719 126.395C78.9018 126.535 79.1575 126.564 79.2388 126.483ZM80.0406 127.772C79.9244 128.307 79.8634 128.693 79.8575 128.931C79.8458 129.396 79.968 129.756 80.2237 130.012C80.392 130.181 80.6071 130.25 80.8684 130.221C81.124 130.186 81.3388 130.082 81.5131 129.907C81.7399 129.681 81.8997 129.382 81.9927 129.01C82.068 128.714 82.1029 128.365 82.0973 127.964L80.0406 127.772ZM82.4458 122.334C83.8691 122.852 85.1501 123.337 86.2888 123.79L84.7899 119.99L85.705 119.075L89.1472 128.13L88.2321 129.045L86.7244 125.114L81.5307 123.25L82.4458 122.334Z" fill="#5FD889"/>
<path d="M89.4771 122.1C89.3553 121.978 89.2944 121.824 89.2944 121.638C89.2944 121.522 89.3726 121.252 89.5296 120.828C89.0588 120.973 88.6553 121.023 88.3183 120.976C87.9173 120.924 87.5542 120.735 87.2289 120.41C86.7757 119.957 86.5637 119.448 86.5926 118.885C86.6275 118.316 86.8747 117.801 87.3335 117.342C87.531 117.145 87.8391 116.854 88.2571 116.471C88.6754 116.087 88.9863 115.794 89.1898 115.591L89.9042 116.305L89.3028 116.906C89.4947 116.936 89.6747 116.994 89.8433 117.081C90.0176 117.162 90.1687 117.267 90.2965 117.394C90.8775 117.975 90.9905 118.734 90.6363 119.669C90.2817 120.593 90.1571 121.107 90.2616 121.211C90.3778 121.328 90.674 121.241 91.1504 120.95C91.8127 120.543 92.2831 120.299 92.562 120.218C93.1606 120.038 93.663 120.151 94.0697 120.558C94.5285 121.017 94.6884 121.56 94.549 122.187C94.4328 122.722 94.1335 123.23 93.6514 123.712C93.181 124.183 92.687 124.497 92.1701 124.654C91.5134 124.857 90.9704 124.744 90.5405 124.314C90.2384 124.012 90.0726 123.684 90.0437 123.329C90.0088 122.98 90.1074 122.62 90.3398 122.248C90.2004 122.306 90.0493 122.324 89.8866 122.301C89.7243 122.278 89.5877 122.211 89.4771 122.1ZM89.5733 119.686C89.8113 119.448 89.9159 119.187 89.8866 118.902C89.8634 118.612 89.7299 118.344 89.4859 118.1C89.2595 117.874 88.9951 117.755 88.693 117.743C88.3909 117.731 88.1236 117.842 87.8912 118.074C87.6764 118.289 87.5803 118.548 87.6035 118.85C87.6328 119.146 87.7578 119.405 87.9785 119.625C88.2282 119.875 88.4954 120.009 88.7799 120.026C89.0648 120.044 89.3292 119.93 89.5733 119.686ZM92.8409 123.111C93.1197 122.832 93.3201 122.568 93.4423 122.318C93.6282 121.935 93.6106 121.633 93.3898 121.412C93.1634 121.185 92.8873 121.136 92.562 121.264C92.3356 121.351 92.0888 121.528 91.8215 121.795C91.5078 122.109 91.2958 122.373 91.1852 122.588C90.9993 122.96 91.0254 123.265 91.2637 123.503C91.4729 123.712 91.7458 123.753 92.0828 123.625C92.3444 123.526 92.5968 123.355 92.8409 123.111ZM92.4648 116.55C92.831 116.917 93.2405 117.094 93.6937 117.082C94.1468 117.059 94.568 116.853 94.9574 116.463C95.2419 116.179 95.4655 115.816 95.6282 115.374C95.6574 115.299 95.7356 115.046 95.8634 114.616L96.674 115.426C96.5113 115.891 96.3778 116.234 96.2733 116.455C96.1046 116.798 95.8898 117.1 95.6282 117.361C95.0123 117.977 94.3183 118.265 93.5454 118.224C92.7669 118.177 92.0641 117.84 91.4366 117.213C90.9021 116.678 90.5944 116.045 90.513 115.313C90.4373 114.575 90.6641 113.942 91.1926 113.413C91.7968 112.809 92.4824 112.571 93.2493 112.699C93.9173 112.809 94.568 113.181 95.2014 113.814L92.4648 116.55ZM93.7983 114.015C93.4789 113.811 93.162 113.71 92.8483 113.71C92.5289 113.704 92.2412 113.829 91.9856 114.085C91.7243 114.346 91.5877 114.639 91.5761 114.964C91.5644 115.29 91.6662 115.612 91.881 115.932L93.7983 114.015ZM93.8236 110.957L94.6514 110.129L95 110.478C95.0349 110.175 95.1046 109.897 95.2092 109.641C95.3138 109.385 95.4648 109.159 95.6623 108.961C96.2546 108.369 96.8588 108.16 97.4747 108.334C97.9278 108.462 98.4799 108.851 99.1307 109.501L101.205 111.576L100.385 112.395L98.2504 110.26C97.8669 109.876 97.562 109.641 97.3352 109.554C96.981 109.42 96.6352 109.522 96.2983 109.859C96.1356 110.022 96.0078 110.237 95.9148 110.504C95.8395 110.719 95.7898 110.966 95.7669 111.244L98.6511 114.129L97.8233 114.957L93.8236 110.957ZM100.881 108.134C101.248 108.5 101.657 108.677 102.11 108.666C102.563 108.642 102.985 108.436 103.374 108.047C103.658 107.762 103.882 107.399 104.045 106.958C104.074 106.882 104.152 106.629 104.28 106.199L105.091 107.01C104.928 107.475 104.794 107.817 104.689 108.038C104.521 108.381 104.306 108.683 104.045 108.944C103.429 109.56 102.735 109.848 101.962 109.807C101.183 109.761 100.481 109.424 99.8532 108.797C99.3187 108.262 99.0109 107.629 98.9296 106.897C98.8539 106.159 99.0807 105.526 99.6092 104.997C100.213 104.393 100.899 104.155 101.666 104.282C102.334 104.393 102.985 104.764 103.618 105.398L100.881 108.134ZM102.215 105.598C101.895 105.395 101.579 105.293 101.265 105.293C100.945 105.287 100.658 105.412 100.402 105.668C100.141 105.929 100.004 106.223 99.9926 106.548C99.981 106.873 100.083 107.196 100.298 107.515L102.215 105.598ZM102.301 102.479L103.129 101.651L103.756 102.279C103.681 102.029 103.672 101.724 103.73 101.364C103.782 100.998 103.896 100.728 104.07 100.554C104.25 100.373 104.462 100.243 104.706 100.161C104.863 100.109 105.11 100.06 105.447 100.013L105.7 101.26C105.496 101.265 105.333 101.283 105.212 101.312C105.014 101.358 104.866 101.431 104.767 101.53C104.442 101.855 104.369 102.259 104.549 102.741C104.683 103.095 104.936 103.459 105.307 103.83L107.129 105.651L106.301 106.479L102.301 102.479ZM108.517 99.1744C108.279 98.936 108.049 98.7937 107.828 98.7472C107.555 98.6948 107.305 98.7821 107.079 99.0085C106.887 99.2004 106.733 99.4881 106.617 99.8715C106.524 100.162 106.463 100.49 106.434 100.856L105.615 100.019C105.656 99.6652 105.754 99.3166 105.911 98.9736C106.062 98.6254 106.257 98.3317 106.495 98.0937C106.995 97.5941 107.532 97.4286 108.107 97.5969C108.537 97.7247 109.025 98.0617 109.571 98.6078C109.699 98.7356 109.905 98.9536 110.19 99.2613C110.469 99.5634 110.614 99.7205 110.626 99.7321C110.748 99.8539 110.87 99.9585 110.992 100.046C111.114 100.133 111.221 100.147 111.314 100.089L111.584 99.5402L112.177 100.133C112.107 100.412 112.026 100.656 111.933 100.865C111.845 101.08 111.721 101.269 111.558 101.431C111.482 101.507 111.372 101.548 111.227 101.553C111.093 101.559 110.971 101.542 110.861 101.501C110.774 101.774 110.695 101.992 110.626 102.155C110.521 102.399 110.396 102.593 110.251 102.738C109.896 103.093 109.536 103.285 109.17 103.313C108.769 103.343 108.392 103.18 108.037 102.825C107.66 102.448 107.593 101.864 107.837 101.074C107.97 100.638 108.244 100.051 108.656 99.3138L108.517 99.1744ZM109.153 99.8103C108.909 100.217 108.746 100.566 108.665 100.856C108.531 101.338 108.583 101.699 108.822 101.937C108.95 102.064 109.112 102.129 109.31 102.129C109.507 102.129 109.673 102.062 109.806 101.928C109.923 101.812 110.018 101.658 110.094 101.466C110.175 101.222 110.236 101.045 110.277 100.935L109.153 99.8103ZM108.746 93.9603L109.783 94.9972L110.899 93.8817L111.578 94.5617L110.463 95.6944C110.701 95.9324 111.09 96.3335 111.631 96.8969C112.165 97.4546 112.452 97.7539 112.493 97.7944C112.644 97.9455 112.807 98.0328 112.981 98.056C113.161 98.0733 113.327 98.0067 113.478 97.8557C113.623 97.7103 113.754 97.4867 113.87 97.1846C113.963 96.9522 114.036 96.6994 114.088 96.4265L114.968 97.3067C114.788 97.7539 114.675 98.03 114.628 98.1346C114.489 98.4251 114.32 98.6691 114.123 98.8666C113.733 99.2557 113.295 99.3979 112.807 99.2934C112.394 99.2064 111.982 98.9564 111.569 98.5441C111.343 98.3173 110.971 97.9339 110.454 97.3937C109.931 96.8476 109.652 96.5571 109.618 96.5222L109.13 97.0103L108.746 93.9603ZM113.319 91.2694C113.894 90.6944 114.594 90.4184 115.419 90.4416C116.244 90.4532 116.947 90.7493 117.528 91.3303C118.115 91.9173 118.391 92.6229 118.356 93.4479C118.321 94.2729 118.011 94.9789 117.424 95.5655C116.872 96.1177 116.177 96.3934 115.341 96.3934C114.504 96.3934 113.81 96.1177 113.258 95.5655C112.642 94.9497 112.346 94.2353 112.369 93.4219C112.387 92.6029 112.704 91.8853 113.319 91.2694ZM116.666 94.7553C117.037 94.3835 117.229 93.936 117.241 93.4131C117.252 92.8902 117.075 92.4458 116.709 92.08C116.349 91.7198 115.907 91.5395 115.385 91.5395C114.862 91.5395 114.42 91.7198 114.06 92.08C113.682 92.4574 113.488 92.9134 113.476 93.4479C113.464 93.9708 113.648 94.4212 114.025 94.7986C114.368 95.1416 114.806 95.3071 115.341 95.2955C115.875 95.2839 116.317 95.1039 116.666 94.7553ZM116.343 88.4377L117.17 87.6099L117.798 88.2374C117.722 87.9874 117.714 87.6824 117.772 87.3222C117.824 86.9564 117.937 86.6863 118.112 86.512C118.292 86.3317 118.504 86.2011 118.748 86.1198C118.905 86.0673 119.151 86.018 119.488 85.9715L119.741 87.2177C119.538 87.2236 119.375 87.2409 119.253 87.2701C119.056 87.3166 118.907 87.3891 118.809 87.4877C118.483 87.8131 118.411 88.217 118.591 88.6993C118.725 89.0536 118.977 89.4166 119.349 89.7884L121.17 91.6099L120.343 92.4377L116.343 88.4377Z" fill="#282828"/>
<path d="M117.504 82.9715L118.367 82.1088L124.519 88.261L123.656 89.1236L117.504 82.9715ZM116.678 80.5208L118.125 79.0743L119.963 79.3793L119.196 80.1462L117.855 80.268L117.75 81.5927L116.974 82.3684L116.678 80.5208ZM125.645 77.5145C125.058 77.6712 124.596 77.831 124.26 77.9937C123.836 78.1969 123.44 78.4817 123.074 78.8476C122.412 79.5099 122.087 80.2944 122.098 81.2004C122.11 82.0951 122.447 82.8736 123.109 83.536C123.783 84.2099 124.553 84.5557 125.419 84.5729C126.284 84.5905 127.051 84.2652 127.719 83.5969C128.074 83.2426 128.37 82.83 128.608 82.3596C128.852 81.8831 129.032 81.3779 129.148 80.8434L130.115 81.8279C129.871 82.4669 129.662 82.9434 129.488 83.2571C129.244 83.6986 128.93 84.1113 128.547 84.4944C127.623 85.4184 126.56 85.8715 125.357 85.8539C124.155 85.8367 123.089 85.3631 122.16 84.4335C121.27 83.5448 120.826 82.4846 120.826 81.2529C120.826 80.0096 121.268 78.9465 122.151 78.0634C122.563 77.6507 122.949 77.3402 123.31 77.131C123.67 76.9219 124.135 76.736 124.704 76.5733L125.645 77.5145ZM130.277 78.4247L126.739 78.0412L127.785 76.9955L130.225 77.2916L129.937 74.843L131.018 73.7624L131.375 77.3265L135.123 77.6578L134.051 78.7296L131.427 78.4944L131.663 81.1173L130.591 82.1891L130.277 78.4247ZM135.815 75.9719C136.001 75.2286 136.056 74.4701 135.98 73.6976C135.905 72.925 135.71 72.1726 135.396 71.4405C135.315 71.9983 135.074 72.4775 134.673 72.8786C134.168 73.3839 133.581 73.6219 132.913 73.593C132.245 73.5638 131.655 73.2937 131.144 72.7824C130.592 72.2307 130.325 71.6148 130.342 70.9353C130.359 70.2437 130.647 69.6194 131.205 69.0617C131.786 68.4807 132.477 68.2307 133.279 68.312C134.028 68.3877 134.702 68.7247 135.3 69.3229C135.963 69.9853 136.462 70.8567 136.799 71.9374C137.119 72.9539 137.241 73.9648 137.165 74.9698C137.154 75.1441 137.127 75.3444 137.087 75.5712C137.052 75.7571 137.011 75.9603 136.965 76.181L135.815 75.9719ZM133.993 71.9895C134.185 71.7979 134.342 71.5479 134.464 71.2402C134.586 70.9205 134.624 70.6331 134.577 70.3775L134.237 69.9853C133.9 69.6483 133.52 69.4712 133.096 69.4536C132.672 69.4363 132.297 69.5902 131.971 69.9155C131.658 70.2293 131.51 70.5807 131.527 70.9701C131.545 71.3476 131.71 71.6934 132.024 72.0071C132.303 72.286 132.631 72.4222 133.009 72.4166C133.386 72.4106 133.714 72.2684 133.993 71.9895ZM136.468 68.3127L139.954 69.7592L138.463 66.3173L139.378 65.4022L141.618 71.1624L141.356 71.4236L135.57 69.2103L136.468 68.3127Z" fill="#5FD889" fill-opacity="0.5"/>
<path d="M76.2775 192.377L74.3775 194.276L73.6021 193.501L76.9394 190.163L78.0549 195.549L80.1377 193.466L80.8873 194.216L77.3665 197.736L76.2775 192.377ZM81.9102 183.781C81.3813 183.95 80.9922 184.083 80.7422 184.182C80.0218 184.461 79.444 184.818 79.0081 185.254C78.3866 185.875 78.0817 186.633 78.0933 187.528C78.1049 188.411 78.4243 189.167 79.0518 189.794C79.7433 190.485 80.5419 190.837 81.4482 190.848C82.3546 190.848 83.1503 190.506 83.8359 189.82C84.0102 189.646 84.1496 189.483 84.2542 189.332C84.3588 189.169 84.5447 188.821 84.812 188.286L83.5398 187.014L82.4067 188.147L81.6486 187.389L83.5831 185.454L86.2324 188.103C85.9651 188.719 85.7299 189.199 85.5264 189.541C85.2535 190 84.9253 190.422 84.5419 190.805C83.6296 191.717 82.5637 192.161 81.3437 192.138C80.1236 192.103 79.0577 191.63 78.1454 190.718C77.2507 189.823 76.8063 188.769 76.8123 187.554C76.818 186.34 77.2683 185.286 78.163 184.391C78.5581 183.996 78.9937 183.676 79.4701 183.432C79.807 183.258 80.3095 183.063 80.9778 182.849L81.9102 183.781ZM81.7803 181.018L82.6429 180.155L88.7954 186.307L87.9327 187.17L81.7803 181.018ZM88.7187 183.996C89.1021 183.938 89.4334 183.851 89.7123 183.735C89.9912 183.607 90.2581 183.415 90.5137 183.16C90.8799 182.794 91.0658 182.41 91.0715 182.009C91.0775 181.597 90.9003 181.211 90.5401 180.85C90.1739 180.484 89.776 180.325 89.3461 180.371C88.9222 180.412 88.5211 180.621 88.1437 180.999C87.975 181.167 87.8532 181.3 87.7775 181.399C87.7021 181.486 87.5715 181.658 87.3856 181.913L84.1348 178.663L86.8975 175.901L87.7165 176.72L85.7472 178.689L87.3419 180.301L87.6468 179.979C88.2162 179.41 88.8377 179.131 89.5116 179.142C90.1856 179.142 90.813 179.433 91.394 180.014C91.9806 180.6 92.2711 181.257 92.2655 181.983C92.2595 182.71 91.9574 183.372 91.3591 183.97C91.1444 184.185 90.8827 184.371 90.575 184.528C90.2613 184.679 89.9387 184.798 89.6077 184.885L88.7187 183.996ZM92.0035 170.359L92.6658 170.132L95.8813 179.674L95.219 179.901L92.0035 170.359ZM98.1732 172.886C98.7134 173.426 99.088 173.946 99.2972 174.446C99.5936 175.149 99.5095 175.733 99.0447 176.198C98.638 176.604 98.0947 176.671 97.4151 176.398C96.9095 176.194 96.4158 175.852 95.9334 175.37C95.4282 174.864 95.0739 174.364 94.8704 173.871C94.5915 173.185 94.6672 172.627 95.0972 172.198C95.5267 171.768 96.0644 171.666 96.7091 171.893C97.1972 172.067 97.6852 172.398 98.1732 172.886ZM98.4958 175.561C98.7454 175.312 98.725 174.954 98.4345 174.489C98.2834 174.245 98.0162 173.932 97.6327 173.548C97.2785 173.194 96.9736 172.941 96.7179 172.79C96.2648 172.523 95.9162 172.511 95.6722 172.755C95.4398 172.988 95.4658 173.339 95.7507 173.81C95.9134 174.077 96.169 174.385 96.5176 174.733C97.0112 175.227 97.4151 175.538 97.7289 175.666C98.0426 175.794 98.2982 175.759 98.4958 175.561ZM91.8729 174.568C92.3722 175.068 92.7355 175.576 92.962 176.093C93.2817 176.819 93.232 177.391 92.8137 177.81C92.3489 178.274 91.7683 178.362 91.0711 178.071C90.5887 177.868 90.0718 177.49 89.5197 176.938C89.0609 176.479 88.7384 175.994 88.5525 175.483C88.3144 174.815 88.3986 174.278 88.8053 173.871C89.2352 173.441 89.7697 173.342 90.4088 173.574C90.8968 173.749 91.3848 174.08 91.8729 174.568ZM92.2039 177.252C92.4479 177.008 92.4218 176.651 92.1253 176.18C91.951 175.901 91.687 175.585 91.3324 175.23C90.9782 174.876 90.6729 174.623 90.4172 174.472C89.9644 174.205 89.6158 174.193 89.3718 174.437C89.1394 174.669 89.1655 175.021 89.45 175.492C89.6127 175.759 89.8683 176.067 90.2169 176.415C90.5947 176.793 90.9025 177.054 91.1408 177.2C91.5996 177.484 91.9539 177.502 92.2039 177.252ZM97.6475 168.462C97.2176 168.555 96.869 168.63 96.6017 168.688C96.0905 168.793 95.7651 168.776 95.6257 168.636C95.3933 168.404 95.3993 168.166 95.6433 167.922C95.7711 167.794 96.0877 167.791 96.5929 167.913C97.232 168.064 97.5894 168.137 97.6648 168.131C97.5429 168.009 97.2553 167.808 96.8021 167.53C96.5581 167.379 96.3838 167.251 96.2792 167.146C96.169 167.036 96.1021 166.923 96.0789 166.806C96.0556 166.679 96.0993 166.559 96.2095 166.449C96.3141 166.344 96.4363 166.31 96.5757 166.344C96.7151 166.368 96.8398 166.435 96.9503 166.545C97.0605 166.655 97.1623 166.798 97.2553 166.972C97.4123 167.256 97.5053 167.425 97.5341 167.477C97.5634 167.518 97.6127 167.579 97.6824 167.66C97.7521 167.742 97.8218 167.817 97.8915 167.887C97.8972 167.765 97.8246 167.402 97.6736 166.798C97.5574 166.333 97.5922 166.007 97.7782 165.822C97.8711 165.729 97.9729 165.691 98.0831 165.708C98.1993 165.72 98.3039 165.772 98.3968 165.865C98.5306 165.999 98.5799 166.17 98.5451 166.379C98.4753 166.635 98.4201 166.824 98.3796 166.946C98.3447 167.062 98.3127 167.216 98.2834 167.407C98.2718 167.477 98.2486 167.64 98.2137 167.895C98.3243 167.785 98.519 167.498 98.7979 167.033C98.9373 166.8 99.0591 166.632 99.1637 166.528C99.2743 166.417 99.3961 166.347 99.5299 166.318C99.6694 166.283 99.7912 166.318 99.8958 166.423C100 166.528 100.05 166.647 100.044 166.78C100.038 166.914 99.9827 167.033 99.8781 167.137C99.7563 167.26 99.582 167.387 99.3556 167.521C98.85 167.817 98.5451 168.018 98.4405 168.122C99.0563 168.006 99.5327 167.925 99.8697 167.878C100.207 167.82 100.421 167.837 100.514 167.93C100.619 168.035 100.68 168.154 100.698 168.288C100.715 168.41 100.671 168.523 100.567 168.628C100.433 168.761 100.096 168.779 99.556 168.68C99.1782 168.604 98.8035 168.526 98.4317 168.444C98.5479 168.561 98.8528 168.773 99.3468 169.081C99.5908 169.232 99.7708 169.366 99.8869 169.482C99.9859 169.58 100.038 169.697 100.044 169.83C100.05 169.952 100.003 170.062 99.9046 170.161C99.7884 170.278 99.6634 170.315 99.5299 170.275C99.3961 170.234 99.2655 170.15 99.1377 170.022C98.9922 169.877 98.8179 169.638 98.6148 169.307C98.4056 168.97 98.2602 168.75 98.1789 168.645C98.1789 168.68 98.2662 169.052 98.4405 169.761C98.5683 170.283 98.5479 170.629 98.3796 170.798C98.1704 171.007 97.9436 170.989 97.6996 170.745C97.6067 170.652 97.5866 170.434 97.6387 170.092C97.7201 169.627 97.7986 169.159 97.8739 168.688C97.5602 169.165 97.2465 169.636 96.9327 170.1C96.8341 170.199 96.7179 170.263 96.5841 170.292C96.4507 170.31 96.3345 170.269 96.2359 170.17C96.137 170.071 96.0817 169.958 96.0701 169.83C96.0584 169.691 96.1021 169.572 96.201 169.473C96.3345 169.339 96.5669 169.182 96.8979 169.002C97.2232 168.816 97.4472 168.662 97.569 168.541L97.6475 168.462ZM99.019 163.779L99.8993 162.899L105.224 168.223L107.951 165.496L108.779 166.324L105.171 169.931L99.019 163.779ZM108.399 161.614C108.161 161.376 107.932 161.234 107.711 161.187C107.438 161.135 107.188 161.222 106.961 161.449C106.77 161.641 106.615 161.928 106.499 162.311C106.406 162.602 106.345 162.93 106.317 163.296L105.497 162.46C105.538 162.105 105.637 161.757 105.794 161.414C105.945 161.065 106.139 160.772 106.377 160.534C106.877 160.034 107.414 159.868 107.99 160.037C108.419 160.165 108.907 160.502 109.453 161.048C109.581 161.176 109.788 161.394 110.072 161.701C110.351 162.004 110.496 162.16 110.508 162.172C110.63 162.294 110.752 162.399 110.874 162.486C110.996 162.573 111.103 162.587 111.196 162.529L111.467 161.98L112.059 162.573C111.989 162.852 111.908 163.096 111.815 163.305C111.728 163.52 111.603 163.708 111.44 163.871C111.365 163.947 111.255 163.987 111.109 163.993C110.976 163.999 110.854 163.982 110.743 163.941C110.656 164.214 110.578 164.432 110.508 164.595C110.403 164.839 110.278 165.033 110.133 165.179C109.779 165.533 109.419 165.725 109.053 165.754C108.652 165.783 108.274 165.62 107.92 165.266C107.542 164.888 107.475 164.304 107.719 163.514C107.853 163.078 108.126 162.492 108.539 161.754L108.399 161.614ZM109.035 162.25C108.791 162.657 108.628 163.006 108.547 163.296C108.414 163.778 108.466 164.138 108.704 164.377C108.832 164.505 108.995 164.568 109.192 164.568C109.39 164.568 109.555 164.502 109.689 164.368C109.805 164.252 109.901 164.098 109.976 163.906C110.058 163.662 110.119 163.485 110.159 163.375L109.035 162.25ZM108.559 157.342C108.14 156.923 107.961 156.441 108.019 155.895C108.082 155.343 108.329 154.852 108.759 154.422C109.189 153.992 109.654 153.772 110.153 153.76C110.653 153.737 111.118 153.94 111.548 154.37C111.862 154.683 112.071 155.102 112.175 155.625C112.28 156.148 112.271 156.638 112.149 157.098L113.796 157.298C113.726 156.822 113.631 156.36 113.508 155.912L114.406 155.015C114.673 155.805 114.874 156.604 115.007 157.411L117.43 157.673L116.402 158.701L115.042 158.561C115.031 159.142 114.961 159.625 114.833 160.008C114.682 160.473 114.424 160.888 114.058 161.254C113.639 161.673 113.157 161.905 112.611 161.951C112.071 161.992 111.594 161.806 111.182 161.394C110.799 161.01 110.595 160.499 110.572 159.86C110.56 159.465 110.63 158.901 110.781 158.169C110.142 158.088 109.665 157.983 109.352 157.856C109.038 157.728 108.774 157.556 108.559 157.342ZM111.051 156.993L111.086 156.749C111.127 156.406 111.13 156.136 111.095 155.938C111.048 155.671 110.92 155.433 110.711 155.224C110.525 155.038 110.322 154.945 110.101 154.945C109.881 154.933 109.674 155.024 109.482 155.215C109.297 155.401 109.201 155.619 109.195 155.869C109.189 156.119 109.282 156.339 109.474 156.531C109.584 156.642 109.854 156.766 110.284 156.906C110.714 157.045 110.97 157.074 111.051 156.993ZM111.853 158.283C111.737 158.817 111.676 159.204 111.67 159.442C111.658 159.906 111.78 160.267 112.036 160.522C112.204 160.691 112.419 160.76 112.681 160.731C112.936 160.697 113.151 160.592 113.326 160.418C113.552 160.191 113.712 159.892 113.805 159.52C113.88 159.224 113.915 158.875 113.909 158.474L111.853 158.283ZM117.979 156.13C118.165 155.387 118.22 154.628 118.145 153.856C118.069 153.083 117.875 152.331 117.561 151.599C117.48 152.156 117.238 152.636 116.838 153.037C116.332 153.542 115.745 153.78 115.077 153.751C114.409 153.722 113.819 153.452 113.308 152.941C112.756 152.389 112.489 151.773 112.506 151.093C112.524 150.402 112.812 149.778 113.369 149.22C113.95 148.639 114.642 148.389 115.443 148.47C116.193 148.546 116.867 148.883 117.465 149.481C118.127 150.143 118.627 151.015 118.964 152.095C119.283 153.112 119.405 154.123 119.33 155.128C119.318 155.302 119.292 155.503 119.251 155.729C119.217 155.915 119.176 156.118 119.13 156.339L117.979 156.13ZM116.158 152.148C116.35 151.956 116.506 151.706 116.628 151.398C116.75 151.079 116.788 150.791 116.742 150.536L116.402 150.143C116.065 149.806 115.684 149.629 115.26 149.612C114.836 149.594 114.461 149.748 114.136 150.074C113.823 150.387 113.674 150.739 113.692 151.128C113.709 151.506 113.875 151.851 114.188 152.165C114.467 152.444 114.795 152.58 115.173 152.575C115.551 152.569 115.879 152.426 116.158 152.148ZM118.118 144.68L118.536 144.262L124.688 150.414L123.869 151.233L119.033 146.397L118.894 148.645L117.813 148.262L118.118 144.68ZM120.557 142.241L121.899 140.899C122.515 140.283 123.108 139.923 123.677 139.818C124.351 139.69 124.984 139.923 125.577 140.515C126.193 141.131 126.346 141.837 126.039 142.633C126.562 142.261 127.061 142.081 127.538 142.093C128.014 142.093 128.476 142.316 128.923 142.763C129.539 143.379 129.751 144.074 129.559 144.846C129.402 145.468 128.993 146.11 128.331 146.772L126.709 148.393L120.557 142.241ZM128.043 143.679C127.724 143.359 127.407 143.205 127.093 143.217C126.721 143.228 126.251 143.519 125.681 144.088L124.906 144.881L126.753 146.729L126.806 146.676L127.546 145.97C128.081 145.436 128.368 144.992 128.409 144.637C128.444 144.277 128.322 143.957 128.043 143.679ZM124.47 143.626C124.859 143.237 125.086 142.894 125.15 142.598C125.237 142.209 125.097 141.831 124.731 141.465C124.458 141.192 124.159 141.073 123.834 141.108C123.508 141.143 123.203 141.303 122.919 141.587L122.265 142.241L124.061 144.036L124.47 143.626Z" fill="#5FD889"/>
<path d="M71.5802 162.816C71.1503 162.909 70.8017 162.984 70.5344 163.042C70.0232 163.147 69.6978 163.13 69.5584 162.99C69.326 162.758 69.332 162.519 69.576 162.275C69.7038 162.148 70.0204 162.145 70.5256 162.267C71.1647 162.418 71.5221 162.491 71.5975 162.485C71.4756 162.363 71.188 162.162 70.7348 161.883C70.4908 161.732 70.3165 161.605 70.2119 161.5C70.1017 161.389 70.0348 161.276 70.0116 161.16C69.9883 161.032 70.032 160.913 70.1422 160.803C70.2468 160.698 70.369 160.663 70.5084 160.698C70.6478 160.722 70.7728 160.788 70.883 160.899C70.9936 161.009 71.095 161.151 71.188 161.326C71.345 161.61 71.438 161.779 71.4668 161.831C71.4961 161.872 71.5454 161.933 71.6151 162.014C71.6848 162.095 71.7545 162.171 71.8242 162.241C71.8299 162.119 71.7573 161.756 71.6063 161.151C71.4901 160.687 71.5249 160.361 71.7109 160.175C71.8038 160.082 71.9056 160.045 72.0158 160.062C72.132 160.074 72.2366 160.126 72.3295 160.219C72.4633 160.352 72.5126 160.524 72.4778 160.733C72.408 160.989 72.3528 161.177 72.3123 161.299C72.2774 161.416 72.2454 161.57 72.2165 161.761C72.2049 161.831 72.1816 161.994 72.1468 162.249C72.257 162.139 72.4517 161.851 72.7306 161.387C72.87 161.154 72.9918 160.986 73.0964 160.881C73.207 160.771 73.3288 160.701 73.4626 160.672C73.6021 160.637 73.7239 160.672 73.8285 160.776C73.933 160.881 73.9823 161 73.9767 161.134C73.9707 161.268 73.9158 161.387 73.8112 161.491C73.689 161.613 73.5147 161.741 73.2883 161.875C72.7827 162.171 72.4778 162.371 72.3732 162.476C72.989 162.36 73.4654 162.278 73.8024 162.232C74.1394 162.174 74.3542 162.191 74.4471 162.284C74.5517 162.389 74.613 162.508 74.6302 162.642C74.6478 162.763 74.6042 162.877 74.4996 162.981C74.3658 163.115 74.0288 163.132 73.4887 163.033C73.1108 162.958 72.7362 162.88 72.3644 162.798C72.4806 162.914 72.7859 163.126 73.2795 163.435C73.5235 163.586 73.7035 163.719 73.8197 163.835C73.9186 163.934 73.9707 164.05 73.9767 164.184C73.9823 164.306 73.9359 164.416 73.8373 164.515C73.7211 164.631 73.5961 164.669 73.4626 164.628C73.3288 164.588 73.1982 164.504 73.0704 164.376C72.9253 164.23 72.751 163.992 72.5475 163.661C72.3383 163.324 72.1932 163.103 72.1119 162.999C72.1119 163.033 72.1989 163.405 72.3732 164.114C72.501 164.637 72.4806 164.983 72.3123 165.151C72.1031 165.36 71.8763 165.343 71.6323 165.099C71.5394 165.006 71.5193 164.788 71.5714 164.445C71.6528 163.981 71.7313 163.513 71.8066 163.042C71.4929 163.519 71.1795 163.989 70.8658 164.454C70.7668 164.553 70.6506 164.617 70.5172 164.646C70.3834 164.663 70.2672 164.623 70.1686 164.524C70.0697 164.425 70.0144 164.312 70.0028 164.184C69.9911 164.044 70.0348 163.925 70.1337 163.826C70.2672 163.693 70.4996 163.536 70.8309 163.356C71.1563 163.17 71.3799 163.016 71.5017 162.894L71.5802 162.816ZM77.7883 162.011L76.9429 162.856L76.3591 162.272L77.2915 161.339L75.8362 159.431L74.9038 160.363L74.3112 159.771L75.3309 158.751L73.7883 156.704L74.3897 156.102L75.932 158.15L77.0126 157.069L75.4704 155.022L76.0714 154.42L77.614 156.468L78.3373 155.745L78.9211 156.329L78.1109 157.139L79.5661 159.065L80.3679 158.263L80.9517 158.847L80.0714 159.728L81.614 161.775L81.0126 162.376L79.47 160.329L78.3897 161.409L79.932 163.457L79.3306 164.058L77.7883 162.011ZM76.4376 158.812L77.8929 160.738L78.9647 159.666L77.5094 157.741L76.4376 158.812ZM77.3605 153.724L80.5323 150.552L81.3605 151.38L79.0598 153.68L80.6982 155.319L82.9985 153.018L83.8003 153.82L81.4999 156.12L84.3841 159.005L83.513 159.876L77.3605 153.724ZM86.1478 154.854C86.5313 154.795 86.8626 154.708 87.1411 154.592C87.42 154.464 87.6873 154.273 87.9429 154.017C88.3091 153.651 88.495 153.268 88.5006 152.867C88.5066 152.454 88.3295 152.068 87.9693 151.708C87.6031 151.342 87.2052 151.182 86.7753 151.229C86.3513 151.269 85.9503 151.478 85.5728 151.856C85.4042 152.024 85.2823 152.158 85.2066 152.257C85.1313 152.344 85.0006 152.515 84.8147 152.771L81.564 149.52L84.3267 146.758L85.1457 147.577L83.1763 149.547L84.7711 151.159L85.076 150.836C85.6454 150.267 86.2668 149.988 86.9408 150C87.6147 150 88.2422 150.29 88.8232 150.871C89.4098 151.458 89.7003 152.114 89.6947 152.841C89.6887 153.567 89.3866 154.229 88.7883 154.827C88.5735 155.042 88.3119 155.228 88.0042 155.385C87.6904 155.536 87.3679 155.655 87.0366 155.742L86.1478 154.854ZM85.4848 145.6L86.313 144.772L88.7528 147.212C88.8285 146.625 89.0665 146.131 89.4675 145.73C89.9728 145.225 90.5827 145.004 91.2975 145.068C91.9714 145.126 92.5697 145.417 93.0925 145.939C93.8013 146.648 94.1644 147.4 94.182 148.197C94.1992 148.992 93.8506 149.748 93.1362 150.462C92.9503 150.648 92.7499 150.814 92.5348 150.959C92.32 151.104 91.951 151.299 91.4281 151.543L85.4848 145.6ZM92.3954 149.599C92.7904 149.204 92.9823 148.745 92.9707 148.223C92.9591 147.7 92.7556 147.241 92.3605 146.846C92.0003 146.486 91.62 146.279 91.219 146.227C90.7774 146.169 90.3823 146.314 90.0337 146.663C89.8362 146.86 89.6851 147.104 89.5806 147.395C89.5573 147.464 89.5109 147.633 89.4411 147.9L91.6982 150.157C91.9654 149.983 92.1978 149.797 92.3954 149.599ZM92.8045 141.592C92.3746 141.685 92.026 141.76 91.7587 141.818C91.2475 141.923 90.9221 141.905 90.7827 141.766C90.5503 141.533 90.5563 141.295 90.7999 141.051C90.9278 140.924 91.2447 140.92 91.7499 141.043C92.389 141.194 92.7464 141.266 92.8218 141.26C92.6999 141.138 92.4123 140.938 91.9591 140.659C91.7151 140.508 91.5408 140.38 91.4362 140.276C91.326 140.165 91.2591 140.052 91.2358 139.936C91.2126 139.808 91.2563 139.689 91.3665 139.579C91.4711 139.474 91.5932 139.439 91.7327 139.474C91.8721 139.497 91.9968 139.564 92.1073 139.674C92.2175 139.785 92.3193 139.927 92.4123 140.101C92.5689 140.386 92.6619 140.555 92.6911 140.607C92.72 140.648 92.7697 140.708 92.8394 140.79C92.9091 140.871 92.9788 140.947 93.0485 141.016C93.0542 140.894 92.9816 140.531 92.8306 139.927C92.7144 139.462 92.7492 139.137 92.9351 138.951C93.0281 138.858 93.1299 138.82 93.2401 138.838C93.3563 138.849 93.4608 138.902 93.5538 138.995C93.6876 139.128 93.7369 139.3 93.7021 139.509C93.6323 139.764 93.5771 139.953 93.5366 140.075C93.5017 140.192 93.4697 140.345 93.4404 140.537C93.4288 140.607 93.4056 140.769 93.3707 141.025C93.4813 140.915 93.676 140.627 93.9549 140.162C94.0939 139.93 94.2161 139.762 94.3207 139.657C94.4309 139.547 94.5531 139.477 94.6866 139.448C94.826 139.413 94.9482 139.448 95.0528 139.552C95.1573 139.657 95.2066 139.776 95.201 139.91C95.195 140.043 95.1397 140.162 95.0351 140.267C94.9133 140.389 94.739 140.517 94.5123 140.65C94.007 140.947 93.702 141.147 93.5975 141.252C94.2133 141.136 94.6897 141.054 95.0267 141.008C95.3637 140.95 95.5785 140.967 95.6714 141.06C95.776 141.164 95.8369 141.283 95.8545 141.417C95.8718 141.539 95.8281 141.652 95.7239 141.757C95.5901 141.891 95.2531 141.908 94.713 141.81C94.3351 141.734 93.9605 141.655 93.5887 141.574C93.7049 141.69 94.0098 141.903 94.5038 142.21C94.7478 142.361 94.9277 142.495 95.0439 142.611C95.1429 142.71 95.195 142.826 95.201 142.96C95.2066 143.082 95.1601 143.192 95.0616 143.291C94.9454 143.407 94.8204 143.445 94.6866 143.404C94.5531 143.363 94.4225 143.279 94.2947 143.151C94.1492 143.006 93.9749 142.768 93.7718 142.437C93.5626 142.1 93.4172 141.879 93.3359 141.775C93.3359 141.81 93.4232 142.181 93.5975 142.89C93.7253 143.413 93.7049 143.758 93.5366 143.927C93.3274 144.136 93.1006 144.119 92.8566 143.875C92.7637 143.782 92.7432 143.564 92.7957 143.221C92.8771 142.756 92.9556 142.289 93.0309 141.818C92.7172 142.294 92.4035 142.765 92.0897 143.23C91.9911 143.329 91.8749 143.393 91.7411 143.422C91.6077 143.439 91.4915 143.398 91.3925 143.3C91.2939 143.201 91.2387 143.087 91.227 142.96C91.2154 142.82 91.2591 142.701 91.3577 142.602C91.4915 142.469 91.7239 142.312 92.0549 142.132C92.3802 141.946 92.6038 141.792 92.726 141.67L92.8045 141.592ZM98.0105 137.187C98.5855 136.612 99.2855 136.336 100.11 136.36C100.935 136.371 101.638 136.667 102.219 137.248C102.806 137.835 103.082 138.541 103.047 139.366C103.012 140.191 102.702 140.897 102.115 141.483C101.563 142.035 100.869 142.311 100.032 142.311C99.1954 142.311 98.5013 142.035 97.9492 141.483C97.3334 140.868 97.0373 140.153 97.0605 139.34C97.0778 138.52 97.3947 137.803 98.0105 137.187ZM101.357 140.673C101.728 140.301 101.92 139.854 101.932 139.331C101.943 138.808 101.766 138.364 101.4 137.998C101.04 137.638 100.599 137.457 100.076 137.457C99.5527 137.457 99.1112 137.638 98.751 137.998C98.3735 138.375 98.1788 138.831 98.1672 139.366C98.1556 139.889 98.3387 140.339 98.7161 140.717C99.0591 141.06 99.4975 141.225 100.032 141.213C100.566 141.202 101.008 141.022 101.357 140.673ZM104.093 135.218L100.555 134.835L101.6 133.789L104.04 134.086L103.753 131.637L104.833 130.556L105.19 134.12L108.938 134.451L107.866 135.523L105.243 135.288L105.478 137.911L104.406 138.983L104.093 135.218ZM108.619 131.075C107.974 130.628 107.306 130.157 106.615 129.663C105.924 129.158 105.337 128.664 104.855 128.182C104.576 127.903 104.384 127.659 104.279 127.45C104.105 127.101 104.128 126.817 104.349 126.596C104.552 126.393 104.825 126.381 105.168 126.561C105.389 126.677 105.63 126.866 105.891 127.127C106.38 127.616 106.891 128.22 107.425 128.94C108.041 129.812 108.503 130.46 108.811 130.883L108.619 131.075ZM109.369 131.668C109.543 131.494 109.752 131.406 109.996 131.406C110.24 131.395 110.446 131.473 110.615 131.642C110.795 131.822 110.89 132.034 110.902 132.278C110.914 132.51 110.827 132.719 110.641 132.905C110.484 133.062 110.281 133.149 110.031 133.167C109.781 133.173 109.578 133.097 109.421 132.94C109.241 132.76 109.142 132.551 109.125 132.313C109.107 132.063 109.188 131.848 109.369 131.668ZM108.19 127.2C109.613 127.717 110.894 128.202 112.033 128.655L110.534 124.856L111.449 123.941L114.891 132.995L113.976 133.91L112.468 129.98L107.275 128.115L108.19 127.2Z" fill="#5FD889" fill-opacity="0.5"/>
<path d="M5.70959 116.035C6.1279 115.617 6.61009 115.437 7.15618 115.495C7.70808 115.559 8.19899 115.806 8.62892 116.236C9.05882 116.665 9.27959 117.13 9.29121 117.63C9.31445 118.13 9.11111 118.594 8.68118 119.024C8.36748 119.338 7.9492 119.547 7.42632 119.652C6.90347 119.756 6.41255 119.748 5.95361 119.625L5.75318 121.273C6.22956 121.203 6.69142 121.107 7.13875 120.985L8.03632 121.882C7.24625 122.15 6.44741 122.35 5.63987 122.484L5.37847 124.906L4.35016 123.878L4.48959 122.519C3.90864 122.507 3.42644 122.437 3.04301 122.31C2.57825 122.158 2.16286 121.9 1.79686 121.534C1.37857 121.115 1.14619 120.633 1.09971 120.087C1.05905 119.547 1.24495 119.071 1.65743 118.658C2.04086 118.275 2.5521 118.071 3.19116 118.048C3.58621 118.037 4.14973 118.106 4.88174 118.257C4.96308 117.618 5.06766 117.142 5.19547 116.828C5.32325 116.514 5.49466 116.25 5.70959 116.035ZM6.05818 118.527L6.30216 118.562C6.64494 118.603 6.91509 118.606 7.11262 118.571C7.37984 118.525 7.61804 118.397 7.8272 118.188C8.01308 118.002 8.10604 117.798 8.10604 117.578C8.11766 117.357 8.02762 117.151 7.8359 116.959C7.64998 116.773 7.43213 116.677 7.18234 116.671C6.93252 116.665 6.71174 116.758 6.52005 116.95C6.40966 117.061 6.28473 117.331 6.14533 117.761C6.0059 118.19 5.97685 118.446 6.05818 118.527ZM4.76847 119.329C4.23396 119.213 3.84762 119.152 3.60945 119.146C3.14468 119.135 2.78449 119.257 2.52887 119.512C2.36039 119.681 2.29067 119.896 2.31972 120.157C2.35458 120.413 2.45915 120.628 2.63344 120.802C2.86001 121.029 3.15921 121.188 3.531 121.281C3.8273 121.357 4.17586 121.392 4.57674 121.386L4.76847 119.329ZM12.4633 119.687L11.8707 123.207L15.3913 122.614L16.4719 123.695L11.4524 124.48L8.20199 127.73L7.32181 126.85L10.5723 123.599L11.3914 118.615L12.4633 119.687ZM21.4478 128.236L21.6744 128.898L12.1322 132.113L11.9056 131.451L21.4478 128.236ZM18.9207 134.405C18.3804 134.945 17.8604 135.32 17.3608 135.529C16.6579 135.826 16.074 135.742 15.6092 135.277C15.2025 134.87 15.1358 134.327 15.4088 133.647C15.6121 133.142 15.9549 132.648 16.4371 132.165C16.9425 131.66 17.4422 131.306 17.936 131.102C18.6215 130.824 19.1792 130.899 19.6091 131.329C20.039 131.759 20.1407 132.296 19.9141 132.941C19.7398 133.429 19.4087 133.917 18.9207 134.405ZM16.2454 134.727C16.4952 134.977 16.8525 134.957 17.3172 134.667C17.5612 134.515 17.8749 134.248 18.2584 133.865C18.6128 133.511 18.8655 133.206 19.0165 132.95C19.2838 132.497 19.2954 132.148 19.0514 131.904C18.819 131.672 18.4676 131.698 17.997 131.983C17.7297 132.145 17.4218 132.401 17.0733 132.749C16.5794 133.243 16.2686 133.647 16.1408 133.961C16.013 134.274 16.0479 134.53 16.2454 134.727ZM17.2388 128.105C16.7392 128.604 16.2309 128.967 15.7138 129.194C14.9876 129.513 14.4154 129.464 13.9971 129.046C13.5323 128.581 13.4452 128 13.7356 127.303C13.939 126.821 14.3166 126.304 14.8685 125.752C15.3275 125.293 15.8125 124.97 16.3238 124.785C16.9919 124.546 17.5293 124.631 17.936 125.037C18.3659 125.467 18.4646 126.002 18.2322 126.641C18.058 127.129 17.7268 127.617 17.2388 128.105ZM14.5548 128.436C14.7988 128.68 15.1561 128.654 15.6267 128.357C15.9055 128.183 16.2221 127.919 16.5765 127.564C16.9309 127.21 17.1836 126.905 17.3347 126.649C17.6019 126.196 17.6135 125.848 17.3695 125.604C17.1372 125.371 16.7857 125.398 16.3151 125.682C16.0479 125.845 15.7399 126.1 15.3914 126.449C15.0137 126.827 14.7523 127.135 14.6071 127.373C14.3224 127.832 14.305 128.186 14.5548 128.436ZM27.301 137.418C27.1325 136.889 26.9989 136.5 26.9002 136.25C26.6213 135.529 26.264 134.951 25.8283 134.515C25.2067 133.894 24.4485 133.589 23.5539 133.601C22.6708 133.612 21.9155 133.932 21.2881 134.559C20.5968 135.25 20.2453 136.049 20.2337 136.956C20.2337 137.862 20.5765 138.658 21.262 139.343C21.4363 139.518 21.5989 139.657 21.75 139.762C21.9127 139.866 22.2612 140.052 22.7957 140.319L24.068 139.047L22.9351 137.914L23.6933 137.156L25.6279 139.09L22.9787 141.74C22.3629 141.473 21.8836 141.237 21.5408 141.034C21.0819 140.761 20.6607 140.433 20.2773 140.049C19.3652 139.137 18.9207 138.071 18.944 136.851C18.9788 135.631 19.4523 134.565 20.3644 133.653C21.2591 132.758 22.3135 132.314 23.5277 132.32C24.7419 132.325 25.7963 132.776 26.691 133.67C27.0861 134.065 27.4056 134.501 27.6496 134.977C27.8239 135.314 28.0185 135.817 28.2335 136.485L27.301 137.418Z" fill="#5FD889"/>
<path d="M27.7027 139.231L28.5393 140.068L28.304 140.303C28.548 140.326 28.7833 140.399 29.0098 140.521C29.2422 140.637 29.4543 140.791 29.646 140.982C30.2095 141.546 30.4477 142.197 30.3606 142.934C30.2792 143.62 29.9481 144.253 29.3671 144.834C28.7629 145.438 28.121 145.79 27.4413 145.889C26.6802 145.999 26.0092 145.764 25.4283 145.183C25.0507 144.805 24.8211 144.367 24.7398 143.867L22.2911 146.316L21.4545 145.479L27.7027 139.231ZM26.0208 144.294C26.3927 144.666 26.8226 144.805 27.3106 144.712C27.7405 144.631 28.1501 144.396 28.5393 144.006C28.9053 143.64 29.1232 143.243 29.1929 142.813C29.2684 142.33 29.126 141.909 28.7659 141.549C28.6264 141.409 28.4521 141.288 28.243 141.183C28.0339 141.078 27.8276 141.012 27.6243 140.982L25.4544 143.152C25.5299 143.437 25.5996 143.658 25.6635 143.815C25.7333 143.966 25.8523 144.125 26.0208 144.294ZM32.2858 146.725C32.524 146.487 32.6664 146.257 32.7128 146.036C32.7651 145.763 32.678 145.513 32.4514 145.287C32.2597 145.095 31.9721 144.941 31.5887 144.825C31.2982 144.732 30.97 144.671 30.604 144.642L31.4405 143.823C31.7949 143.863 32.1435 143.962 32.4863 144.119C32.8348 144.27 33.1282 144.465 33.3664 144.703C33.866 145.202 34.0316 145.74 33.8631 146.315C33.7353 146.745 33.3984 147.233 32.8523 147.779C32.7245 147.907 32.5066 148.113 32.1987 148.398C31.8966 148.677 31.7397 148.822 31.7281 148.833C31.6061 148.956 31.5015 149.077 31.4144 149.2C31.3273 149.321 31.3127 149.429 31.3708 149.522L31.9198 149.792L31.3273 150.385C31.0484 150.315 30.8044 150.234 30.5953 150.141C30.3803 150.054 30.1915 149.929 30.0288 149.766C29.9533 149.69 29.9126 149.58 29.9068 149.435C29.901 149.301 29.9184 149.179 29.9591 149.069C29.686 148.982 29.4682 148.903 29.3055 148.833C29.0615 148.729 28.8669 148.604 28.7217 148.459C28.3673 148.105 28.1756 147.744 28.1465 147.378C28.1175 146.977 28.2801 146.6 28.6345 146.245C29.0121 145.868 29.596 145.801 30.3861 146.045C30.8218 146.179 31.4086 146.452 32.1464 146.864L32.2858 146.725ZM31.6497 147.361C31.243 147.117 30.8945 146.954 30.604 146.873C30.1218 146.739 29.7616 146.792 29.5234 147.03C29.3956 147.157 29.3317 147.32 29.3317 147.518C29.3317 147.715 29.3985 147.881 29.5321 148.014C29.6483 148.131 29.8022 148.226 29.994 148.302C30.238 148.383 30.4152 148.444 30.5256 148.485L31.6497 147.361ZM32.5849 149.777C32.6604 150.167 32.7447 150.483 32.8376 150.727C32.9713 151.093 33.1397 151.378 33.3431 151.581C33.4825 151.721 33.6219 151.808 33.7614 151.843C33.9008 151.878 34.0373 151.828 34.1709 151.695C34.351 151.514 34.3307 150.965 34.1099 150.048C33.8892 149.13 33.9966 148.453 34.4323 148.017C34.7809 147.669 35.1644 147.506 35.5827 147.529C36.0126 147.552 36.4017 147.738 36.7503 148.087C36.9422 148.279 37.1049 148.499 37.2383 148.749C37.3778 148.993 37.4852 149.257 37.5609 149.542L36.7066 150.414C36.6778 150.164 36.5964 149.885 36.4626 149.577C36.3352 149.263 36.1897 149.025 36.0271 148.862C35.9225 148.758 35.8035 148.691 35.6697 148.662C35.5419 148.639 35.4257 148.68 35.3211 148.784C35.1353 148.97 35.1527 149.522 35.3735 150.44C35.6059 151.358 35.5042 152.035 35.0685 152.47C34.7199 152.819 34.3162 152.984 33.8572 152.967C33.4099 152.95 33.009 152.764 32.6546 152.409C32.4222 152.177 32.2305 151.915 32.0795 151.625C31.9284 151.346 31.8006 151.026 31.696 150.666L32.5849 149.777ZM35.7507 152.943C35.8264 153.332 35.9105 153.649 36.0035 153.893C36.1369 154.259 36.3056 154.544 36.5088 154.747C36.6482 154.887 36.7876 154.974 36.9271 155.008C37.0665 155.043 37.2031 154.994 37.3366 154.861C37.5169 154.68 37.4964 154.131 37.2757 153.213C37.0549 152.295 37.1623 151.619 37.5982 151.183C37.9468 150.834 38.3302 150.672 38.7485 150.695C39.1785 150.718 39.5676 150.904 39.9162 151.253C40.1077 151.444 40.2704 151.665 40.4042 151.915C40.5436 152.159 40.651 152.423 40.7267 152.708L39.8725 153.579C39.8436 153.33 39.7623 153.051 39.6285 152.743C39.5007 152.429 39.3556 152.191 39.1929 152.028C39.0883 151.924 38.9693 151.857 38.8355 151.828C38.7077 151.805 38.5915 151.845 38.4869 151.95C38.301 152.136 38.3186 152.688 38.5394 153.606C38.7718 154.524 38.67 155.2 38.2341 155.636C37.8855 155.985 37.482 156.15 37.0228 156.133C36.5757 156.115 36.1746 155.929 35.8204 155.575C35.588 155.343 35.3964 155.081 35.2454 154.791C35.0942 154.512 34.9664 154.192 34.8618 153.832L35.7507 152.943ZM42.1581 153.686C41.5887 155.034 41.2781 155.769 41.2257 155.891C40.97 156.484 40.7697 156.922 40.6246 157.207L44.1014 155.63L44.7725 156.318C44.5109 156.893 44.244 157.486 43.9707 158.096C43.6978 158.706 43.4422 159.269 43.2038 159.787C43.7848 159.508 44.3686 159.243 44.9556 158.993C45.3623 158.819 45.9517 158.572 46.7246 158.253L47.6309 159.159L41.8968 161.425L41.5394 161.068C41.8764 160.196 42.132 159.545 42.3063 159.115C42.62 158.337 42.9162 157.704 43.195 157.216C42.6028 157.495 41.9605 157.776 41.2693 158.061C40.4038 158.415 39.7559 158.68 39.326 158.854L38.9602 158.488L41.2781 152.806L42.1581 153.686ZM50.207 161.544C50.782 162.119 51.0581 162.819 51.0348 163.644C51.0232 164.469 50.7271 165.171 50.1461 165.752C49.5591 166.339 48.8535 166.615 48.0285 166.58C47.2035 166.545 46.4975 166.235 45.9109 165.648C45.3591 165.096 45.0831 164.402 45.0831 163.565C45.0831 162.729 45.3591 162.035 45.9109 161.482C46.5267 160.867 47.2412 160.57 48.0545 160.594C48.8739 160.611 49.5912 160.928 50.207 161.544ZM46.7214 164.89C47.0933 165.262 47.5404 165.454 48.0633 165.465C48.5862 165.477 49.0306 165.299 49.3964 164.933C49.7566 164.573 49.9369 164.132 49.9369 163.609C49.9369 163.086 49.7566 162.644 49.3964 162.284C49.019 161.907 48.563 161.712 48.0285 161.7C47.5056 161.689 47.0552 161.872 46.6778 162.249C46.3348 162.592 46.1693 163.031 46.1809 163.565C46.1926 164.1 46.3728 164.541 46.7214 164.89ZM53.0387 164.567L53.8665 165.395L53.239 166.022C53.489 165.947 53.794 165.938 54.1542 165.996C54.52 166.048 54.7905 166.162 54.9647 166.336C55.1447 166.516 55.2753 166.728 55.3566 166.972C55.4091 167.129 55.4584 167.376 55.5049 167.713L54.2588 167.965C54.2528 167.762 54.2355 167.6 54.2063 167.477C54.1598 167.28 54.0873 167.132 53.9887 167.033C53.6633 166.708 53.2595 166.635 52.7774 166.815C52.4228 166.949 52.0598 167.202 51.688 167.573L49.8669 169.395L49.0387 168.567L53.0387 164.567ZM60.7968 168.02L61.625 168.848L55.4725 175L54.6447 174.173L54.8538 173.946C54.6331 173.911 54.4007 173.83 54.1566 173.702C53.9126 173.586 53.7123 173.449 53.5552 173.293C52.9626 172.7 52.7158 172.029 52.8147 171.28C52.9017 170.6 53.2503 169.955 53.8602 169.345C54.4528 168.752 55.0947 168.418 55.7862 168.343C56.5415 168.261 57.2095 168.511 57.7904 169.092C57.9531 169.255 58.0869 169.441 58.1915 169.65C58.3017 169.853 58.3947 170.086 58.47 170.347L60.7968 168.02ZM57.7295 171.088C57.7295 170.658 57.5669 170.28 57.2415 169.955C56.8521 169.565 56.4225 169.409 55.9517 169.484C55.4869 169.565 55.0514 169.81 54.6447 170.216C54.2728 170.588 54.0577 170.995 53.9996 171.436C53.9359 171.93 54.0869 172.36 54.4528 172.726C54.575 172.848 54.7464 172.967 54.9669 173.083C55.1936 173.194 55.3883 173.255 55.551 173.266L57.7295 171.088Z" fill="#282828"/>
<path d="M61.5634 174.852L62.2169 169.44L63.3409 170.564L62.8356 174.695L67.0099 174.233L68.1338 175.357L62.6961 175.985L62.0511 181.579L60.9359 180.464L61.4152 176.115L57.0317 176.56L55.8813 175.41L61.5634 174.852ZM68.9102 176.134L72.2218 179.445L71.4025 180.264L68.9799 177.842L67.1151 179.706L69.4768 182.068L68.6578 182.887L66.2961 180.526L64.4486 182.373L66.9757 184.9L66.174 185.702L62.7581 182.286L68.9102 176.134Z" fill="#5FD889" fill-opacity="0.5"/>
<path d="M153.236 103.309L154.682 104.756L154.377 106.595L153.611 105.828L153.488 104.486L152.164 104.381L151.388 103.606L153.236 103.309ZM152.669 106.019L154.421 107.771C155.455 108.805 156.059 109.868 156.233 110.961C156.431 112.192 156.027 113.311 155.022 114.316C154.151 115.187 153.201 115.666 152.172 115.754C151.15 115.835 150.163 115.498 149.21 114.743C148.954 114.533 148.722 114.336 148.513 114.15C148.315 113.964 148.062 113.717 147.755 113.409L146.517 112.172L152.669 106.019ZM149.314 113.313C150.046 114.045 150.81 114.443 151.606 114.507C152.466 114.577 153.253 114.255 153.968 113.54C154.694 112.814 155.04 112.044 155.005 111.231C154.97 110.417 154.587 109.645 153.855 108.913L152.687 107.745L148.216 112.216L149.314 113.313ZM158.814 112.164L159.685 113.036L157.019 115.702L160.13 118.813L162.796 116.147L163.676 117.026L157.524 123.179L156.644 122.299L159.31 119.632L156.2 116.521L153.533 119.188L152.662 118.316L158.814 112.164Z" fill="#5FD889"/>
<path d="M164.242 96.2462L165.701 94.7874L174.524 103.611L179.044 99.0909L180.416 100.463L174.437 106.441L164.242 96.2462ZM179.786 92.6588C179.392 92.2641 179.011 92.0282 178.645 91.9514C178.193 91.8648 177.779 92.0092 177.404 92.3845C177.086 92.7022 176.831 93.1789 176.638 93.8141C176.484 94.2955 176.383 94.8395 176.335 95.4462L174.977 94.0599C175.045 93.4726 175.208 92.8948 175.469 92.3268C175.719 91.7493 176.041 91.2631 176.436 90.8684C177.264 90.0402 178.155 89.7659 179.108 90.0451C179.82 90.2571 180.629 90.8152 181.534 91.7205C181.745 91.9321 182.087 92.293 182.559 92.8032C183.021 93.3039 183.262 93.5638 183.281 93.5831C183.483 93.7852 183.685 93.9585 183.888 94.1032C184.09 94.2476 184.268 94.2715 184.422 94.1754L184.869 93.2655L185.851 94.2476C185.736 94.7095 185.601 95.1138 185.447 95.4606C185.303 95.8166 185.096 96.1296 184.826 96.399C184.701 96.5243 184.518 96.5916 184.277 96.6014C184.056 96.611 183.854 96.5821 183.671 96.5148C183.526 96.9673 183.396 97.3282 183.281 97.5979C183.108 98.0022 182.901 98.3247 182.66 98.5652C182.073 99.1525 181.476 99.4701 180.869 99.5183C180.205 99.5666 179.579 99.2969 178.992 98.7095C178.366 98.0838 178.256 97.1162 178.66 95.8071C178.881 95.0849 179.334 94.1127 180.017 92.8902L179.786 92.6588ZM180.84 93.7131C180.436 94.387 180.167 94.9648 180.032 95.4462C179.811 96.2451 179.897 96.8419 180.292 97.2367C180.504 97.4486 180.773 97.5543 181.1 97.5543C181.428 97.5543 181.702 97.4437 181.924 97.2222C182.116 97.0296 182.275 96.7747 182.4 96.4571C182.535 96.0525 182.636 95.7588 182.704 95.5761L180.84 93.7131ZM184.845 92.1634C185.49 92.0381 186.015 91.8986 186.419 91.7444C187.026 91.5233 187.498 91.244 187.835 90.9071C188.065 90.6761 188.21 90.4448 188.268 90.2138C188.326 89.9828 188.244 89.7564 188.022 89.5352C187.724 89.2367 186.814 89.2705 185.293 89.6363C183.772 90.0021 182.65 89.824 181.928 89.1018C181.351 88.5243 181.081 87.8888 181.119 87.1958C181.158 86.4831 181.466 85.8381 182.044 85.2606C182.362 84.943 182.727 84.6733 183.141 84.4518C183.546 84.2208 183.984 84.0426 184.455 83.9176L185.899 85.3328C185.486 85.381 185.023 85.5159 184.513 85.737C183.993 85.949 183.599 86.1895 183.329 86.4592C183.156 86.6324 183.045 86.83 182.997 87.0511C182.958 87.2631 183.026 87.4557 183.199 87.6289C183.507 87.937 184.422 87.9081 185.943 87.5423C187.464 87.1571 188.586 87.3257 189.307 88.0476C189.885 88.6254 190.16 89.2944 190.131 90.055C190.102 90.7962 189.794 91.4606 189.206 92.0479C188.821 92.4328 188.388 92.7507 187.907 93.0007C187.445 93.2511 186.915 93.4631 186.318 93.6363L184.845 92.1634ZM185.413 78.7726L187.131 80.4909L188.98 78.6426L190.106 79.769L188.257 81.6462C188.652 82.0409 189.297 82.7053 190.193 83.6391C191.078 84.5634 191.555 85.0592 191.622 85.1264C191.873 85.3768 192.142 85.5212 192.431 85.5599C192.729 85.5888 193.004 85.4779 193.254 85.2275C193.495 84.987 193.711 84.6162 193.904 84.1155C194.058 83.7307 194.178 83.3117 194.265 82.8592L195.723 84.318C195.425 85.0592 195.237 85.5166 195.16 85.6898C194.929 86.1712 194.65 86.5754 194.323 86.9029C193.677 87.5479 192.951 87.7838 192.142 87.6102C191.458 87.4659 190.775 87.0521 190.092 86.3683C189.716 85.993 189.1 85.3578 188.243 84.4624C187.376 83.5574 186.914 83.0761 186.857 83.0183L186.048 83.8268L185.413 78.7726Z" fill="#282828"/>
<path d="M186.608 73.8804L189.915 70.5733C190.801 69.6877 191.773 69.2254 192.832 69.187C193.891 69.1293 194.854 69.5335 195.72 70.4001C196.644 71.3244 197.087 72.2677 197.049 73.2304C197.02 74.0103 196.659 74.8624 195.966 75.7863C195.561 76.3258 194.844 77.1103 193.814 78.1402L198.276 82.6025L196.803 84.0754L186.608 73.8804ZM193.843 75.3388C194.478 74.7032 194.854 74.1451 194.969 73.6638C195.114 73.0377 194.887 72.4265 194.29 71.8296C193.771 71.3099 193.207 71.1124 192.601 71.2377C192.081 71.3532 191.547 71.6853 190.998 72.2339L189.453 73.7793L192.428 76.7539L193.843 75.3388ZM202.463 69.9821C202.068 69.5874 201.688 69.3518 201.322 69.2747C200.87 69.1881 200.456 69.3325 200.08 69.7078C199.763 70.0254 199.507 70.5022 199.315 71.1374C199.161 71.6187 199.06 72.1627 199.012 72.7694L197.654 71.3832C197.721 70.7958 197.885 70.218 198.145 69.6501C198.395 69.0726 198.718 68.5863 199.113 68.1916C199.941 67.3638 200.831 67.0892 201.784 67.3684C202.497 67.5804 203.306 68.1384 204.211 69.0437C204.422 69.2553 204.764 69.6163 205.236 70.1268C205.698 70.6272 205.938 70.887 205.958 70.9064C206.16 71.1085 206.362 71.2818 206.564 71.4265C206.766 71.5708 206.945 71.5948 207.099 71.4987L207.546 70.5888L208.528 71.5708C208.413 72.0328 208.278 72.437 208.124 72.7839C207.98 73.1399 207.772 73.4529 207.503 73.7226C207.378 73.8476 207.195 73.9149 206.954 73.9247C206.733 73.9342 206.531 73.9053 206.347 73.8381C206.203 74.2906 206.073 74.6515 205.958 74.9212C205.784 75.3254 205.577 75.648 205.337 75.8884C204.75 76.4758 204.153 76.7934 203.546 76.8416C202.882 76.8899 202.256 76.6201 201.669 76.0328C201.043 75.4071 200.932 74.4395 201.337 73.1304C201.558 72.4082 202.011 71.436 202.694 70.2135L202.463 69.9821ZM203.517 71.0363C203.113 71.7103 202.843 72.2881 202.708 72.7694C202.487 73.5684 202.574 74.1652 202.969 74.5599C203.18 74.7719 203.45 74.8779 203.777 74.8779C204.105 74.8779 204.379 74.767 204.6 74.5455C204.793 74.3529 204.952 74.098 205.077 73.7803C205.212 73.3758 205.313 73.0821 205.38 72.8994L203.517 71.0363ZM207.522 69.4867C208.167 69.3613 208.692 69.2219 209.096 69.0677C209.702 68.8465 210.174 68.5673 210.511 68.2303C210.742 67.9994 210.887 67.768 210.944 67.537C211.002 67.3061 210.92 67.0796 210.699 66.8585C210.401 66.5599 209.491 66.5937 207.97 66.9596C206.449 67.3254 205.327 67.1473 204.605 66.4251C204.027 65.8476 203.758 65.212 203.796 64.5191C203.835 63.8064 204.143 63.1613 204.72 62.5839C205.038 62.2663 205.404 61.9965 205.818 61.7751C206.222 61.5441 206.66 61.3659 207.132 61.2409L208.576 62.6561C208.162 62.7043 207.7 62.8392 207.19 63.0603C206.67 63.2723 206.275 63.5127 206.006 63.7825C205.832 63.9557 205.722 64.1532 205.674 64.3747C205.635 64.5863 205.702 64.7789 205.876 64.9522C206.184 65.2603 207.099 65.2314 208.619 64.8656C210.14 64.4803 211.262 64.649 211.984 65.3708C212.562 65.9487 212.836 66.6177 212.807 67.3782C212.778 68.1194 212.47 68.7839 211.883 69.3712C211.498 69.7561 211.065 70.074 210.583 70.3244C210.121 70.5744 209.592 70.7863 208.995 70.9596L207.522 69.4867ZM212.768 64.2406C213.413 64.1152 213.938 63.9758 214.342 63.8219C214.949 63.6004 215.42 63.3212 215.757 62.9842C215.988 62.7532 216.133 62.5219 216.19 62.2909C216.248 62.0599 216.166 61.8339 215.945 61.6124C215.647 61.3138 214.737 61.3476 213.216 61.7134C211.695 62.0793 210.573 61.9011 209.851 61.1789C209.274 60.6015 209.004 59.9659 209.042 59.273C209.081 58.5603 209.389 57.9156 209.966 57.3377C210.284 57.0201 210.65 56.7504 211.064 56.5289C211.468 56.298 211.906 56.1198 212.378 55.9948L213.822 57.4099C213.408 57.4582 212.946 57.593 212.436 57.8142C211.916 58.0261 211.521 58.2666 211.252 58.5363C211.078 58.7096 210.968 58.9071 210.92 59.1286C210.881 59.3402 210.949 59.5328 211.122 59.7061C211.43 60.0142 212.344 59.9853 213.865 59.6194C215.387 59.2342 216.508 59.4029 217.23 60.1247C217.808 60.7025 218.082 61.3715 218.053 62.1321C218.025 62.8733 217.716 63.5377 217.129 64.1251C216.744 64.5099 216.311 64.8279 215.83 65.0782C215.368 65.3282 214.838 65.5402 214.241 65.7134L212.768 64.2406Z" fill="#D32D27"/>
</svg>
