<svg width="35" height="31" viewBox="0 0 35 31" fill="none" xmlns="http://www.w3.org/2000/svg">
<g clip-path="url(#clip0)">
<path d="M6.52554 21.7709C8.70775 25.6889 12.8479 28.2692 17.4994 28.2692C23.3006 28.2692 28.312 24.2551 29.7138 18.6268C29.8934 17.906 30.6145 17.4695 31.3246 17.6517C32.0346 17.8339 32.4647 18.5659 32.2852 19.2867C30.5873 26.1031 24.5221 30.9614 17.4994 30.9614C11.7292 30.9614 6.61003 27.6822 4.02411 22.7394L2.59003 27.2787C2.36637 27.9866 1.61971 28.3765 0.922304 28.1495C0.224898 27.9224 -0.159157 27.1645 0.0644942 26.4566L2.61579 18.381C2.86919 17.579 3.77783 17.2075 4.50814 17.6074L11.7824 21.5905C12.427 21.9434 12.6677 22.7599 12.32 23.4142C11.9723 24.0685 11.1678 24.3128 10.5233 23.9599L6.52554 21.7709Z" fill="#506175"/>
<path d="M17.5006 2.69219C11.6995 2.69219 6.68809 6.70635 5.28621 12.3346C5.10669 13.0554 4.38555 13.492 3.67551 13.3097C2.96546 13.1275 2.53538 12.3955 2.7149 11.6747C4.41273 4.85828 10.478 0 17.5006 0C23.2708 0 28.39 3.27918 30.9759 8.22199L32.41 3.6827C32.6337 2.97479 33.3803 2.58494 34.0778 2.81196C34.7752 3.03899 35.1592 3.7969 34.9356 4.50482L32.3843 12.5804C32.1309 13.3825 31.2222 13.7539 30.4919 13.354L23.2176 9.37096C22.573 9.01801 22.3324 8.20148 22.6801 7.54717C23.0278 6.89287 23.8322 6.64857 24.4768 7.00152L28.4745 9.1905C26.2923 5.2725 22.1521 2.69219 17.5006 2.69219Z" fill="#506175"/>
</g>
<defs>
<clipPath id="clip0">
<rect width="35" height="30.9615" fill="white"/>
</clipPath>
</defs>
</svg>
