<svg width="250" height="199" viewBox="0 0 250 199" fill="none" xmlns="http://www.w3.org/2000/svg">
<g clip-path="url(#clip0)">
<path d="M119.586 111.234L117.684 109.331L118.461 108.555L121.803 111.897L116.41 113.014L118.495 115.1L117.745 115.85L114.219 112.325L119.586 111.234ZM126.885 111.045L127.391 111.551L126.641 112.285C126.955 112.738 127.208 113.207 127.4 113.689L126.475 114.615C126.405 114.3 126.327 114.042 126.239 113.838C126.134 113.582 126.001 113.337 125.838 113.105L123.848 115.094C124.081 115.967 124.148 116.663 124.049 117.18C123.967 117.622 123.773 117.998 123.464 118.306C122.51 119.26 121.463 119.365 120.323 118.62L119.546 119.397L119.04 118.891L119.816 118.114C119.63 117.928 119.447 117.616 119.267 117.18C119.098 116.744 118.996 116.374 118.961 116.072L119.974 115.06C119.968 115.438 120.02 115.839 120.13 116.264C120.253 116.689 120.421 117.032 120.637 117.294L122.661 115.269C122.487 114.513 122.408 113.928 122.426 113.515C122.455 112.881 122.679 112.354 123.098 111.935C123.569 111.464 124.063 111.226 124.581 111.22C125.041 111.214 125.564 111.4 126.152 111.778L126.885 111.045ZM125.323 112.608C125.102 112.48 124.869 112.433 124.625 112.468C124.386 112.497 124.174 112.604 123.988 112.791C123.813 112.965 123.706 113.189 123.665 113.463C123.636 113.678 123.645 113.937 123.691 114.239L125.323 112.608ZM122.513 117.547C122.705 117.355 122.821 117.134 122.862 116.883C122.891 116.703 122.879 116.447 122.827 116.116L121.169 117.774C121.437 117.878 121.678 117.916 121.893 117.887C122.109 117.858 122.315 117.744 122.513 117.547ZM128.826 114.609L129.699 115.482L127.028 118.152L130.144 121.268L132.814 118.597L133.695 119.479L127.534 125.64L126.653 124.758L129.323 122.088L126.208 118.972L123.537 121.643L122.665 120.77L128.826 114.609ZM134.896 120.679L138.212 123.995L137.391 124.816L134.965 122.39L133.098 124.257L135.463 126.622L134.643 127.443L132.278 125.078L130.428 126.928L132.958 129.458L132.156 130.261L128.735 126.84L134.896 120.679ZM133.843 129.61C133.919 130 134.003 130.317 134.096 130.561C134.23 130.928 134.399 131.213 134.603 131.416C134.742 131.556 134.882 131.643 135.022 131.678C135.161 131.713 135.298 131.664 135.432 131.53C135.612 131.349 135.591 130.8 135.371 129.88C135.15 128.962 135.257 128.283 135.693 127.847C136.042 127.498 136.426 127.335 136.845 127.359C137.276 127.382 137.665 127.568 138.014 127.917C138.207 128.109 138.37 128.33 138.503 128.58C138.643 128.825 138.751 129.09 138.826 129.374L137.971 130.247C137.942 129.997 137.86 129.718 137.727 129.409C137.599 129.095 137.453 128.857 137.29 128.694C137.185 128.589 137.066 128.522 136.933 128.493C136.805 128.47 136.688 128.511 136.584 128.615C136.397 128.801 136.415 129.354 136.636 130.273C136.868 131.192 136.767 131.87 136.33 132.307C135.981 132.656 135.577 132.822 135.117 132.804C134.669 132.787 134.268 132.6 133.913 132.245C133.681 132.013 133.488 131.751 133.337 131.46C133.186 131.181 133.058 130.861 132.953 130.5L133.843 129.61ZM142.014 127.797L145.801 131.585L145.601 131.786L136.909 135.241L136.534 134.063L143.855 131.262L141.202 128.609L142.014 127.797Z" fill="#F19B2B" fill-opacity="0.25"/>
<path d="M221.248 46.9845L219.346 48.8868L218.569 48.1104L221.911 44.768L223.028 50.1612L225.114 48.0755L225.865 48.8258L222.339 52.3516L221.248 46.9845ZM221.06 39.6858L221.566 39.1795L222.299 39.9302C222.752 39.616 223.221 39.3628 223.703 39.1707L224.629 40.0959C224.315 40.1657 224.056 40.2444 223.852 40.3315C223.596 40.4362 223.352 40.5698 223.119 40.7327L225.109 42.7225C225.981 42.4898 226.677 42.4228 227.194 42.5219C227.636 42.6033 228.012 42.7983 228.32 43.1065C229.274 44.0607 229.379 45.1079 228.634 46.2483L229.411 47.0247L228.905 47.531L228.128 46.7542C227.942 46.9404 227.63 47.1238 227.194 47.304C226.758 47.4729 226.389 47.5744 226.086 47.6093L225.074 46.5973C225.452 46.603 225.853 46.5508 226.278 46.4401C226.703 46.3181 227.046 46.1492 227.308 45.9341L225.283 43.9094C224.527 44.0839 223.942 44.1626 223.529 44.1449C222.895 44.116 222.368 43.8921 221.95 43.4732C221.478 43.0018 221.24 42.5074 221.234 41.9894C221.228 41.53 221.414 41.0064 221.792 40.4189L221.06 39.6858ZM222.622 41.2479C222.494 41.469 222.447 41.7017 222.482 41.9461C222.511 42.1844 222.618 42.3967 222.805 42.5829C222.979 42.7574 223.203 42.865 223.477 42.9059C223.692 42.9348 223.951 42.9263 224.254 42.8798L222.622 41.2479ZM227.561 44.0578C227.369 43.8657 227.148 43.7493 226.897 43.7088C226.717 43.6795 226.461 43.6911 226.13 43.7437L227.788 45.4016C227.892 45.134 227.93 44.8925 227.901 44.6774C227.872 44.4619 227.758 44.2557 227.561 44.0578ZM224.623 37.7451L225.496 36.8724L228.166 39.5427L231.282 36.427L228.611 33.7569L229.493 32.8754L235.654 39.0363L234.773 39.9179L232.102 37.2475L228.987 40.3629L231.657 43.0332L230.785 43.9059L224.623 37.7451ZM230.693 31.6749L234.01 28.3588L234.83 29.1791L232.404 31.6051L234.271 33.4726L236.636 31.1077L237.457 31.928L235.092 34.2929L236.942 36.1428L239.472 33.6122L240.275 34.4151L236.854 37.8361L230.693 31.6749ZM239.624 32.7274C240.014 32.6517 240.331 32.5674 240.575 32.4743C240.942 32.3405 241.227 32.1718 241.431 31.9681C241.57 31.8285 241.658 31.6889 241.693 31.5493C241.727 31.4096 241.678 31.2729 241.544 31.1391C241.364 30.9588 240.814 30.9791 239.895 31.2002C238.976 31.4213 238.298 31.3137 237.861 30.8773C237.512 30.5283 237.349 30.1443 237.373 29.7254C237.396 29.2949 237.582 28.9051 237.931 28.556C238.123 28.364 238.344 28.2011 238.595 28.0674C238.839 27.9277 239.104 27.8201 239.389 27.7445L240.261 28.5997C240.011 28.6287 239.732 28.7102 239.423 28.844C239.109 28.972 238.871 29.1175 238.708 29.2803C238.603 29.3851 238.536 29.5044 238.507 29.6381C238.484 29.7661 238.525 29.8825 238.629 29.9872C238.816 30.1734 239.368 30.1559 240.287 29.9349C241.207 29.7021 241.884 29.804 242.321 30.2403C242.67 30.5893 242.836 30.9937 242.818 31.4533C242.801 31.9012 242.615 32.3027 242.26 32.6576C242.027 32.8903 241.765 33.0822 241.474 33.2335C241.195 33.3848 240.875 33.5128 240.514 33.6175L239.624 32.7274ZM237.811 24.5568L241.599 20.7694L241.8 20.9701L245.255 29.6619L244.077 30.0371L241.276 22.7155L238.623 25.3683L237.811 24.5568Z" fill="#F19B2B"/>
<path d="M6.98132 88.3219L6.38791 91.8477L9.91348 91.2542L10.9956 92.3364L5.96905 93.1217L2.714 96.3766L1.83261 95.4954L5.08763 92.2401L5.90794 87.2486L6.98132 88.3219ZM11.6676 93.0081L13.666 95.0067C14.2012 95.542 14.4805 96.1294 14.5037 96.7694C14.5387 97.4094 14.2943 97.9912 13.7707 98.5148C13.2122 99.0733 12.6421 99.341 12.0603 99.3177C11.589 99.3001 11.0742 99.0822 10.5157 98.6633C10.1899 98.4189 9.71574 97.9852 9.09324 97.3628L6.39669 100.059L5.5066 99.1693L11.6676 93.0081ZM10.7862 97.3805C11.1702 97.7645 11.5076 97.9912 11.7985 98.061C12.1767 98.1481 12.5461 98.0116 12.9068 97.6509C13.221 97.3367 13.3402 96.9965 13.2646 96.6298C13.1948 96.3156 12.994 95.993 12.6624 95.6612L11.7287 94.7274L9.931 96.525L10.7862 97.3805ZM11.0736 102.485C11.1725 102.828 11.2714 103.113 11.3703 103.34C11.5099 103.654 11.6757 103.907 11.8677 104.099C12.1993 104.431 12.5542 104.605 12.9323 104.623C13.3222 104.64 13.6799 104.486 14.0057 104.16C14.4246 103.742 14.5759 103.317 14.4595 102.886C14.3839 102.613 14.1337 102.211 13.709 101.682L14.4595 100.932C14.8318 101.304 15.1867 101.525 15.5242 101.595C15.9314 101.676 16.3125 101.54 16.6674 101.184C16.9291 100.923 17.0484 100.623 17.0251 100.286C17.0135 99.9482 16.8739 99.6456 16.6062 99.378C16.3968 99.1686 16.1525 98.994 15.8732 98.8544C15.7394 98.7906 15.4602 98.6798 15.0355 98.5229L15.8994 97.6763C16.1903 97.8276 16.4841 97.976 16.7808 98.1213C17.1066 98.2958 17.3742 98.488 17.5836 98.6975C18.0549 99.1686 18.2963 99.7066 18.3079 100.312C18.3312 100.917 18.1072 101.455 17.636 101.926C17.2753 102.287 16.8972 102.496 16.5015 102.555C16.1641 102.601 15.7336 102.537 15.21 102.362C15.466 102.77 15.562 103.221 15.498 103.715C15.4398 104.204 15.2362 104.623 14.8871 104.972C14.3286 105.53 13.7265 105.83 13.0807 105.871C12.3942 105.917 11.7746 105.664 11.2219 105.111C10.9834 104.873 10.7827 104.608 10.6198 104.317C10.4569 104.038 10.3173 103.718 10.2009 103.358L11.0736 102.485ZM19.1713 103.618C19.5902 103.2 20.073 103.019 20.6199 103.078C21.1726 103.142 21.6642 103.389 22.0947 103.819C22.5252 104.25 22.7463 104.715 22.7579 105.215C22.7812 105.716 22.5776 106.181 22.147 106.612C21.8329 106.926 21.414 107.135 20.8904 107.24C20.3668 107.345 19.8752 107.336 19.4156 107.214L19.2149 108.863C19.692 108.793 20.1545 108.697 20.6024 108.575L21.5013 109.474C20.7101 109.742 19.9101 109.943 19.1015 110.077L18.8397 112.502L17.8099 111.472L17.9496 110.111C17.3678 110.1 16.8849 110.03 16.5009 109.902C16.0355 109.751 15.6195 109.492 15.253 109.125C14.8341 108.706 14.6014 108.224 14.5549 107.677C14.5141 107.135 14.7003 106.658 15.1134 106.245C15.4974 105.861 16.0093 105.658 16.6493 105.634C17.0449 105.623 17.6092 105.693 18.3423 105.844C18.4237 105.204 18.5284 104.727 18.6564 104.413C18.7844 104.099 18.956 103.834 19.1713 103.618ZM19.5204 106.115L19.7647 106.15C20.1079 106.19 20.3785 106.193 20.5763 106.158C20.8439 106.111 21.0824 105.983 21.2919 105.774C21.478 105.588 21.5711 105.384 21.5711 105.163C21.5827 104.942 21.4926 104.736 21.3006 104.544C21.1144 104.358 20.8962 104.262 20.6461 104.256C20.3959 104.25 20.1748 104.343 19.9828 104.535C19.8723 104.646 19.7472 104.916 19.6076 105.347C19.468 105.777 19.4389 106.033 19.5204 106.115ZM18.2288 106.917C17.6936 106.801 17.3067 106.74 17.0682 106.734C16.6027 106.722 16.242 106.845 15.986 107.1C15.8173 107.269 15.7475 107.484 15.7766 107.746C15.8115 108.002 15.9162 108.218 16.0908 108.392C16.3177 108.619 16.6173 108.779 16.9896 108.872C17.2863 108.948 17.6354 108.983 18.0368 108.977L18.2288 106.917ZM25.8298 111.481L26.6588 112.31L20.4018 118.567L19.5728 117.738L21.99 115.321C21.513 115.205 21.1232 114.995 20.8207 114.693C20.2156 114.088 19.9422 113.407 20.0004 112.651C20.0527 111.947 20.3872 111.287 21.0039 110.67C21.5799 110.094 22.214 109.756 22.9064 109.658C23.6627 109.553 24.3201 109.78 24.8786 110.338C25.2742 110.734 25.5098 111.196 25.5854 111.726L25.8298 111.481ZM24.9135 112.398C24.8728 112.217 24.7971 112.014 24.6866 111.787C24.5877 111.56 24.4771 111.385 24.355 111.263C23.9884 110.897 23.5783 110.737 23.1245 110.783C22.6765 110.836 22.2635 111.051 21.8853 111.429C21.4723 111.842 21.2279 112.261 21.1523 112.686C21.0592 113.186 21.2134 113.637 21.6148 114.038C21.8999 114.323 22.2751 114.501 22.7405 114.571L24.9135 112.398ZM29.6555 110.996L30.5282 111.869L26.8892 115.508C26.3307 116.066 26.031 116.628 25.9903 117.192C25.9612 117.756 26.223 118.315 26.7757 118.868C27.3982 119.49 28.012 119.767 28.617 119.697C29.1639 119.639 29.7573 119.289 30.3973 118.65L33.853 115.194L34.7257 116.066L30.8685 119.923C30.0773 120.715 29.2395 121.087 28.3552 121.041C27.4826 120.994 26.6448 120.569 25.842 119.767C25.0217 118.946 24.6377 118.091 24.6901 117.201C24.7541 116.311 25.202 115.45 26.034 114.618L29.6555 110.996ZM34.7004 122.115L35.3547 116.696L36.4806 117.821L35.9746 121.958L40.1545 121.495L41.2803 122.621L35.835 123.249L35.1891 128.852L34.0721 127.735L34.5521 123.38L30.1625 123.825L29.0106 122.673L34.7004 122.115ZM39.0035 128.582L39.3875 125.039L40.4348 126.086L40.1379 128.53L42.5903 128.242L43.6721 129.324L40.103 129.682L39.7715 133.434L38.6982 132.361L38.9337 129.734L36.3071 129.97L35.2336 128.896L39.0035 128.582ZM46.1544 130.811C46.0614 130.381 45.9856 130.032 45.9277 129.764C45.823 129.252 45.8403 128.926 45.9799 128.787C46.2126 128.554 46.451 128.56 46.6954 128.804C46.8233 128.932 46.8265 129.249 46.7042 129.755C46.5529 130.395 46.4803 130.753 46.4859 130.829C46.6083 130.707 46.8089 130.419 47.0882 129.965C47.2394 129.72 47.3674 129.546 47.4721 129.441C47.5829 129.331 47.6961 129.264 47.8124 129.24C47.9404 129.217 48.0596 129.261 48.1703 129.371C48.275 129.476 48.31 129.598 48.275 129.738C48.2518 129.878 48.1848 130.002 48.0744 130.113C47.9637 130.224 47.8212 130.325 47.6467 130.419C47.3618 130.575 47.1929 130.669 47.1407 130.698C47.0998 130.727 47.0388 130.776 46.9573 130.846C46.8759 130.916 46.8001 130.986 46.7303 131.056C46.8526 131.061 47.2162 130.989 47.8212 130.837C48.2867 130.721 48.6125 130.756 48.7987 130.942C48.8918 131.035 48.9295 131.137 48.9122 131.248C48.9006 131.364 48.848 131.469 48.7549 131.562C48.6213 131.696 48.4496 131.745 48.2401 131.71C47.9841 131.64 47.7951 131.585 47.6728 131.544C47.5564 131.51 47.4023 131.477 47.2105 131.448C47.1407 131.437 46.9778 131.413 46.7218 131.378C46.8322 131.489 47.1202 131.684 47.5857 131.963C47.8184 132.103 47.987 132.225 48.0917 132.33C48.2024 132.44 48.2722 132.562 48.3011 132.696C48.336 132.836 48.3011 132.958 48.1964 133.063C48.0917 133.167 47.9725 133.217 47.8385 133.211C47.7049 133.205 47.5857 133.15 47.481 133.045C47.3586 132.923 47.2306 132.749 47.097 132.522C46.8001 132.016 46.5994 131.71 46.4947 131.605C46.6111 132.222 46.6925 132.699 46.7391 133.037C46.7973 133.374 46.78 133.589 46.6869 133.682C46.5822 133.787 46.4626 133.848 46.329 133.866C46.2066 133.883 46.0934 133.839 45.9887 133.734C45.8547 133.601 45.8375 133.263 45.9362 132.722C46.012 132.344 46.0903 131.969 46.1717 131.597C46.0554 131.713 45.8431 132.018 45.5349 132.513C45.3836 132.757 45.2497 132.938 45.1333 133.054C45.0346 133.153 44.9182 133.205 44.7842 133.211C44.6622 133.217 44.5515 133.17 44.4528 133.072C44.3364 132.955 44.2987 132.83 44.3392 132.696C44.3801 132.562 44.4644 132.432 44.5924 132.304C44.7377 132.158 44.9764 131.983 45.3078 131.78C45.6453 131.571 45.8664 131.425 45.9711 131.343C45.9362 131.343 45.5638 131.431 44.854 131.605C44.3304 131.733 43.9845 131.713 43.8156 131.544C43.6061 131.335 43.6238 131.108 43.8681 130.864C43.9612 130.77 44.1795 130.75 44.5226 130.803C44.988 130.884 45.4563 130.963 45.9277 131.038C45.4506 130.724 44.9792 130.41 44.5138 130.096C44.415 129.997 44.3509 129.88 44.3219 129.746C44.3043 129.613 44.3452 129.496 44.4439 129.397C44.543 129.299 44.6562 129.243 44.7842 129.232C44.9238 129.22 45.0434 129.264 45.1421 129.362C45.2761 129.496 45.433 129.729 45.6135 130.061C45.7997 130.386 45.9538 130.61 46.0758 130.733L46.1544 130.811ZM45.1629 137.622C45.2853 137.499 45.4394 137.438 45.6255 137.438C45.7419 137.438 46.0124 137.517 46.4372 137.674C46.2916 137.203 46.2422 136.798 46.2888 136.461C46.3413 136.06 46.5303 135.696 46.8561 135.37C47.31 134.916 47.8188 134.704 48.3833 134.733C48.9535 134.768 49.4683 135.015 49.9277 135.475C50.1255 135.672 50.4164 135.981 50.8004 136.4C51.1844 136.819 51.4781 137.13 51.682 137.334L50.9662 138.049L50.3643 137.447C50.335 137.639 50.2768 137.819 50.1897 137.988C50.1083 138.163 50.0035 138.314 49.8755 138.442C49.2937 139.024 48.5346 139.137 47.5977 138.782C46.6728 138.427 46.158 138.302 46.0533 138.407C45.9369 138.523 46.024 138.82 46.3149 139.297C46.7222 139.96 46.9665 140.432 47.048 140.711C47.2285 141.31 47.115 141.813 46.7077 142.22C46.2482 142.68 45.7042 142.84 45.0758 142.7C44.5406 142.584 44.0314 142.285 43.5487 141.801C43.0776 141.33 42.7634 140.836 42.6061 140.318C42.4027 139.66 42.5159 139.117 42.9464 138.686C43.249 138.384 43.5776 138.218 43.9327 138.189C44.2817 138.154 44.6425 138.253 45.0148 138.486C44.9566 138.346 44.939 138.195 44.9623 138.032C44.9856 137.869 45.0525 137.732 45.1629 137.622ZM47.5804 137.718C47.8188 137.956 48.0808 138.061 48.3657 138.032C48.6566 138.008 48.9242 137.874 49.1686 137.63C49.3956 137.403 49.5148 137.139 49.5265 136.836C49.5381 136.533 49.4274 136.266 49.1946 136.033C48.9796 135.818 48.7207 135.722 48.4182 135.745C48.1213 135.774 47.8625 135.9 47.6414 136.121C47.3914 136.371 47.2574 136.638 47.2401 136.923C47.2225 137.208 47.336 137.473 47.5804 137.718ZM44.1509 140.99C44.4302 141.269 44.6946 141.47 44.945 141.592C45.329 141.778 45.6315 141.761 45.8526 141.54C46.0793 141.313 46.1287 141.037 46.0007 140.711C45.9136 140.484 45.7363 140.237 45.4686 139.969C45.1545 139.655 44.8896 139.443 44.6745 139.332C44.3022 139.146 43.9965 139.172 43.7581 139.41C43.5487 139.62 43.5078 139.893 43.6358 140.231C43.7348 140.493 43.9066 140.746 44.1509 140.99ZM51.829 137.481L52.4397 138.091C53.1611 137.37 53.7313 136.928 54.1502 136.765C54.8368 136.498 55.4912 136.675 56.1135 137.297C56.2183 137.402 56.3145 137.533 56.4016 137.69C56.5007 137.847 56.585 138.013 56.6548 138.188L55.9041 138.938C55.7821 138.653 55.689 138.461 55.6252 138.362C55.567 138.257 55.4912 138.158 55.3981 138.065C55.1365 137.804 54.8456 137.728 54.5254 137.839C54.2927 137.92 54.031 138.106 53.7401 138.397L53.2602 138.912L54.0455 139.697L53.365 140.378L52.5793 139.592L49.2546 142.917L48.4344 142.097L51.7592 138.772L51.1481 138.161L51.829 137.481ZM56.731 138.072L57.56 138.901L53.6241 142.836L56.9753 142.627L58.0487 143.7L54.4094 143.883L54.4968 148.159L53.2839 146.946L53.2662 143.194L51.3988 145.062L50.5698 144.232L56.731 138.072ZM61.3159 146.968L62.1449 147.797L55.8879 154.054L55.0589 153.225L57.476 150.807C56.9989 150.691 56.6093 150.481 56.3068 150.179C55.7017 149.574 55.4281 148.893 55.4863 148.137C55.5388 147.433 55.8734 146.773 56.4901 146.156C57.0659 145.58 57.6999 145.243 58.3925 145.144C59.1488 145.039 59.8061 145.266 60.3646 145.824C60.7602 146.22 60.9958 146.682 61.0716 147.212L61.3159 146.968ZM60.3995 147.884C60.359 147.703 60.2831 147.5 60.1728 147.273C60.0737 147.046 59.9633 146.871 59.841 146.749C59.4746 146.383 59.0642 146.223 58.6107 146.269C58.1626 146.322 57.7497 146.537 57.3713 146.915C56.9584 147.328 56.714 147.747 56.6382 148.172C56.5451 148.672 56.6996 149.123 57.1009 149.524C57.3858 149.81 57.7613 149.987 58.2267 150.057L60.3995 147.884ZM61.4415 151.334C61.0751 151.701 60.8974 152.111 60.909 152.565C60.9323 153.018 61.1389 153.44 61.5286 153.83C61.8138 154.115 62.1774 154.339 62.6195 154.502C62.6954 154.531 62.9482 154.61 63.3787 154.738L62.5674 155.549C62.1019 155.386 61.7585 155.252 61.5374 155.148C61.1943 154.979 60.8918 154.764 60.6298 154.502C60.0131 153.885 59.7253 153.19 59.7659 152.416C59.8124 151.637 60.1499 150.933 60.7782 150.305C61.3135 149.769 61.9475 149.461 62.6805 149.379C63.4196 149.304 64.0536 149.531 64.5829 150.06C65.1879 150.665 65.4267 151.352 65.2987 152.12C65.1879 152.789 64.8156 153.44 64.1816 154.074L61.4415 151.334ZM63.981 152.669C64.1844 152.349 64.2863 152.032 64.2863 151.718C64.2923 151.398 64.1671 151.11 63.9111 150.854C63.6492 150.592 63.3554 150.456 63.0296 150.444C62.7038 150.433 62.3812 150.534 62.061 150.75L63.981 152.669Z" fill="#F19B2B" fill-opacity="0.75"/>
<path d="M126.085 99.5152L133.091 92.5092L134.263 93.6809L131.408 96.5356L139.037 104.165L137.754 105.45L130.124 97.8198L127.256 100.687L126.085 99.5152ZM139.853 97.9644C140.376 98.488 140.962 98.7415 141.611 98.725C142.259 98.6918 142.861 98.3967 143.418 97.8399C143.825 97.4327 144.145 96.9133 144.378 96.2814C144.42 96.1735 144.532 95.8121 144.715 95.1968L145.874 96.3561C145.641 97.0212 145.45 97.5116 145.301 97.8272C145.06 98.3177 144.752 98.75 144.378 99.1238C143.497 100.005 142.504 100.416 141.399 100.358C140.285 100.292 139.279 99.8096 138.382 98.9119C137.617 98.1474 137.177 97.2415 137.06 96.1943C136.952 95.1386 137.276 94.2327 138.033 93.4764C138.897 92.6121 139.878 92.2715 140.975 92.4542C141.931 92.6121 142.861 93.1442 143.767 94.0501L139.853 97.9644ZM141.76 94.3367C141.303 94.0458 140.85 93.9002 140.401 93.9002C139.944 93.8921 139.533 94.0709 139.167 94.4365C138.793 94.8103 138.598 95.2303 138.581 95.6957C138.565 96.1611 138.71 96.6224 139.018 97.0793L141.76 94.3367ZM144.414 83.5793L139.403 88.591L138.206 87.3942L145.598 80.0014L147.743 93.1164L152.991 87.8678L154.163 89.0398L146.521 96.682L144.414 83.5793ZM146.471 79.1284L147.718 77.8819L152.917 83.0804C153.715 83.8784 154.517 84.3064 155.323 84.3646C156.129 84.4059 156.927 84.0321 157.717 83.2426C158.606 82.3533 159 81.4764 158.901 80.6121C158.818 79.8307 158.319 78.9831 157.405 78.0688L152.468 73.1319L153.715 71.8854L159.225 77.3956C160.355 78.5261 160.887 79.7228 160.821 80.9859C160.754 82.2327 160.147 83.4295 159 84.5765C157.829 85.7482 156.607 86.2969 155.335 86.2221C154.064 86.1305 152.834 85.4905 151.645 84.3022L146.471 79.1284ZM162.817 74.5518L157.755 74.0035L159.251 72.5074L162.742 72.9312L162.33 69.4281L163.876 67.8822L164.387 72.9813L169.748 73.4549L168.214 74.9884L164.462 74.6516L164.799 78.4041L163.265 79.9376L162.817 74.5518Z" fill="#F19B2B" fill-opacity="0.5"/>
<path d="M164.63 64.1618L166.113 65.6453L167.709 64.0497L168.681 65.0218L167.086 66.6428C167.426 66.9834 167.983 67.5568 168.756 68.3632C169.521 69.1608 169.932 69.5888 169.99 69.647C170.206 69.8632 170.439 69.988 170.688 70.0211C170.946 70.0462 171.183 69.9506 171.399 69.7345C171.607 69.5268 171.794 69.2066 171.96 68.7743C172.093 68.4422 172.197 68.0804 172.271 67.6897L173.531 68.9489C173.273 69.5888 173.111 69.9838 173.044 70.1333C172.845 70.549 172.604 70.8981 172.322 71.1805C171.765 71.7373 171.137 71.9411 170.439 71.7912C169.849 71.6668 169.259 71.3092 168.669 70.7193C168.344 70.3953 167.813 69.8466 167.073 69.0737C166.325 68.2923 165.926 67.8769 165.876 67.8269L165.178 68.525L164.63 64.1618ZM171.172 60.3124C171.995 59.4894 172.996 59.0948 174.176 59.128C175.356 59.1446 176.362 59.5684 177.193 60.3995C178.033 61.2391 178.427 62.2489 178.378 63.4291C178.328 64.6093 177.883 65.6188 177.044 66.4584C176.254 67.2479 175.261 67.6428 174.064 67.6428C172.867 67.6428 171.874 67.2479 171.085 66.4584C170.203 65.5776 169.78 64.555 169.813 63.3917C169.838 62.2197 170.291 61.1932 171.172 60.3124ZM175.959 65.299C176.491 64.7673 176.765 64.1273 176.782 63.379C176.798 62.6312 176.545 61.9954 176.021 61.4718C175.506 60.9566 174.874 60.6989 174.127 60.6989C173.378 60.6989 172.747 60.9566 172.232 61.4718C171.691 62.012 171.413 62.6643 171.396 63.4291C171.38 64.177 171.641 64.8212 172.182 65.3614C172.672 65.8515 173.299 66.0885 174.064 66.0719C174.829 66.0553 175.46 65.7976 175.959 65.299ZM177.953 53.531C178.776 52.7084 179.777 52.3135 180.957 52.347C182.138 52.3635 183.143 52.7874 183.974 53.6185C184.814 54.458 185.209 55.4675 185.159 56.6477C185.109 57.8279 184.664 58.8378 183.825 59.6773C183.035 60.4668 182.042 60.8614 180.845 60.8614C179.648 60.8614 178.655 60.4668 177.866 59.6773C176.985 58.7962 176.561 57.774 176.594 56.6104C176.619 55.4386 177.072 54.4122 177.953 53.531ZM182.74 58.518C183.272 57.9859 183.547 57.3459 183.563 56.598C183.58 55.8501 183.326 55.214 182.803 54.6907C182.287 54.1752 181.655 53.9178 180.908 53.9178C180.16 53.9178 179.528 54.1752 179.013 54.6907C178.472 55.2309 178.194 55.8833 178.177 56.6477C178.161 57.396 178.422 58.0398 178.963 58.58C179.453 59.0705 180.081 59.3075 180.845 59.2909C181.61 59.2743 182.242 59.0166 182.74 58.518ZM179.299 46.3011L180.471 45.1294L189.272 53.9309L188.1 55.1026L179.299 46.3011Z" fill="#282828"/>
<path d="M184.294 40.982C185.225 40.0511 186.459 39.8808 187.996 40.4707C189.185 40.9281 190.311 41.6883 191.375 42.7521C192.098 43.4753 192.696 44.1985 193.17 44.9214C193.802 45.8854 194.163 46.7708 194.255 47.5769C194.371 48.574 194.076 49.4259 193.37 50.1326C192.364 51.1382 191.047 51.3001 189.417 50.6188C188.221 50.1199 187.032 49.2807 185.852 48.1005C184.738 46.9866 183.982 45.8565 183.583 44.7094C183.06 43.2218 183.297 41.9792 184.294 40.982ZM192.222 48.9108C192.838 48.2958 192.817 47.4439 192.16 46.3551C191.794 45.7401 191.175 44.9961 190.303 44.1234C189.463 43.2842 188.703 42.665 188.022 42.2662C186.891 41.6012 186.027 41.568 185.428 42.1664C184.813 42.7814 184.813 43.6456 185.428 44.7595C185.827 45.4743 186.434 46.2387 187.249 47.0532C188.113 47.9175 188.882 48.5367 189.555 48.9108C190.693 49.5508 191.582 49.5508 192.222 48.9108ZM195.014 44.8477C195.571 44.7394 196.024 44.6188 196.373 44.4859C196.897 44.2948 197.304 44.0539 197.595 43.763C197.794 43.5635 197.919 43.3639 197.969 43.1647C198.019 42.9651 197.948 42.7697 197.757 42.5786C197.499 42.3209 196.714 42.3501 195.401 42.6657C194.087 42.9817 193.119 42.8279 192.496 42.2045C191.997 41.7059 191.764 41.1573 191.798 40.5589C191.831 39.9439 192.097 39.3872 192.596 38.8886C192.87 38.6142 193.186 38.3815 193.543 38.1904C193.892 37.9908 194.27 37.8371 194.678 37.7292L195.924 38.9506C195.567 38.9922 195.168 39.1086 194.727 39.2997C194.279 39.4827 193.938 39.6904 193.705 39.9231C193.556 40.0726 193.46 40.2433 193.419 40.4344C193.385 40.6171 193.444 40.7835 193.593 40.933C193.859 41.1989 194.648 41.1742 195.962 40.8582C197.275 40.5257 198.243 40.6714 198.866 41.2944C199.365 41.7934 199.602 42.3709 199.577 43.0275C199.552 43.6675 199.286 44.2408 198.779 44.7479C198.447 45.0804 198.073 45.3544 197.657 45.5705C197.258 45.7867 196.801 45.9697 196.286 46.1192L195.014 44.8477ZM192.998 32.6018C194.27 33.1752 195.226 33.6074 195.866 33.8983C197.087 34.4385 198.051 34.879 198.758 35.2198C199.896 35.7599 200.84 36.2295 201.588 36.6283C200.914 35.4732 200.204 34.0645 199.456 32.4023C198.816 30.9645 198.176 29.5184 197.536 28.0639L198.583 27.0167L204.966 29.8093C205.473 30.0337 205.851 30.204 206.1 30.3204C206.524 30.5116 206.886 30.7069 207.185 30.9063C206.761 30.1168 206.3 29.2067 205.801 28.1761C205.303 27.1455 204.846 26.1732 204.43 25.2589C204.006 24.3364 203.578 23.4014 203.146 22.4539L204.53 21.0702L209.99 33.2127L209.579 33.624C208.606 33.2334 207.522 32.7888 206.325 32.2901C204.738 31.6336 203.657 31.1764 203.084 30.9188C202.153 30.5032 201.097 29.9963 199.917 29.3979C200.374 30.2872 200.885 31.3302 201.451 32.527C201.766 33.1919 202.244 34.2515 202.884 35.7059C203.283 36.6037 203.753 37.6717 204.293 38.9097L203.881 39.3212L191.552 34.0479L192.998 32.6018Z" fill="#F19B2B"/>
<path d="M76.4429 127.01C76.024 126.591 75.8438 126.108 75.902 125.561C75.9658 125.009 76.213 124.517 76.6435 124.087C77.074 123.656 77.5395 123.435 78.0398 123.423C78.5402 123.4 79.0056 123.604 79.4362 124.034C79.7504 124.348 79.9598 124.767 80.0645 125.291C80.1693 125.815 80.1604 126.306 80.0381 126.766L81.6876 126.967C81.6178 126.489 81.5219 126.027 81.3995 125.579L82.2983 124.68C82.5659 125.471 82.7669 126.271 82.9006 127.08L85.3265 127.342L84.2969 128.372L82.9355 128.232C82.9238 128.814 82.854 129.297 82.726 129.681C82.5748 130.146 82.3159 130.562 81.9492 130.928C81.5303 131.347 81.0476 131.58 80.5007 131.627C79.9598 131.667 79.4827 131.481 79.0695 131.068C78.6855 130.684 78.482 130.172 78.4587 129.532C78.4471 129.136 78.5169 128.572 78.6682 127.839C78.0282 127.758 77.5511 127.653 77.237 127.525C76.9228 127.397 76.658 127.225 76.4429 127.01ZM78.9386 126.661L78.9736 126.417C79.0145 126.073 79.0173 125.803 78.9824 125.605C78.9358 125.337 78.8078 125.099 78.5984 124.89C78.4122 124.703 78.2084 124.61 77.9873 124.61C77.7662 124.599 77.5599 124.689 77.3678 124.881C77.1816 125.067 77.0857 125.285 77.08 125.535C77.0741 125.786 77.1671 126.007 77.3593 126.199C77.4697 126.309 77.7401 126.434 78.1707 126.574C78.6012 126.713 78.8572 126.743 78.9386 126.661ZM79.7415 127.953C79.6252 128.488 79.5642 128.875 79.5582 129.113C79.5465 129.579 79.6689 129.939 79.9249 130.195C80.0934 130.364 80.3089 130.434 80.5705 130.405C80.8265 130.37 81.042 130.265 81.2162 130.091C81.4432 129.864 81.6033 129.564 81.6964 129.192C81.7719 128.895 81.8068 128.546 81.8011 128.145L79.7415 127.953ZM82.1502 122.507C83.5755 123.025 84.8583 123.511 85.9986 123.964L84.4975 120.16L85.414 119.243L88.8611 128.31L87.9446 129.227L86.4348 125.291L81.2338 123.423L82.1502 122.507Z" fill="#F19B2B"/>
<path d="M89.1915 122.273C89.0695 122.15 89.0085 121.996 89.0085 121.81C89.0085 121.694 89.0868 121.423 89.244 120.998C88.7726 121.144 88.3685 121.193 88.031 121.147C87.6294 121.094 87.2659 120.905 86.9401 120.579C86.4863 120.126 86.274 119.617 86.3029 119.052C86.3378 118.482 86.5853 117.967 87.0448 117.508C87.2426 117.31 87.5511 117.019 87.97 116.635C88.3886 116.251 88.6999 115.957 88.9038 115.754L89.6192 116.469L89.0169 117.071C89.2091 117.1 89.3893 117.159 89.5582 117.246C89.7327 117.327 89.884 117.432 90.012 117.56C90.5938 118.142 90.707 118.901 90.3523 119.838C89.9972 120.763 89.8724 121.278 89.9771 121.382C90.0935 121.499 90.39 121.411 90.8671 121.121C91.5303 120.713 92.0014 120.469 92.2807 120.388C92.8801 120.207 93.3833 120.321 93.7906 120.728C94.25 121.188 94.4101 121.731 94.2705 122.36C94.1541 122.895 93.8544 123.404 93.3717 123.887C92.9006 124.358 92.4059 124.672 91.8882 124.829C91.2306 125.033 90.6869 124.92 90.2564 124.489C89.9538 124.187 89.7877 123.858 89.7588 123.503C89.7239 123.154 89.8227 122.793 90.0554 122.421C89.9157 122.479 89.7645 122.496 89.6019 122.473C89.439 122.45 89.3022 122.383 89.1915 122.273ZM89.2877 119.855C89.5261 119.617 89.6308 119.355 89.6019 119.07C89.5786 118.779 89.4447 118.511 89.2003 118.267C88.9736 118.04 88.7088 117.921 88.4062 117.909C88.1037 117.897 87.836 118.008 87.6033 118.241C87.3882 118.456 87.292 118.715 87.3152 119.017C87.3445 119.314 87.4697 119.573 87.6908 119.794C87.9408 120.044 88.2084 120.178 88.4933 120.196C88.7786 120.213 89.0434 120.099 89.2877 119.855ZM92.56 123.285C92.8392 123.006 93.0402 122.741 93.1622 122.49C93.3484 122.107 93.3308 121.804 93.11 121.583C92.8829 121.356 92.6065 121.307 92.2807 121.435C92.054 121.522 91.8068 121.7 91.5392 121.967C91.225 122.281 91.0127 122.546 90.902 122.761C90.7158 123.134 90.7419 123.439 90.9806 123.677C91.1901 123.887 91.4633 123.928 91.8008 123.8C92.0628 123.701 92.3156 123.529 92.56 123.285ZM92.1834 116.715C92.5501 117.081 92.9602 117.259 93.414 117.247C93.8678 117.224 94.2895 117.017 94.6795 116.628C94.9644 116.343 95.1883 115.979 95.3512 115.537C95.3805 115.461 95.4588 115.208 95.5868 114.778L96.3985 115.589C96.2355 116.055 96.1019 116.398 95.9972 116.619C95.8283 116.962 95.6132 117.265 95.3512 117.526C94.7345 118.143 94.0395 118.431 93.2655 118.39C92.4859 118.344 91.7821 118.006 91.1537 117.378C90.6185 116.843 90.3103 116.209 90.2289 115.476C90.153 114.737 90.3801 114.103 90.9094 113.573C91.5145 112.968 92.201 112.73 92.969 112.858C93.6379 112.968 94.2895 113.341 94.9239 113.975L92.1834 116.715ZM93.5187 114.176C93.1989 113.972 92.8815 113.87 92.5674 113.87C92.2475 113.864 91.9595 113.989 91.7035 114.245C91.4418 114.507 91.305 114.801 91.2934 115.127C91.2817 115.452 91.3836 115.775 91.5987 116.095L93.5187 114.176ZM93.5441 111.113L94.3731 110.284L94.7222 110.633C94.7571 110.331 94.8269 110.051 94.9316 109.795C95.0363 109.539 95.1876 109.313 95.3854 109.115C95.9785 108.522 96.5836 108.312 97.2003 108.487C97.6541 108.615 98.207 109.005 98.8586 109.656L100.935 111.733L100.115 112.553L97.9771 110.415C97.5931 110.031 97.2877 109.795 97.0607 109.708C96.7059 109.574 96.3597 109.676 96.0222 110.014C95.8593 110.177 95.7313 110.392 95.6382 110.66C95.5628 110.875 95.5134 111.122 95.4901 111.401L98.3784 114.29L97.5494 115.119L93.5441 111.113ZM100.612 108.287C100.978 108.653 101.389 108.83 101.842 108.819C102.296 108.795 102.718 108.589 103.108 108.199C103.393 107.914 103.617 107.55 103.78 107.109C103.809 107.033 103.887 106.78 104.015 106.349L104.827 107.161C104.664 107.626 104.53 107.969 104.426 108.19C104.257 108.534 104.042 108.836 103.78 109.098C103.163 109.715 102.468 110.003 101.694 109.962C100.914 109.915 100.211 109.578 99.5822 108.95C99.0469 108.415 98.7387 107.78 98.6573 107.047C98.5815 106.309 98.8085 105.675 99.3378 105.145C99.9429 104.54 100.629 104.301 101.397 104.429C102.066 104.54 102.718 104.912 103.352 105.547L100.612 108.287ZM101.947 105.747C101.627 105.543 101.31 105.442 100.996 105.442C100.676 105.436 100.388 105.561 100.132 105.817C99.8703 106.079 99.7334 106.372 99.7218 106.698C99.7102 107.024 99.8121 107.347 100.027 107.667L101.947 105.747ZM102.034 102.624L102.862 101.795L103.491 102.423C103.415 102.173 103.406 101.868 103.464 101.507C103.517 101.14 103.63 100.87 103.805 100.695C103.985 100.515 104.197 100.384 104.442 100.303C104.599 100.25 104.846 100.201 105.184 100.154L105.437 101.402C105.233 101.408 105.07 101.426 104.948 101.455C104.75 101.501 104.602 101.574 104.503 101.673C104.177 101.999 104.104 102.403 104.285 102.886C104.419 103.24 104.672 103.604 105.044 103.976L106.868 105.8L106.039 106.629L102.034 102.624ZM108.258 99.3142C108.019 99.0755 107.789 98.933 107.568 98.8865C107.295 98.8339 107.045 98.9214 106.818 99.1481C106.626 99.3403 106.472 99.6284 106.355 100.012C106.262 100.303 106.201 100.632 106.172 100.998L105.352 100.16C105.393 99.8057 105.492 99.4566 105.649 99.1132C105.8 98.7645 105.995 98.4704 106.233 98.232C106.734 97.7317 107.272 97.5659 107.848 97.7345C108.278 97.8625 108.767 98.1999 109.314 98.7468C109.442 98.8748 109.648 99.0931 109.933 99.4013C110.213 99.7038 110.358 99.8611 110.37 99.8727C110.492 99.9947 110.614 100.099 110.736 100.187C110.859 100.274 110.966 100.288 111.059 100.23L111.33 99.6805L111.923 100.274C111.853 100.553 111.772 100.798 111.679 101.007C111.591 101.222 111.467 101.412 111.304 101.574C111.228 101.65 111.117 101.691 110.972 101.696C110.838 101.702 110.716 101.685 110.605 101.644C110.518 101.917 110.44 102.136 110.37 102.299C110.265 102.543 110.14 102.738 109.994 102.883C109.64 103.238 109.279 103.43 108.913 103.459C108.511 103.488 108.133 103.325 107.778 102.97C107.4 102.592 107.333 102.008 107.577 101.217C107.711 100.78 107.984 100.193 108.397 99.4538L108.258 99.3142ZM108.895 99.951C108.651 100.358 108.488 100.707 108.406 100.998C108.273 101.481 108.325 101.842 108.563 102.08C108.691 102.208 108.854 102.273 109.052 102.273C109.25 102.273 109.416 102.206 109.549 102.072C109.666 101.955 109.762 101.801 109.837 101.609C109.919 101.365 109.98 101.187 110.021 101.077L108.895 99.951ZM108.488 94.0927L109.526 95.1312L110.643 94.0141L111.324 94.695L110.207 95.8293C110.445 96.0677 110.835 96.4693 111.376 97.0335C111.912 97.592 112.199 97.8918 112.24 97.9323C112.391 98.0836 112.554 98.171 112.729 98.1943C112.909 98.2116 113.075 98.1449 113.226 97.9937C113.372 97.848 113.502 97.6241 113.619 97.3216C113.712 97.0889 113.785 96.8357 113.837 96.5624L114.718 97.4439C114.538 97.8918 114.425 98.1682 114.378 98.2729C114.238 98.5638 114.07 98.8082 113.872 99.006C113.482 99.3956 113.043 99.5381 112.554 99.4334C112.141 99.3463 111.728 99.0959 111.315 98.683C111.088 98.4559 110.716 98.0719 110.198 97.531C109.675 96.9841 109.395 96.6932 109.36 96.6583L108.872 97.147L108.488 94.0927ZM113.067 91.3981C113.643 90.8223 114.344 90.5458 115.17 90.5691C115.996 90.5808 116.7 90.8773 117.282 91.4591C117.87 92.0469 118.146 92.7535 118.111 93.5797C118.076 94.4059 117.765 95.1128 117.177 95.7003C116.625 96.2532 115.929 96.5293 115.092 96.5293C114.254 96.5293 113.559 96.2532 113.006 95.7003C112.389 95.0836 112.093 94.3681 112.116 93.5536C112.133 92.7334 112.451 92.0148 113.067 91.3981ZM116.418 94.8889C116.791 94.5166 116.982 94.0684 116.994 93.5448C117.006 93.0212 116.828 92.5762 116.462 92.2098C116.101 91.8491 115.659 91.6685 115.135 91.6685C114.612 91.6685 114.17 91.8491 113.809 92.2098C113.431 92.5878 113.236 93.0444 113.224 93.5797C113.213 94.1033 113.396 94.5543 113.774 94.9323C114.117 95.2757 114.556 95.4415 115.092 95.4298C115.627 95.4182 116.069 95.238 116.418 94.8889ZM116.095 88.5624L116.924 87.7334L117.552 88.3618C117.477 88.1114 117.468 87.8061 117.526 87.4454C117.578 87.079 117.692 86.8085 117.866 86.634C118.047 86.4535 118.259 86.3226 118.504 86.2412C118.66 86.1887 118.908 86.1393 119.245 86.0927L119.498 87.3406C119.295 87.3466 119.132 87.3639 119.01 87.3932C118.812 87.4397 118.663 87.5123 118.565 87.6111C118.239 87.9369 118.166 88.3413 118.346 88.8244C118.48 89.1791 118.733 89.5427 119.105 89.915L120.929 91.7391L120.101 92.5681L116.095 88.5624Z" fill="#282828"/>
<path d="M117.258 83.0885L118.122 82.2246L124.283 88.3854L123.419 89.2493L117.258 83.0885ZM116.431 80.6343L117.879 79.1858L119.721 79.4912L118.953 80.2592L117.609 80.3812L117.504 81.7077L116.727 82.4845L116.431 80.6343ZM125.41 77.6238C124.823 77.7807 124.36 77.9408 124.023 78.1037C123.598 78.3071 123.203 78.5924 122.836 78.9587C122.173 79.622 121.847 80.4076 121.859 81.3149C121.87 82.2109 122.208 82.9905 122.871 83.6537C123.546 84.3286 124.317 84.6749 125.184 84.6922C126.05 84.7098 126.818 84.384 127.487 83.7147C127.842 83.36 128.139 82.9468 128.378 82.4757C128.622 81.9986 128.802 81.4926 128.919 80.9573L129.887 81.9432C129.643 82.5832 129.433 83.0603 129.259 83.3745C129.014 83.8166 128.7 84.2299 128.316 84.6135C127.391 85.5388 126.327 85.9926 125.122 85.975C123.918 85.9577 122.85 85.4834 121.92 84.5525C121.03 83.6625 120.585 82.6008 120.585 81.3674C120.585 80.1224 121.027 79.0578 121.911 78.1735C122.324 77.7602 122.711 77.4492 123.072 77.2398C123.432 77.0303 123.898 76.8441 124.468 76.6812L125.41 77.6238ZM130.049 78.5353L126.506 78.1513L127.553 77.104L129.997 77.4006L129.709 74.9485L130.791 73.8664L131.149 77.4355L134.901 77.7673L133.828 78.8406L131.201 78.6051L131.437 81.2317L130.363 82.305L130.049 78.5353ZM135.595 76.079C135.781 75.3346 135.836 74.5751 135.76 73.8015C135.684 73.0279 135.49 72.2743 135.176 71.5413C135.094 72.0998 134.853 72.5797 134.451 72.9813C133.945 73.4873 133.358 73.7257 132.688 73.6968C132.019 73.6675 131.429 73.397 130.917 72.885C130.364 72.3325 130.097 71.7158 130.114 71.0353C130.132 70.3427 130.42 69.7176 130.978 69.159C131.56 68.5772 132.252 68.3269 133.055 68.4083C133.805 68.4841 134.48 68.8216 135.079 69.4207C135.743 70.0839 136.243 70.9566 136.58 72.0388C136.901 73.0568 137.023 74.0691 136.947 75.0755C136.935 75.25 136.909 75.4506 136.868 75.6777C136.834 75.8639 136.793 76.0673 136.746 76.2884L135.595 76.079ZM133.77 72.091C133.963 71.8991 134.12 71.6488 134.242 71.3406C134.364 71.0204 134.402 70.7327 134.355 70.4767L134.015 70.0839C133.677 69.7465 133.296 69.5691 132.872 69.5515C132.447 69.5342 132.072 69.6883 131.746 70.0141C131.432 70.3283 131.284 70.6802 131.301 71.0702C131.318 71.4482 131.484 71.7944 131.798 72.1086C132.078 72.3879 132.406 72.5243 132.785 72.5187C133.163 72.5127 133.491 72.3702 133.77 72.091ZM136.248 68.409L139.739 69.8575L138.247 66.4108L139.163 65.4944L141.406 71.2627L141.144 71.5243L135.349 69.3078L136.248 68.409Z" fill="#F19B2B" fill-opacity="0.5"/>
<path d="M75.9732 192.648L74.0705 194.55L73.2941 193.774L76.6361 190.432L77.7532 195.824L79.8389 193.739L80.5896 194.489L77.0638 198.015L75.9732 192.648ZM81.6139 184.04C81.0843 184.209 80.6946 184.343 80.4443 184.442C79.7232 184.721 79.1442 185.079 78.7077 185.515C78.0853 186.137 77.78 186.897 77.7916 187.793C77.8032 188.677 78.1231 189.433 78.7514 190.062C79.4439 190.754 80.2436 191.106 81.1513 191.117C82.0589 191.117 82.8558 190.774 83.5423 190.088C83.7168 189.913 83.8565 189.75 83.9612 189.599C84.0659 189.436 84.2521 189.087 84.5197 188.552L83.2458 187.278L82.1111 188.412L81.3519 187.653L83.2891 185.716L85.9422 188.368C85.6745 188.985 85.439 189.465 85.2352 189.808C84.9619 190.268 84.6333 190.69 84.2493 191.074C83.3357 191.987 82.2683 192.432 81.0465 192.409C79.8247 192.374 78.7574 191.9 77.8438 190.987C76.9478 190.091 76.5028 189.035 76.5088 187.819C76.5145 186.603 76.9654 185.547 77.8614 184.651C78.257 184.256 78.6932 183.935 79.1703 183.691C79.5077 183.517 80.0109 183.322 80.6802 183.106L81.6139 184.04ZM81.4838 181.273L82.3477 180.409L88.5088 186.57L87.6449 187.434L81.4838 181.273ZM88.4319 184.256C88.8159 184.197 89.1477 184.11 89.427 183.994C89.7063 183.866 89.9739 183.674 90.2295 183.418C90.5963 183.051 90.7824 182.667 90.7881 182.266C90.7941 181.853 90.6167 181.466 90.256 181.105C89.8893 180.739 89.4908 180.579 89.0603 180.626C88.6357 180.666 88.2341 180.875 87.8561 181.254C87.6872 181.422 87.5652 181.556 87.4894 181.655C87.414 181.742 87.2831 181.914 87.097 182.17L83.8417 178.915L86.6082 176.149L87.4284 176.969L85.4563 178.941L87.0532 180.556L87.3586 180.233C87.9288 179.663 88.5511 179.383 89.226 179.395C89.9009 179.395 90.5293 179.686 91.1111 180.268C91.6989 180.855 91.9894 181.513 91.9838 182.24C91.9778 182.967 91.6756 183.63 91.0762 184.23C90.8611 184.445 90.5991 184.631 90.2909 184.788C89.9767 184.939 89.6537 185.058 89.3223 185.146L88.4319 184.256ZM91.7214 170.599L92.3847 170.372L95.6047 179.928L94.9415 180.155L91.7214 170.599ZM97.8999 173.13C98.4408 173.671 98.8159 174.191 99.0254 174.692C99.3223 175.396 99.238 175.981 98.7726 176.446C98.3653 176.853 97.8212 176.92 97.1407 176.647C96.6343 176.443 96.14 176.1 95.6569 175.617C95.1509 175.111 94.7962 174.61 94.5924 174.116C94.3131 173.429 94.3889 172.871 94.8195 172.44C95.25 172.01 95.7881 171.908 96.4337 172.135C96.9224 172.31 97.4111 172.641 97.8999 173.13ZM98.2228 175.809C98.4728 175.559 98.4524 175.201 98.1615 174.736C98.0102 174.491 97.7426 174.177 97.3586 173.793C97.0039 173.438 96.6985 173.185 96.4425 173.034C95.9887 172.766 95.6396 172.755 95.3953 172.999C95.1625 173.232 95.1886 173.584 95.4739 174.055C95.6368 174.323 95.8928 174.631 96.2419 174.98C96.7362 175.474 97.1407 175.786 97.4549 175.914C97.769 176.042 98.025 176.007 98.2228 175.809ZM91.5906 174.814C92.0906 175.314 92.4545 175.823 92.6812 176.341C93.0014 177.068 92.9517 177.641 92.5328 178.06C92.0673 178.526 91.4859 178.613 90.7877 178.322C90.3046 178.118 89.787 177.74 89.2341 177.188C88.7747 176.728 88.4517 176.242 88.2655 175.73C88.0271 175.061 88.1114 174.523 88.5187 174.116C88.9492 173.685 89.4845 173.586 90.1245 173.819C90.6132 173.994 91.1019 174.325 91.5906 174.814ZM91.9221 177.502C92.1664 177.257 92.1403 176.9 91.8434 176.428C91.6689 176.149 91.4044 175.832 91.0494 175.477C90.6946 175.122 90.3889 174.869 90.1329 174.718C89.6795 174.451 89.3304 174.439 89.086 174.683C88.8533 174.916 88.8794 175.268 89.1643 175.739C89.3272 176.007 89.5832 176.315 89.9323 176.664C90.3106 177.042 90.6188 177.304 90.8575 177.45C91.317 177.734 91.6721 177.752 91.9221 177.502ZM97.3734 168.7C96.9429 168.793 96.5938 168.868 96.3262 168.926C95.8142 169.031 95.4884 169.014 95.3487 168.874C95.116 168.641 95.122 168.403 95.3664 168.159C95.4944 168.031 95.8113 168.027 96.3173 168.15C96.9573 168.301 97.3152 168.374 97.3907 168.368C97.2687 168.246 96.9806 168.045 96.5268 167.766C96.2824 167.615 96.1079 167.487 96.0032 167.382C95.8928 167.271 95.8258 167.158 95.8025 167.042C95.7793 166.914 95.823 166.794 95.9333 166.684C96.0381 166.579 96.1604 166.544 96.3001 166.579C96.4397 166.602 96.5645 166.669 96.6752 166.78C96.7856 166.89 96.8875 167.033 96.9806 167.207C97.1379 167.492 97.231 167.661 97.2599 167.713C97.2891 167.754 97.3385 167.815 97.4083 167.897C97.4781 167.978 97.5479 168.054 97.6178 168.124C97.6234 168.001 97.5508 167.638 97.3995 167.033C97.2831 166.567 97.318 166.242 97.5042 166.055C97.5973 165.962 97.6992 165.925 97.8096 165.942C97.9259 165.953 98.0307 166.006 98.1238 166.099C98.2577 166.233 98.3071 166.404 98.2722 166.614C98.2024 166.87 98.147 167.059 98.1065 167.181C98.0716 167.298 98.0395 167.452 98.0102 167.643C97.9986 167.713 97.9753 167.876 97.9404 168.132C98.0511 168.022 98.2461 167.734 98.5254 167.268C98.665 167.036 98.787 166.867 98.8917 166.762C99.0025 166.652 99.1245 166.582 99.2585 166.553C99.3981 166.518 99.5201 166.553 99.6248 166.658C99.7295 166.762 99.7789 166.881 99.7733 167.015C99.7673 167.149 99.7119 167.268 99.6075 167.373C99.4852 167.495 99.3106 167.623 99.0839 167.757C98.5776 168.054 98.2722 168.255 98.1675 168.359C98.7842 168.243 99.2613 168.161 99.5987 168.115C99.9362 168.057 100.151 168.074 100.244 168.167C100.349 168.272 100.41 168.391 100.428 168.525C100.445 168.647 100.402 168.761 100.297 168.865C100.163 168.999 99.8255 169.017 99.2846 168.918C98.9062 168.842 98.531 168.763 98.1587 168.682C98.275 168.798 98.5804 169.011 99.0751 169.319C99.3195 169.47 99.4996 169.604 99.616 169.721C99.7151 169.819 99.7673 169.936 99.7733 170.07C99.7789 170.192 99.7324 170.302 99.6336 170.401C99.5173 170.518 99.3921 170.555 99.2585 170.515C99.1245 170.474 98.9936 170.39 98.8656 170.262C98.72 170.116 98.5455 169.878 98.342 169.546C98.1326 169.209 97.9869 168.988 97.9059 168.883C97.9059 168.918 97.9929 169.29 98.1675 170C98.2955 170.523 98.275 170.87 98.1065 171.038C97.897 171.248 97.67 171.23 97.4256 170.986C97.3325 170.893 97.3124 170.675 97.3646 170.331C97.446 169.866 97.5247 169.398 97.6001 168.926C97.286 169.403 96.9718 169.875 96.6576 170.34C96.5589 170.439 96.4425 170.503 96.3085 170.532C96.1749 170.55 96.0585 170.509 95.9598 170.41C95.8607 170.311 95.8053 170.197 95.7937 170.07C95.7821 169.93 95.8258 169.811 95.9249 169.712C96.0585 169.578 96.2913 169.421 96.6227 169.24C96.9485 169.054 97.1728 168.9 97.2948 168.778L97.3734 168.7ZM98.7468 164.01L99.6283 163.128L104.96 168.46L107.692 165.729L108.521 166.558L104.908 170.171L98.7468 164.01ZM108.14 161.842C107.902 161.604 107.672 161.461 107.451 161.415C107.177 161.362 106.927 161.45 106.7 161.676C106.508 161.868 106.354 162.156 106.238 162.54C106.145 162.831 106.084 163.16 106.055 163.526L105.234 162.689C105.275 162.334 105.374 161.985 105.531 161.641C105.682 161.292 105.877 160.999 106.116 160.76C106.616 160.26 107.154 160.094 107.73 160.263C108.16 160.391 108.649 160.728 109.196 161.275C109.324 161.403 109.531 161.621 109.816 161.929C110.095 162.232 110.24 162.389 110.252 162.401C110.374 162.523 110.496 162.628 110.618 162.715C110.741 162.802 110.848 162.817 110.941 162.758L111.212 162.209L111.805 162.802C111.736 163.081 111.654 163.326 111.561 163.535C111.474 163.75 111.349 163.939 111.186 164.102C111.11 164.178 111 164.219 110.854 164.225C110.72 164.23 110.598 164.213 110.488 164.172C110.401 164.446 110.322 164.664 110.252 164.827C110.147 165.071 110.022 165.266 109.877 165.411C109.522 165.766 109.161 165.958 108.795 165.987C108.393 166.017 108.015 165.854 107.66 165.499C107.282 165.121 107.215 164.536 107.459 163.745C107.593 163.308 107.867 162.721 108.28 161.982L108.14 161.842ZM108.777 162.479C108.533 162.886 108.37 163.236 108.288 163.526C108.155 164.009 108.207 164.37 108.446 164.609C108.574 164.737 108.737 164.8 108.934 164.8C109.132 164.8 109.298 164.734 109.432 164.6C109.548 164.483 109.644 164.329 109.72 164.137C109.801 163.893 109.862 163.715 109.903 163.605L108.777 162.479ZM108.3 157.563C107.881 157.145 107.701 156.661 107.759 156.115C107.823 155.562 108.07 155.07 108.501 154.64C108.931 154.209 109.397 153.988 109.897 153.977C110.397 153.953 110.863 154.157 111.293 154.587C111.608 154.902 111.817 155.32 111.922 155.844C112.026 156.368 112.018 156.859 111.896 157.319L113.545 157.52C113.475 157.043 113.379 156.58 113.257 156.132L114.156 155.233C114.423 156.025 114.624 156.824 114.758 157.633L117.184 157.895L116.154 158.925L114.793 158.785C114.781 159.367 114.711 159.85 114.583 160.234C114.432 160.699 114.173 161.115 113.807 161.482C113.388 161.901 112.905 162.133 112.358 162.18C111.817 162.22 111.34 162.034 110.927 161.621C110.543 161.237 110.339 160.725 110.316 160.085C110.304 159.69 110.374 159.125 110.525 158.392C109.885 158.311 109.408 158.206 109.094 158.078C108.78 157.95 108.516 157.779 108.3 157.563ZM110.796 157.214L110.831 156.97C110.872 156.627 110.874 156.356 110.84 156.158C110.793 155.891 110.665 155.652 110.456 155.443C110.269 155.257 110.066 155.164 109.845 155.164C109.624 155.152 109.417 155.242 109.225 155.434C109.039 155.62 108.943 155.838 108.937 156.088C108.931 156.339 109.024 156.56 109.216 156.752C109.327 156.862 109.597 156.987 110.028 157.127C110.458 157.267 110.714 157.296 110.796 157.214ZM111.599 158.506C111.482 159.041 111.421 159.428 111.415 159.666C111.404 160.132 111.526 160.493 111.782 160.749C111.951 160.917 112.166 160.987 112.428 160.958C112.684 160.923 112.899 160.818 113.074 160.644C113.3 160.417 113.46 160.117 113.554 159.745C113.629 159.448 113.664 159.099 113.658 158.698L111.599 158.506ZM117.734 156.35C117.92 155.606 117.975 154.846 117.9 154.073C117.824 153.299 117.629 152.545 117.315 151.812C117.233 152.371 116.992 152.851 116.591 153.252C116.084 153.758 115.497 153.997 114.828 153.968C114.159 153.939 113.568 153.668 113.056 153.156C112.504 152.604 112.236 151.987 112.254 151.306C112.271 150.614 112.559 149.989 113.117 149.43C113.699 148.848 114.391 148.598 115.194 148.679C115.945 148.755 116.62 149.093 117.219 149.692C117.882 150.355 118.382 151.228 118.72 152.31C119.04 153.328 119.162 154.34 119.086 155.347C119.075 155.521 119.049 155.722 119.008 155.949C118.973 156.135 118.932 156.338 118.886 156.56L117.734 156.35ZM115.91 152.362C116.102 152.17 116.259 151.92 116.381 151.612C116.503 151.292 116.541 151.004 116.494 150.748L116.154 150.355C115.817 150.018 115.436 149.84 115.011 149.823C114.586 149.805 114.211 149.959 113.885 150.285C113.571 150.599 113.423 150.951 113.44 151.341C113.458 151.719 113.623 152.066 113.938 152.38C114.217 152.659 114.545 152.795 114.924 152.79C115.302 152.784 115.63 152.641 115.91 152.362ZM117.873 144.884L118.292 144.465L124.453 150.626L123.632 151.446L118.789 146.603L118.649 148.855L117.567 148.471L117.873 144.884ZM120.316 142.441L121.659 141.097C122.276 140.481 122.87 140.12 123.44 140.015C124.115 139.887 124.749 140.12 125.342 140.713C125.959 141.33 126.113 142.037 125.805 142.834C126.328 142.462 126.829 142.281 127.306 142.293C127.783 142.293 128.245 142.517 128.693 142.965C129.31 143.581 129.522 144.277 129.33 145.05C129.173 145.673 128.763 146.316 128.1 146.979L126.476 148.602L120.316 142.441ZM127.812 143.881C127.492 143.561 127.175 143.407 126.86 143.419C126.488 143.43 126.017 143.721 125.447 144.291L124.67 145.085L126.52 146.935L126.573 146.883L127.314 146.176C127.849 145.641 128.138 145.196 128.178 144.841C128.213 144.48 128.091 144.16 127.812 143.881ZM124.234 143.829C124.623 143.439 124.85 143.096 124.914 142.799C125.002 142.409 124.862 142.031 124.496 141.665C124.222 141.391 123.922 141.272 123.597 141.307C123.271 141.342 122.965 141.502 122.681 141.787L122.026 142.441L123.824 144.239L124.234 143.829Z" fill="#F19B2B"/>
<path d="M71.2694 163.045C70.8389 163.139 70.4898 163.214 70.2221 163.272C69.7102 163.377 69.3843 163.36 69.2447 163.22C69.012 162.987 69.018 162.749 69.2623 162.504C69.3903 162.376 69.7073 162.373 70.2133 162.495C70.8533 162.647 71.2112 162.72 71.2867 162.714C71.1647 162.592 70.8766 162.391 70.4228 162.112C70.1784 161.96 70.0039 161.832 69.8991 161.728C69.7888 161.617 69.7218 161.503 69.6985 161.387C69.6752 161.259 69.719 161.14 69.8293 161.03C69.9341 160.925 70.0564 160.89 70.196 160.925C70.3357 160.948 70.4609 161.015 70.5712 161.125C70.6819 161.236 70.7835 161.379 70.8766 161.553C71.0338 161.838 71.1269 162.007 71.1559 162.059C71.1851 162.1 71.2345 162.161 71.3043 162.243C71.3741 162.324 71.4439 162.399 71.5138 162.469C71.5194 162.347 71.4468 161.984 71.2955 161.379C71.1791 160.913 71.214 160.587 71.4002 160.401C71.4933 160.308 71.5952 160.27 71.7056 160.288C71.8219 160.299 71.9267 160.352 72.0197 160.445C72.1537 160.579 72.2031 160.75 72.1682 160.96C72.0984 161.216 72.043 161.405 72.0025 161.527C71.9676 161.643 71.9355 161.798 71.9066 161.989C71.8949 162.059 71.8716 162.222 71.8367 162.478C71.9471 162.367 72.1421 162.08 72.4214 161.614C72.561 161.381 72.683 161.213 72.7877 161.108C72.8984 160.998 73.0204 160.928 73.1544 160.898C73.2941 160.864 73.4161 160.898 73.5208 161.003C73.6255 161.108 73.6749 161.227 73.6692 161.361C73.6633 161.495 73.6082 161.614 73.5035 161.719C73.3812 161.841 73.2066 161.969 72.9799 162.103C72.4735 162.399 72.1682 162.6 72.0635 162.705C72.6802 162.588 73.1573 162.507 73.4947 162.46C73.8322 162.402 74.0472 162.42 74.1403 162.513C74.2451 162.618 74.3064 162.737 74.3237 162.871C74.3413 162.993 74.2976 163.106 74.1929 163.211C74.0589 163.345 73.7214 163.362 73.1805 163.263C72.8025 163.188 72.427 163.109 72.0547 163.028C72.171 163.144 72.4767 163.356 72.9711 163.665C73.2154 163.816 73.3956 163.95 73.512 164.066C73.6111 164.165 73.6633 164.282 73.6692 164.415C73.6749 164.538 73.6283 164.648 73.5296 164.747C73.4133 164.864 73.2881 164.901 73.1544 164.86C73.0204 164.82 72.8896 164.736 72.7616 164.608C72.6164 164.462 72.4418 164.224 72.238 163.892C72.0286 163.554 71.8833 163.333 71.8018 163.228C71.8018 163.263 71.8889 163.636 72.0635 164.346C72.1915 164.869 72.171 165.215 72.0025 165.384C71.793 165.593 71.5659 165.576 71.3216 165.332C71.2288 165.239 71.2084 165.02 71.2606 164.677C71.342 164.212 71.4207 163.744 71.4961 163.272C71.1823 163.749 70.8681 164.22 70.5539 164.686C70.4549 164.785 70.3385 164.849 70.2049 164.878C70.0709 164.895 69.9545 164.855 69.8558 164.756C69.7567 164.657 69.7013 164.543 69.6897 164.415C69.6781 164.276 69.7218 164.157 69.8209 164.057C69.9545 163.924 70.1872 163.767 70.519 163.586C70.8449 163.4 71.0688 163.246 71.1908 163.124L71.2694 163.045ZM77.4862 162.239L76.6396 163.086L76.055 162.501L76.9887 161.567L75.5314 159.656L74.5977 160.59L74.0042 159.996L75.0254 158.975L73.4806 156.925L74.0829 156.322L75.6273 158.373L76.7094 157.291L75.165 155.24L75.7669 154.638L77.3117 156.689L78.036 155.965L78.6206 156.549L77.8092 157.361L79.2666 159.289L80.0695 158.487L80.6541 159.071L79.7726 159.953L81.3173 162.003L80.7151 162.605L79.1703 160.555L78.0885 161.637L79.6329 163.688L79.0307 164.29L77.4862 162.239ZM76.1336 159.036L77.591 160.965L78.6643 159.891L77.207 157.963L76.1336 159.036ZM77.0578 153.941L80.2341 150.764L81.0635 151.593L78.7595 153.897L80.4002 155.538L82.7038 153.234L83.5067 154.037L81.2031 156.341L84.0913 159.229L83.219 160.102L77.0578 153.941ZM85.8575 155.072C86.2415 155.014 86.5733 154.927 86.8526 154.81C87.1315 154.682 87.3992 154.49 87.6551 154.234C88.0219 153.868 88.208 153.484 88.2137 153.082C88.2197 152.669 88.0423 152.282 87.6816 151.922C87.3149 151.555 86.9164 151.395 86.4859 151.442C86.0614 151.482 85.6597 151.692 85.2817 152.07C85.1128 152.239 84.9908 152.372 84.915 152.471C84.8396 152.559 84.7087 152.73 84.5226 152.986L81.2673 149.731L84.0339 146.965L84.854 147.785L82.8819 149.757L84.4788 151.372L84.7842 151.049C85.3544 150.479 85.9767 150.2 86.6516 150.211C87.3265 150.211 87.9549 150.502 88.5367 151.084C89.1241 151.671 89.415 152.329 89.4094 153.056C89.4034 153.783 89.1008 154.446 88.5018 155.046C88.2867 155.261 88.0247 155.447 87.7165 155.604C87.4023 155.756 87.0793 155.875 86.7479 155.962L85.8575 155.072ZM85.1939 145.805L86.0229 144.976L88.4661 147.419C88.542 146.832 88.7803 146.337 89.1819 145.936C89.6879 145.429 90.299 145.208 91.0145 145.273C91.6894 145.331 92.2884 145.622 92.8121 146.145C93.5219 146.855 93.8854 147.608 93.903 148.405C93.9203 149.202 93.5712 149.959 92.8558 150.674C92.6696 150.86 92.469 151.026 92.2535 151.172C92.0384 151.317 91.6689 151.512 91.1453 151.756L85.1939 145.805ZM92.1139 149.81C92.5095 149.415 92.7017 148.955 92.69 148.432C92.6784 147.908 92.4746 147.448 92.079 147.053C91.7183 146.692 91.3374 146.486 90.9358 146.433C90.4937 146.375 90.098 146.52 89.7489 146.87C89.5511 147.067 89.3999 147.312 89.2951 147.603C89.2719 147.672 89.2253 147.841 89.1555 148.109L91.4157 150.369C91.6834 150.194 91.9161 150.008 92.1139 149.81ZM92.5236 141.791C92.0931 141.884 91.744 141.96 91.4764 142.018C90.9644 142.123 90.6386 142.105 90.4989 141.966C90.2662 141.733 90.2722 141.494 90.5162 141.25C90.6442 141.122 90.9616 141.119 91.4676 141.242C92.1075 141.393 92.4654 141.465 92.5409 141.459C92.4189 141.337 92.1308 141.137 91.677 140.858C91.4326 140.706 91.2581 140.578 91.1534 140.474C91.043 140.363 90.976 140.25 90.9527 140.133C90.9295 140.005 90.9732 139.886 91.0836 139.775C91.1883 139.671 91.3106 139.636 91.4503 139.671C91.5899 139.694 91.7147 139.761 91.8255 139.871C91.9358 139.982 92.0377 140.124 92.1308 140.299C92.2877 140.584 92.3808 140.753 92.4101 140.805C92.439 140.846 92.4887 140.907 92.5585 140.988C92.6283 141.07 92.6982 141.146 92.768 141.215C92.7736 141.093 92.701 140.73 92.5497 140.124C92.4334 139.659 92.4683 139.333 92.6544 139.147C92.7475 139.054 92.8494 139.016 92.9598 139.033C93.0762 139.045 93.1809 139.098 93.274 139.191C93.408 139.324 93.4573 139.496 93.4224 139.706C93.3526 139.962 93.2973 140.151 93.2567 140.273C93.2218 140.389 93.1897 140.543 93.1604 140.735C93.1488 140.805 93.1255 140.968 93.0906 141.224C93.2013 141.114 93.3963 140.825 93.6756 140.36C93.8152 140.127 93.9372 139.959 94.042 139.854C94.1523 139.743 94.2747 139.673 94.4083 139.645C94.548 139.61 94.6703 139.645 94.775 139.749C94.8798 139.854 94.9291 139.973 94.9235 140.107C94.9175 140.241 94.8621 140.36 94.7574 140.465C94.6354 140.587 94.4609 140.715 94.2338 140.849C93.7278 141.146 93.4224 141.346 93.3177 141.451C93.9344 141.335 94.4115 141.253 94.7489 141.207C95.0864 141.148 95.3015 141.166 95.3946 141.259C95.4993 141.364 95.5603 141.483 95.5779 141.617C95.5952 141.739 95.5518 141.852 95.4471 141.957C95.3131 142.091 94.9757 142.108 94.4348 142.01C94.0564 141.934 93.6812 141.855 93.3089 141.774C93.4252 141.89 93.7306 142.103 94.2253 142.411C94.4697 142.562 94.6499 142.696 94.7662 142.812C94.8653 142.911 94.9175 143.027 94.9235 143.161C94.9291 143.283 94.8826 143.394 94.7838 143.493C94.6675 143.609 94.5423 143.647 94.4083 143.606C94.2747 143.566 94.1439 143.481 94.0159 143.353C93.8702 143.208 93.6957 142.969 93.4922 142.638C93.2828 142.3 93.1372 142.079 93.0557 141.975C93.0557 142.01 93.1432 142.382 93.3177 143.091C93.4457 143.615 93.4252 143.961 93.2567 144.13C93.0473 144.34 92.8202 144.322 92.5758 144.078C92.4827 143.984 92.4623 143.766 92.5148 143.423C92.5963 142.958 92.6749 142.489 92.7504 142.018C92.4362 142.495 92.122 142.966 91.8078 143.432C91.7091 143.531 91.5927 143.595 91.4587 143.624C91.3251 143.641 91.2087 143.6 91.1097 143.502C91.0109 143.403 90.9556 143.289 90.9439 143.161C90.9323 143.021 90.976 142.902 91.0747 142.804C91.2087 142.67 91.4415 142.513 91.7729 142.332C92.0987 142.146 92.3226 141.992 92.445 141.87L92.5236 141.791ZM97.737 137.381C98.3128 136.805 99.0137 136.529 99.8399 136.552C100.666 136.563 101.37 136.86 101.952 137.442C102.539 138.03 102.816 138.736 102.781 139.562C102.746 140.389 102.435 141.096 101.847 141.683C101.294 142.236 100.599 142.512 99.7613 142.512C98.9235 142.512 98.2285 142.236 97.6756 141.683C97.0589 141.066 96.7623 140.351 96.7856 139.536C96.8029 138.716 97.1202 137.998 97.737 137.381ZM101.088 140.871C101.46 140.499 101.652 140.051 101.664 139.527C101.675 139.004 101.498 138.559 101.132 138.193C100.771 137.832 100.329 137.651 99.805 137.651C99.2814 137.651 98.8392 137.832 98.4785 138.193C98.1005 138.571 97.9055 139.027 97.8939 139.562C97.8822 140.086 98.0656 140.537 98.4436 140.915C98.787 141.258 99.226 141.424 99.7613 141.413C100.297 141.401 100.739 141.22 101.088 140.871ZM103.828 135.409L100.285 135.025L101.332 133.978L103.775 134.275L103.487 131.822L104.569 130.74L104.927 134.31L108.679 134.641L107.606 135.714L104.98 135.479L105.215 138.105L104.142 139.179L103.828 135.409ZM108.36 131.26C107.715 130.812 107.045 130.341 106.353 129.846C105.661 129.34 105.073 128.846 104.591 128.363C104.311 128.084 104.119 127.839 104.014 127.63C103.84 127.281 103.863 126.996 104.084 126.775C104.288 126.571 104.561 126.559 104.905 126.74C105.126 126.856 105.367 127.045 105.629 127.307C106.118 127.795 106.63 128.401 107.165 129.122C107.782 129.995 108.244 130.644 108.553 131.068L108.36 131.26ZM109.111 131.854C109.286 131.679 109.495 131.592 109.739 131.592C109.984 131.58 110.19 131.659 110.359 131.827C110.539 132.008 110.635 132.22 110.647 132.464C110.658 132.697 110.571 132.907 110.385 133.093C110.228 133.25 110.024 133.337 109.774 133.354C109.524 133.36 109.321 133.285 109.163 133.128C108.983 132.947 108.884 132.738 108.867 132.499C108.849 132.249 108.931 132.034 109.111 131.854ZM107.931 127.379C109.356 127.897 110.639 128.383 111.779 128.836L110.278 125.032L111.194 124.115L114.641 133.182L113.725 134.099L112.215 130.163L107.014 128.295L107.931 127.379Z" fill="#F19B2B" fill-opacity="0.5"/>
<path d="M5.30582 116.199C5.72468 115.78 6.20754 115.6 6.75441 115.658C7.30712 115.722 7.79869 115.969 8.22923 116.4C8.65973 116.83 8.88082 117.296 8.89245 117.796C8.91572 118.296 8.71209 118.762 8.28159 119.192C7.96742 119.506 7.54855 119.716 7.02496 119.821C6.50134 119.925 6.00976 119.916 5.55014 119.794L5.34943 121.444C5.82648 121.374 6.289 121.278 6.73699 121.156L7.63582 122.054C6.8446 122.322 6.04467 122.523 5.236 122.657L4.97419 125.083L3.94446 124.053L4.08406 122.691C3.5023 122.68 3.01942 122.61 2.63545 122.482C2.17003 122.331 1.75406 122.072 1.38754 121.705C0.968661 121.286 0.735953 120.804 0.689412 120.257C0.648686 119.716 0.834853 119.239 1.24791 118.825C1.63189 118.441 2.14385 118.238 2.7838 118.215C3.17941 118.203 3.74372 118.273 4.47676 118.424C4.55821 117.784 4.66294 117.307 4.79094 116.993C4.91893 116.679 5.09055 116.414 5.30582 116.199ZM5.65486 118.695L5.89922 118.73C6.24245 118.77 6.51297 118.773 6.71079 118.738C6.97842 118.692 7.21692 118.564 7.42637 118.354C7.61255 118.168 7.70564 117.964 7.70564 117.744C7.71728 117.523 7.62708 117.316 7.43508 117.124C7.24894 116.938 7.03078 116.842 6.7806 116.836C6.53043 116.83 6.30938 116.923 6.11738 117.115C6.00684 117.226 5.88177 117.496 5.74213 117.927C5.6025 118.357 5.57341 118.613 5.65486 118.695ZM4.36333 119.498C3.8281 119.381 3.44121 119.32 3.20268 119.314C2.73726 119.303 2.37656 119.425 2.12058 119.681C1.95186 119.849 1.88205 120.065 1.91114 120.327C1.94604 120.583 2.05077 120.798 2.2253 120.973C2.45219 121.199 2.75181 121.359 3.12414 121.452C3.42085 121.528 3.76992 121.563 4.17133 121.557L4.36333 119.498ZM12.069 119.855L11.4756 123.381L15.0012 122.787L16.0832 123.87L11.0567 124.655L7.80169 127.91L6.92031 127.029L10.1753 123.774L10.9956 118.782L12.069 119.855ZM21.0663 128.416L21.2931 129.08L11.7375 132.3L11.5106 131.636L21.0663 128.416ZM18.5355 134.595C17.9945 135.136 17.4738 135.511 16.9734 135.72C16.2695 136.017 15.6848 135.933 15.2194 135.468C14.8122 135.06 14.7452 134.516 15.0187 133.836C15.2223 133.329 15.5655 132.835 16.0484 132.352C16.5546 131.846 17.0549 131.491 17.5494 131.287C18.2359 131.008 18.7944 131.084 19.2249 131.514C19.6554 131.945 19.7573 132.483 19.5304 133.129C19.3558 133.617 19.0242 134.106 18.5355 134.595ZM15.8564 134.918C16.1066 135.168 16.4644 135.147 16.9298 134.857C17.1742 134.705 17.4883 134.438 17.8723 134.054C18.2272 133.699 18.4803 133.394 18.6315 133.138C18.8991 132.684 18.9108 132.335 18.6664 132.09C18.4337 131.858 18.0817 131.884 17.6105 132.169C17.3429 132.332 17.0345 132.587 16.6855 132.937C16.191 133.431 15.8797 133.836 15.7517 134.15C15.6237 134.464 15.6586 134.72 15.8564 134.918ZM16.8513 128.285C16.3509 128.786 15.8419 129.149 15.3241 129.376C14.5969 129.696 14.0238 129.647 13.605 129.228C13.1396 128.762 13.0523 128.181 13.3432 127.482C13.5468 127 13.9249 126.482 14.4776 125.929C14.9372 125.47 15.423 125.147 15.935 124.961C16.604 124.722 17.1422 124.806 17.5494 125.214C17.9799 125.644 18.0788 126.179 17.8461 126.819C17.6716 127.308 17.34 127.797 16.8513 128.285ZM14.1635 128.617C14.4078 128.861 14.7656 128.835 15.2368 128.538C15.5161 128.364 15.8332 128.099 16.188 127.744C16.5429 127.389 16.796 127.084 16.9473 126.828C17.2149 126.374 17.2265 126.025 16.9822 125.781C16.7495 125.548 16.3975 125.574 15.9263 125.859C15.6586 126.022 15.3503 126.278 15.0012 126.627C14.6231 127.006 14.3613 127.314 14.2158 127.552C13.9307 128.012 13.9133 128.367 14.1635 128.617ZM26.9277 137.611C26.759 137.082 26.6251 136.692 26.5263 136.442C26.247 135.72 25.8892 135.142 25.4529 134.705C24.8304 134.083 24.0712 133.778 23.1752 133.789C22.2909 133.801 21.5346 134.121 20.9063 134.749C20.214 135.441 19.862 136.241 19.8504 137.149C19.8504 138.056 20.1936 138.853 20.8801 139.54C21.0547 139.714 21.2176 139.854 21.3688 139.959C21.5317 140.063 21.8808 140.25 22.416 140.517L23.6901 139.243L22.5556 138.109L23.3148 137.349L25.2521 139.287L22.5993 141.94C21.9826 141.672 21.5026 141.437 21.1594 141.233C20.6997 140.959 20.278 140.631 19.894 140.247C18.9806 139.333 18.5356 138.266 18.5588 137.044C18.5937 135.822 19.0679 134.755 19.9813 133.841C20.8772 132.945 21.9331 132.5 23.149 132.506C24.3649 132.512 25.4209 132.963 26.3168 133.859C26.7124 134.255 27.0324 134.691 27.2767 135.168C27.4513 135.505 27.6462 136.008 27.8614 136.678L26.9277 137.611Z" fill="#F19B2B"/>
<path d="M27.33 139.427L28.1677 140.265L27.9321 140.501C28.1765 140.524 28.4121 140.597 28.639 140.719C28.8717 140.835 29.084 140.989 29.276 141.181C29.8403 141.746 30.0789 142.397 29.9916 143.136C29.9102 143.823 29.5786 144.457 28.9968 145.038C28.3917 145.644 27.7489 145.995 27.0682 146.095C26.3061 146.205 25.6341 145.969 25.0523 145.388C24.6742 145.01 24.4444 144.57 24.3629 144.07L21.9108 146.522L21.073 145.684L27.33 139.427ZM25.6457 144.498C26.0181 144.87 26.4486 145.01 26.9373 144.916C27.3678 144.835 27.778 144.599 28.1677 144.209C28.5343 143.843 28.7524 143.445 28.8223 143.014C28.8979 142.531 28.7553 142.109 28.3946 141.749C28.255 141.609 28.0805 141.487 27.8711 141.382C27.6616 141.278 27.4551 141.211 27.2515 141.181L25.0785 143.354C25.1542 143.639 25.224 143.86 25.2879 144.018C25.3578 144.169 25.4771 144.329 25.6457 144.498ZM31.9196 146.932C32.1581 146.693 32.3006 146.463 32.3472 146.242C32.3996 145.969 32.3123 145.719 32.0854 145.492C31.8934 145.3 31.6054 145.146 31.2214 145.029C30.9306 144.936 30.6019 144.875 30.2353 144.846L31.0731 144.026C31.428 144.066 31.7771 144.165 32.1203 144.322C32.4694 144.474 32.7632 144.669 33.0017 144.907C33.502 145.407 33.6678 145.945 33.4991 146.522C33.3711 146.952 33.0337 147.441 32.4868 147.988C32.3588 148.116 32.1407 148.322 31.8323 148.607C31.5298 148.886 31.3727 149.032 31.3611 149.043C31.2389 149.166 31.1342 149.288 31.0469 149.41C30.9597 149.532 30.9451 149.64 31.0033 149.733L31.5531 150.004L30.9597 150.597C30.6804 150.527 30.4361 150.446 30.2266 150.353C30.0114 150.265 29.8223 150.14 29.6594 149.977C29.5838 149.902 29.543 149.791 29.5372 149.646C29.5314 149.512 29.5488 149.39 29.5896 149.279C29.3162 149.192 29.098 149.113 28.9351 149.043C28.6907 148.939 28.4958 148.814 28.3504 148.668C27.9955 148.313 27.8035 147.953 27.7744 147.586C27.7454 147.185 27.9083 146.806 28.2631 146.452C28.6413 146.073 29.226 146.007 30.0172 146.251C30.4535 146.385 31.0411 146.658 31.78 147.071L31.9196 146.932ZM31.2826 147.569C30.8753 147.324 30.5262 147.162 30.2353 147.08C29.7525 146.946 29.3918 146.999 29.1533 147.237C29.0253 147.365 28.9613 147.528 28.9613 147.726C28.9613 147.924 29.0282 148.089 29.162 148.223C29.2783 148.34 29.4325 148.435 29.6245 148.511C29.8688 148.593 30.0463 148.654 30.1568 148.694L31.2826 147.569ZM32.2191 149.989C32.2947 150.379 32.3791 150.696 32.4722 150.94C32.606 151.306 32.7747 151.592 32.9783 151.795C33.1179 151.935 33.2576 152.022 33.3972 152.057C33.5368 152.092 33.6735 152.042 33.8073 151.909C33.9877 151.728 33.9673 151.178 33.7463 150.259C33.5252 149.34 33.6328 148.662 34.0692 148.226C34.4182 147.877 34.8022 147.714 35.2211 147.737C35.6516 147.761 36.0413 147.947 36.3903 148.296C36.5825 148.488 36.7454 148.709 36.8791 148.959C37.0187 149.203 37.1262 149.468 37.2021 149.753L36.3466 150.626C36.3177 150.376 36.2363 150.096 36.1026 149.788C35.9746 149.474 35.829 149.235 35.6661 149.072C35.5614 148.968 35.4422 148.901 35.3082 148.872C35.1803 148.848 35.064 148.889 34.9592 148.994C34.7731 149.18 34.7906 149.733 35.0116 150.652C35.2443 151.571 35.1425 152.249 34.7062 152.685C34.3571 153.034 33.9528 153.2 33.4932 153.183C33.0452 153.165 32.6438 152.979 32.2889 152.624C32.0562 152.391 31.8642 152.13 31.7129 151.839C31.5617 151.56 31.4337 151.239 31.329 150.879L32.2191 149.989ZM35.3893 153.159C35.4651 153.549 35.5494 153.866 35.6425 154.11C35.7761 154.477 35.945 154.762 36.1485 154.965C36.2881 155.105 36.4277 155.192 36.5674 155.227C36.707 155.262 36.8438 155.213 36.9774 155.079C37.158 154.898 37.1375 154.349 36.9164 153.429C36.6954 152.51 36.8029 151.833 37.2394 151.396C37.5885 151.047 37.9725 150.884 38.3914 150.908C38.8219 150.931 39.2116 151.117 39.5607 151.466C39.7525 151.658 39.9154 151.879 40.0494 152.129C40.189 152.373 40.2966 152.638 40.3724 152.924L39.5169 153.796C39.488 153.546 39.4066 153.267 39.2726 152.958C39.1446 152.644 38.9993 152.406 38.8364 152.243C38.7317 152.138 38.6125 152.071 38.4785 152.042C38.3505 152.019 38.2341 152.059 38.1294 152.164C37.9432 152.35 37.9609 152.903 38.182 153.822C38.4147 154.742 38.3128 155.419 37.8762 155.855C37.5275 156.205 37.1231 156.37 36.6633 156.353C36.2155 156.335 35.8142 156.149 35.4591 155.794C35.2264 155.562 35.0344 155.3 34.8832 155.009C34.7319 154.73 34.6039 154.41 34.4992 154.049L35.3893 153.159ZM41.8057 153.903C41.2355 155.253 40.9245 155.989 40.872 156.111C40.616 156.705 40.4154 157.144 40.2701 157.429L43.7518 155.849L44.4238 156.539C44.1622 157.115 43.8946 157.708 43.621 158.319C43.3477 158.93 43.0917 159.494 42.853 160.012C43.4348 159.733 44.0194 159.468 44.6072 159.218C45.0145 159.043 45.6047 158.796 46.3787 158.476L47.2863 159.384L41.5441 161.652L41.1862 161.295C41.5236 160.422 41.7796 159.77 41.9542 159.34C42.2683 158.56 42.5652 157.926 42.8442 157.438C42.2511 157.717 41.6079 157.999 40.9157 158.284C40.049 158.639 39.4002 158.903 38.9697 159.078L38.6033 158.712L40.9245 153.022L41.8057 153.903ZM49.866 161.772C50.4422 162.347 50.7183 163.048 50.695 163.874C50.6834 164.701 50.3868 165.404 49.805 165.986C49.2172 166.574 48.5106 166.85 47.6844 166.815C46.8583 166.78 46.1513 166.469 45.5638 165.882C45.0113 165.329 44.7348 164.634 44.7348 163.796C44.7348 162.958 45.0113 162.263 45.5638 161.71C46.1805 161.094 46.896 160.797 47.7105 160.82C48.531 160.838 49.2493 161.155 49.866 161.772ZM46.3755 165.122C46.7479 165.495 47.1957 165.687 47.7193 165.699C48.243 165.71 48.6879 165.532 49.0543 165.166C49.415 164.805 49.5956 164.363 49.5956 163.84C49.5956 163.316 49.415 162.874 49.0543 162.513C48.6763 162.135 48.2197 161.94 47.6844 161.928C47.1608 161.917 46.7098 162.1 46.3318 162.478C45.9884 162.822 45.8226 163.261 45.8343 163.796C45.8459 164.331 46.0265 164.773 46.3755 165.122ZM52.7017 164.799L53.5307 165.628L52.9023 166.256C53.1527 166.181 53.458 166.172 53.8188 166.23C54.1851 166.282 54.4559 166.396 54.6305 166.571C54.8107 166.751 54.9415 166.963 55.0229 167.208C55.0755 167.365 55.1248 167.612 55.1714 167.949L53.9235 168.202C53.9175 167.999 53.9002 167.836 53.871 167.714C53.8244 167.516 53.7518 167.368 53.653 167.269C53.3272 166.943 52.9228 166.87 52.4401 167.05C52.085 167.184 51.7214 167.438 51.3491 167.81L49.5254 169.634L48.6961 168.805L52.7017 164.799ZM60.4707 168.257L61.3001 169.086L55.1389 175.247L54.3099 174.418L54.5194 174.191C54.2983 174.157 54.0656 174.075 53.8212 173.947C53.5769 173.831 53.3762 173.694 53.219 173.537C52.6255 172.944 52.3784 172.272 52.4774 171.521C52.5645 170.84 52.9136 170.195 53.5243 169.584C54.1178 168.99 54.7609 168.656 55.4531 168.58C56.2095 168.499 56.8784 168.749 57.4602 169.331C57.6231 169.494 57.7571 169.68 57.8618 169.889C57.9721 170.093 58.0652 170.325 58.1411 170.587L60.4707 168.257ZM57.3992 171.329C57.3992 170.898 57.2363 170.52 56.9104 170.195C56.5208 169.805 56.0903 169.648 55.6188 169.723C55.1534 169.805 54.7172 170.049 54.3099 170.456C53.9376 170.829 53.7221 171.236 53.664 171.678C53.6001 172.173 53.7514 172.603 54.1178 172.97C54.2401 173.092 54.4119 173.211 54.6329 173.328C54.8597 173.438 55.0547 173.499 55.2176 173.511L57.3992 171.329Z" fill="#282828"/>
<path d="M61.2384 175.098L61.8928 169.679L63.0183 170.805L62.5123 174.941L66.6925 174.479L67.8181 175.604L62.3727 176.233L61.7271 181.835L60.61 180.718L61.0899 176.364L56.7003 176.809L55.5483 175.657L61.2384 175.098ZM68.5956 176.382L71.9118 179.698L71.0913 180.518L68.6654 178.092L66.798 179.96L69.1629 182.325L68.3427 183.145L65.9778 180.78L64.1276 182.63L66.6583 185.161L65.8554 185.964L62.4348 182.543L68.5956 176.382Z" fill="#F19B2B" fill-opacity="0.5"/>
<path d="M153.04 103.455L154.489 104.904L154.183 106.745L153.415 105.977L153.293 104.633L151.967 104.528L151.19 103.752L153.04 103.455ZM152.473 106.169L154.227 107.923C155.262 108.959 155.867 110.023 156.042 111.117C156.24 112.35 155.836 113.47 154.829 114.477C153.956 115.349 153.005 115.829 151.975 115.917C150.952 115.998 149.963 115.661 149.008 114.904C148.752 114.695 148.52 114.497 148.31 114.311C148.113 114.125 147.859 113.878 147.551 113.569L146.312 112.33L152.473 106.169ZM149.113 113.473C149.846 114.206 150.611 114.605 151.408 114.669C152.269 114.739 153.057 114.416 153.773 113.7C154.5 112.973 154.847 112.202 154.812 111.388C154.777 110.573 154.393 109.799 153.66 109.066L152.491 107.897L148.013 112.374L149.113 113.473ZM158.626 112.322L159.499 113.195L156.828 115.865L159.944 118.981L162.614 116.31L163.495 117.191L157.335 123.353L156.453 122.471L159.123 119.801L156.008 116.685L153.338 119.356L152.465 118.483L158.626 112.322Z" fill="#F19B2B"/>
<path d="M164.062 96.3819L165.523 94.921L174.358 103.757L178.885 99.2306L180.258 100.604L174.272 106.591L164.062 96.3819ZM179.628 92.7895C179.233 92.3942 178.852 92.158 178.486 92.0811C178.032 91.9944 177.618 92.1389 177.242 92.5148C176.924 92.8329 176.668 93.3103 176.476 93.9464C176.321 94.4284 176.22 94.9732 176.172 95.5808L174.812 94.1922C174.88 93.6044 175.044 93.0258 175.304 92.457C175.555 91.8784 175.878 91.3918 176.273 90.9965C177.102 90.1672 177.994 89.8925 178.949 90.1721C179.662 90.3844 180.472 90.9432 181.378 91.8494C181.59 92.0617 181.932 92.4232 182.405 92.9341C182.867 93.4355 183.108 93.6957 183.128 93.7151C183.33 93.9175 183.533 94.091 183.735 94.2356C183.938 94.3805 184.116 94.4045 184.27 94.3078L184.719 93.3971L185.702 94.3805C185.586 94.8431 185.451 95.2479 185.297 95.5952C185.152 95.9517 184.945 96.2652 184.675 96.5349C184.55 96.6605 184.367 96.7278 184.126 96.7377C183.904 96.7472 183.701 96.7183 183.518 96.6506C183.373 97.104 183.243 97.4655 183.128 97.7352C182.954 98.1404 182.747 98.4633 182.506 98.7042C181.918 99.2923 181.32 99.6104 180.713 99.6587C180.048 99.707 179.421 99.4369 178.833 98.8487C178.206 98.2222 178.095 97.2532 178.5 95.9422C178.722 95.219 179.175 94.2454 179.859 93.0208L179.628 92.7895ZM180.684 93.8452C180.279 94.5201 180.009 95.0984 179.874 95.5808C179.652 96.3808 179.739 96.9785 180.134 97.3738C180.346 97.5861 180.616 97.6918 180.944 97.6918C181.272 97.6918 181.547 97.5811 181.768 97.3593C181.961 97.1664 182.12 96.9112 182.245 96.5928C182.38 96.188 182.482 95.8939 182.549 95.7109L180.684 93.8452ZM184.694 92.2934C185.34 92.1679 185.866 92.0282 186.27 91.8738C186.878 91.652 187.35 91.3727 187.688 91.0353C187.919 90.8036 188.063 90.5723 188.122 90.341C188.179 90.1097 188.097 89.883 187.876 89.6612C187.577 89.3625 186.666 89.3963 185.142 89.7627C183.619 90.1291 182.496 89.9506 181.773 89.2274C181.195 88.6492 180.925 88.0127 180.963 87.3184C181.002 86.6051 181.31 85.9591 181.889 85.3808C182.207 85.0628 182.573 84.7927 182.988 84.5709C183.393 84.3396 183.831 84.1612 184.304 84.036L185.75 85.4531C185.335 85.5014 184.872 85.6361 184.361 85.8579C183.841 86.0702 183.446 86.311 183.176 86.5811C183.002 86.7546 182.891 86.9521 182.843 87.1739C182.805 87.3861 182.872 87.579 183.046 87.7525C183.354 88.061 184.27 88.0321 185.793 87.6657C187.317 87.28 188.44 87.4489 189.163 88.1717C189.741 88.7504 190.016 89.4203 189.987 90.182C189.958 90.9242 189.65 91.5896 189.061 92.1777C188.676 92.5631 188.242 92.8812 187.76 93.1319C187.297 93.3826 186.767 93.5949 186.169 93.7684L184.694 92.2934ZM185.262 78.8837L186.983 80.6044L188.834 78.7535L189.962 79.8815L188.111 81.7613C188.506 82.1566 189.152 82.8219 190.049 83.7571C190.936 84.6827 191.413 85.1791 191.481 85.2465C191.731 85.4972 192.001 85.6418 192.291 85.6806C192.589 85.7095 192.864 85.5984 193.115 85.3477C193.356 85.1069 193.573 84.7356 193.766 84.2341C193.92 83.8487 194.04 83.4291 194.127 82.976L195.587 84.4369C195.289 85.1791 195.101 85.6372 195.024 85.8107C194.792 86.2927 194.513 86.6975 194.185 87.0254C193.539 87.6714 192.811 87.9073 192.001 87.7338C191.317 87.5892 190.632 87.1746 189.948 86.4901C189.572 86.1143 188.955 85.4778 188.097 84.5815C187.229 83.6753 186.766 83.1929 186.708 83.1351L185.898 83.945L185.262 78.8837Z" fill="#282828"/>
<path d="M186.459 73.9845L189.771 70.6728C190.658 69.7856 191.632 69.323 192.692 69.2846C193.752 69.2267 194.717 69.6315 195.584 70.4993C196.51 71.4249 196.953 72.3695 196.915 73.3336C196.886 74.1146 196.524 74.9676 195.83 75.8932C195.425 76.433 194.707 77.219 193.676 78.2504L198.144 82.719L196.669 84.1939L186.459 73.9845ZM193.705 75.445C194.341 74.8085 194.717 74.2496 194.833 73.7673C194.977 73.1407 194.75 72.5286 194.153 71.9309C193.632 71.4101 193.068 71.2126 192.461 71.3378C191.94 71.4538 191.405 71.7863 190.855 72.3357L189.308 73.8833L192.287 76.8621L193.705 75.445ZM202.337 70.0807C201.941 69.6855 201.561 69.4492 201.194 69.3724C200.741 69.2856 200.327 69.4302 199.951 69.8061C199.633 70.1241 199.377 70.6016 199.184 71.2377C199.03 71.7197 198.929 72.2645 198.88 72.872L197.521 71.4834C197.589 70.8956 197.752 70.317 198.013 69.7482C198.263 69.1696 198.586 68.683 198.982 68.2877C199.811 67.4584 200.703 67.1837 201.657 67.4633C202.371 67.6756 203.181 68.2345 204.087 69.1407C204.299 69.353 204.641 69.7144 205.114 70.2253C205.576 70.7267 205.817 70.987 205.836 71.0063C206.039 71.2087 206.241 71.3822 206.444 71.5268C206.646 71.6717 206.825 71.6957 206.979 71.5994L207.427 70.6883L208.41 71.6717C208.295 72.1343 208.16 72.5391 208.006 72.8865C207.861 73.2429 207.654 73.5564 207.384 73.8262C207.258 73.9517 207.075 74.019 206.834 74.0289C206.612 74.0384 206.41 74.0095 206.227 73.9422C206.082 74.3953 205.952 74.7567 205.836 75.0264C205.663 75.4316 205.456 75.7546 205.215 75.9954C204.627 76.5836 204.029 76.9016 203.421 76.9499C202.756 76.9982 202.129 76.7281 201.542 76.14C200.915 75.5134 200.804 74.5444 201.209 73.2334C201.431 72.5102 201.884 71.5367 202.568 70.3121L202.337 70.0807ZM203.392 71.1365C202.988 71.8114 202.718 72.39 202.583 72.872C202.361 73.6721 202.448 74.2697 202.843 74.665C203.055 74.8773 203.325 74.9831 203.653 74.9831C203.981 74.9831 204.255 74.8724 204.477 74.6506C204.67 74.4577 204.829 74.2024 204.954 73.884C205.089 73.4792 205.19 73.1851 205.258 73.0021L203.392 71.1365ZM207.403 69.5846C208.049 69.4591 208.574 69.3195 208.979 69.165C209.586 68.9432 210.059 68.664 210.396 68.3265C210.628 68.0949 210.772 67.8635 210.83 67.6322C210.888 67.4009 210.806 67.1742 210.584 66.9524C210.286 66.6537 209.374 66.6876 207.851 67.054C206.328 67.4203 205.205 67.2419 204.482 66.5187C203.903 65.9404 203.633 65.304 203.672 64.61C203.711 63.8963 204.019 63.2504 204.597 62.6721C204.915 62.354 205.282 62.0839 205.696 61.8621C206.101 61.6308 206.54 61.4524 207.012 61.3272L208.458 62.7444C208.044 62.7927 207.581 62.9274 207.07 63.1492C206.55 63.3614 206.154 63.6023 205.884 63.8724C205.711 64.0458 205.6 64.2437 205.552 64.4651C205.513 64.6774 205.581 64.8702 205.754 65.0437C206.063 65.3523 206.979 65.3233 208.502 64.957C210.025 64.5712 211.148 64.7401 211.871 65.463C212.45 66.0416 212.725 66.7116 212.696 67.4732C212.667 68.2154 212.358 68.8808 211.77 69.469C211.385 69.8544 210.951 70.1728 210.469 70.4231C210.006 70.6738 209.476 70.8861 208.878 71.0596L207.403 69.5846ZM212.657 64.3311C213.302 64.2056 213.828 64.0659 214.233 63.9115C214.84 63.6901 215.312 63.4104 215.65 63.073C215.881 62.8413 216.026 62.61 216.084 62.3787C216.141 62.1474 216.06 61.9207 215.838 61.6992C215.539 61.4002 214.628 61.4341 213.105 61.8004C211.581 62.1668 210.458 61.9884 209.735 61.2652C209.157 60.6869 208.887 60.0504 208.925 59.3565C208.964 58.6428 209.273 57.9968 209.851 57.4186C210.169 57.1005 210.535 56.8304 210.95 56.6086C211.355 56.3773 211.793 56.1989 212.266 56.0737L213.712 57.4908C213.298 57.5391 212.835 57.6738 212.324 57.8956C211.803 58.1079 211.408 58.3487 211.138 58.6188C210.964 58.7923 210.854 58.9901 210.805 59.2116C210.767 59.4238 210.834 59.6167 211.008 59.7902C211.316 60.0987 212.232 60.0698 213.755 59.7035C215.279 59.3177 216.402 59.4866 217.125 60.2095C217.703 60.7881 217.978 61.458 217.949 62.2197C217.92 62.9619 217.612 63.6273 217.024 64.2155C216.638 64.6009 216.204 64.9193 215.722 65.1696C215.26 65.4203 214.729 65.6326 214.132 65.8061L212.657 64.3311Z" fill="#D32D27"/>
</g>
<defs>
<clipPath id="clip0">
<rect width="250" height="198.519" fill="white"/>
</clipPath>
</defs>
</svg>
